STARTFONT 2.3
FONT -FontForge-Lobster-Book-R-Normal--8-80-72-72-P-46-ISO10646-1
SIZE 8 72 72  4
FONTBOUNDINGBOX 17 13 -4 -4
COMMENT "Generated by fontforge, http://fontforge.sourceforge.net"
COMMENT "Copyright 2010 The Lobster Project Authors (https://github.com/impallari/The-Lobster-Font), with Reserved Font Name "Lobster"."
STARTPROPERTIES 41
FOUNDRY "FontForge"
FAMILY_NAME "Lobster"
WEIGHT_NAME "Book"
SLANT "R"
SETWIDTH_NAME "Normal"
ADD_STYLE_NAME ""
PIXEL_SIZE 8
POINT_SIZE 80
RESOLUTION_X 72
RESOLUTION_Y 72
SPACING "P"
AVERAGE_WIDTH 46
CHARSET_REGISTRY "ISO10646"
CHARSET_ENCODING "1"
FONTNAME_REGISTRY ""
CHARSET_COLLECTIONS "ISO8859-2 ISO8859-5 ISO8859-9 ISO8859-4 ISO10646-1"
BITS_PER_PIXEL 4
FONT_NAME "Lobster-Regular"
FACE_NAME "Lobster Regular"
COPYRIGHT "Copyright 2010 The Lobster Project Authors (https://github.com/impallari/The-Lobster-Font), with Reserved Font Name "Lobster"."
FONT_VERSION "2.100"
FONT_ASCENT 6
FONT_DESCENT 2
UNDERLINE_POSITION -1
UNDERLINE_THICKNESS 1
X_HEIGHT 3
CAP_HEIGHT 5
DEFAULT_CHAR 1
RAW_ASCENT 800
RAW_DESCENT 200
NORM_SPACE 2
RELATIVE_WEIGHT 40
RELATIVE_SETWIDTH 50
SUPERSCRIPT_X 0
SUPERSCRIPT_Y 2
SUPERSCRIPT_SIZE 4
SUBSCRIPT_X 0
SUBSCRIPT_Y 0
SUBSCRIPT_SIZE 4
AVG_LOWERCASE_WIDTH 36
AVG_UPPERCASE_WIDTH 49
ENDPROPERTIES
CHARS 1148
STARTCHAR NULL.dup1
ENCODING 0
SWIDTH 600 0
DWIDTH 5 0
BBX 1 1 0 0
BITMAP
00
ENDCHAR
STARTCHAR nonmarkingreturn
ENCODING 13
SWIDTH 600 0
DWIDTH 5 0
BBX 1 1 0 0
BITMAP
00
ENDCHAR
STARTCHAR space
ENCODING 32
SWIDTH 217 0
DWIDTH 2 0
BBX 1 1 0 0
BITMAP
00
ENDCHAR
STARTCHAR exclam
ENCODING 33
SWIDTH 257 0
DWIDTH 2 0
BBX 3 7 0 0
BITMAP
0010
0A70
0D30
0D00
2900
1100
9600
ENDCHAR
STARTCHAR quotedbl
ENCODING 34
SWIDTH 353 0
DWIDTH 3 0
BBX 4 2 0 4
BITMAP
0BA2
3580
ENDCHAR
STARTCHAR numbersign
ENCODING 35
SWIDTH 659 0
DWIDTH 5 0
BBX 5 6 0 0
BITMAP
003210
027810
1CAD60
4CAC30
093600
053200
ENDCHAR
STARTCHAR dollar
ENCODING 36
SWIDTH 548 0
DWIDTH 4 0
BBX 5 8 0 -1
BITMAP
001500
06BA20
0DA610
06E200
33DA00
C67C00
7CA300
060000
ENDCHAR
STARTCHAR percent
ENCODING 37
SWIDTH 796 0
DWIDTH 6 0
BBX 7 6 0 0
BITMAP
18908100
75B26000
83980000
37558920
00929830
0532A800
ENDCHAR
STARTCHAR ampersand
ENCODING 38
SWIDTH 682 0
DWIDTH 5 0
BBX 6 6 0 0
BITMAP
059A00
0C3810
0A8142
7C3DB1
D91700
7EB400
ENDCHAR
STARTCHAR quotesingle
ENCODING 39
SWIDTH 196 0
DWIDTH 2 0
BBX 2 2 0 4
BITMAP
0B
36
ENDCHAR
STARTCHAR parenleft
ENCODING 40
SWIDTH 437 0
DWIDTH 4 0
BBX 4 8 1 -2
BITMAP
0181
0A20
5900
A400
C200
B200
7500
1600
ENDCHAR
STARTCHAR parenright
ENCODING 41
SWIDTH 413 0
DWIDTH 3 0
BBX 4 8 -1 -2
BITMAP
0090
0083
0077
0077
0094
01D0
0740
3400
ENDCHAR
STARTCHAR asterisk
ENCODING 42
SWIDTH 515 0
DWIDTH 4 0
BBX 4 3 0 3
BITMAP
2BD5
2CC2
0672
ENDCHAR
STARTCHAR plus
ENCODING 43
SWIDTH 442 0
DWIDTH 4 0
BBX 4 3 0 1
BITMAP
0730
8DA1
0900
ENDCHAR
STARTCHAR comma
ENCODING 44
SWIDTH 216 0
DWIDTH 2 0
BBX 2 3 0 -2
BITMAP
A4
61
10
ENDCHAR
STARTCHAR hyphen
ENCODING 45
SWIDTH 290 0
DWIDTH 2 0
BBX 2 1 0 2
BITMAP
78
ENDCHAR
STARTCHAR period
ENCODING 46
SWIDTH 263 0
DWIDTH 2 0
BBX 2 2 0 0
BITMAP
11
96
ENDCHAR
STARTCHAR slash
ENCODING 47
SWIDTH 311 0
DWIDTH 2 0
BBX 3 8 0 -2
BITMAP
0540
0810
0900
0800
3600
6300
8000
8000
ENDCHAR
STARTCHAR zero
ENCODING 48
SWIDTH 546 0
DWIDTH 4 0
BBX 5 6 0 0
BITMAP
06AB10
3E1A60
990B60
C70D30
C64C00
5CB200
ENDCHAR
STARTCHAR one
ENCODING 49
SWIDTH 317 0
DWIDTH 3 0
BBX 3 7 0 0
BITMAP
0010
3C60
0E30
2F10
5C00
8900
B600
ENDCHAR
STARTCHAR two
ENCODING 50
SWIDTH 492 0
DWIDTH 4 0
BBX 5 6 -1 0
BITMAP
028B60
0677B0
001C50
009400
096120
1CCE50
ENDCHAR
STARTCHAR three
ENCODING 51
SWIDTH 514 0
DWIDTH 4 0
BBX 4 6 0 0
BITMAP
0A89
193D
01D3
647C
D07B
89B2
ENDCHAR
STARTCHAR four
ENCODING 52
SWIDTH 476 0
DWIDTH 4 0
BBX 4 6 0 0
BITMAP
04A0
0783
1A55
AAC9
23E2
05B0
ENDCHAR
STARTCHAR five
ENCODING 53
SWIDTH 517 0
DWIDTH 4 0
BBX 4 7 0 0
BITMAP
0102
0CDC
1900
4BB5
227C
C46B
99B2
ENDCHAR
STARTCHAR six
ENCODING 54
SWIDTH 500 0
DWIDTH 4 0
BBX 4 6 0 0
BITMAP
069A
4D06
AA95
D63C
C55A
6CA1
ENDCHAR
STARTCHAR seven
ENCODING 55
SWIDTH 464 0
DWIDTH 4 0
BBX 5 6 0 0
BITMAP
5EFE10
216600
02B000
0C4000
4E0000
4C0000
ENDCHAR
STARTCHAR eight
ENCODING 56
SWIDTH 499 0
DWIDTH 4 0
BBX 4 6 0 0
BITMAP
0A79
2F2D
0CE3
88C9
E26C
79A3
ENDCHAR
STARTCHAR nine
ENCODING 57
SWIDTH 489 0
DWIDTH 4 0
BBX 4 6 0 0
BITMAP
19A7
963D
B46E
4AAB
60B5
9980
ENDCHAR
STARTCHAR colon
ENCODING 58
SWIDTH 267 0
DWIDTH 2 0
BBX 2 4 0 0
BITMAP
2D
02
87
11
ENDCHAR
STARTCHAR semicolon
ENCODING 59
SWIDTH 276 0
DWIDTH 2 0
BBX 2 4 0 -1
BITMAP
2D
13
77
31
ENDCHAR
STARTCHAR less
ENCODING 60
SWIDTH 358 0
DWIDTH 3 0
BBX 3 4 0 0
BITMAP
0050
6930
5A20
0110
ENDCHAR
STARTCHAR equal
ENCODING 61
SWIDTH 515 0
DWIDTH 4 0
BBX 4 3 0 1
BITMAP
4DD9
0000
9DD4
ENDCHAR
STARTCHAR greater
ENCODING 62
SWIDTH 362 0
DWIDTH 3 0
BBX 3 4 0 0
BITMAP
4200
1970
7820
2000
ENDCHAR
STARTCHAR question
ENCODING 63
SWIDTH 441 0
DWIDTH 4 0
BBX 4 6 0 0
BITMAP
38C3
75B5
0670
1800
1200
7700
ENDCHAR
STARTCHAR at
ENCODING 64
SWIDTH 688 0
DWIDTH 6 0
BBX 7 6 -1 -1
BITMAP
00399500
04A88A10
0B66A820
1A958A00
0C56A300
05AA6000
ENDCHAR
STARTCHAR A
ENCODING 65
SWIDTH 668 0
DWIDTH 5 0
BBX 6 7 0 -1
BITMAP
0004C6
0055E4
59C6F1
8865C0
0D1890
4B0C60
390000
ENDCHAR
STARTCHAR B
ENCODING 66
SWIDTH 641 0
DWIDTH 5 0
BBX 5 6 0 0
BITMAP
189850
B5D490
67CC50
0A75C0
0D46A0
1F8D30
ENDCHAR
STARTCHAR C
ENCODING 67
SWIDTH 497 0
DWIDTH 4 0
BBX 5 6 0 0
BITMAP
06A820
3E1620
9B0000
C80000
C80200
6EA500
ENDCHAR
STARTCHAR D
ENCODING 68
SWIDTH 663 0
DWIDTH 5 0
BBX 6 6 0 0
BITMAP
288860
B5D0E1
77A0F2
0B63E0
0E3890
2FAC10
ENDCHAR
STARTCHAR E
ENCODING 69
SWIDTH 459 0
DWIDTH 4 0
BBX 4 6 0 0
BITMAP
0599
0D27
0B70
8C00
D803
8E92
ENDCHAR
STARTCHAR F
ENCODING 70
SWIDTH 459 0
DWIDTH 4 0
BBX 5 6 0 0
BITMAP
39EC80
B5C000
68C600
0C5000
0E2000
3E0000
ENDCHAR
STARTCHAR G
ENCODING 71
SWIDTH 578 0
DWIDTH 5 0
BBX 5 8 0 -2
BITMAP
089840
7C0440
C70520
B71E20
3B9E00
187B00
659600
177000
ENDCHAR
STARTCHAR H
ENCODING 72
SWIDTH 665 0
DWIDTH 5 0
BBX 6 6 0 0
BITMAP
17E2B7
A5D0E3
67DAF1
0A76C0
0D4990
2F1C60
ENDCHAR
STARTCHAR I
ENCODING 73
SWIDTH 375 0
DWIDTH 3 0
BBX 4 6 0 0
BITMAP
18E1
A5D0
88A0
0B70
0E30
2F00
ENDCHAR
STARTCHAR J
ENCODING 74
SWIDTH 536 0
DWIDTH 4 0
BBX 5 8 0 -2
BITMAP
005C80
057C50
044F10
004D00
007A00
57B700
B2E200
575000
ENDCHAR
STARTCHAR K
ENCODING 75
SWIDTH 601 0
DWIDTH 5 0
BBX 6 6 0 0
BITMAP
18E2A1
B5D810
58DA10
0B6C50
0E3E20
2F2E10
ENDCHAR
STARTCHAR L
ENCODING 76
SWIDTH 379 0
DWIDTH 3 0
BBX 6 8 0 -2
BITMAP
18E100
B5D000
789000
0B6000
0E3000
3F2000
03B721
0008E1
ENDCHAR
STARTCHAR M
ENCODING 77
SWIDTH 787 0
DWIDTH 6 0
BBX 7 6 0 0
BITMAP
05BA0E60
47CA5F30
36E9AF10
08ABAE00
099E7C00
459A7A00
ENDCHAR
STARTCHAR N
ENCODING 78
SWIDTH 668 0
DWIDTH 5 0
BBX 6 6 0 0
BITMAP
2AF32A
B5F656
98CA83
0B5DB0
0C1FB0
290C80
ENDCHAR
STARTCHAR O
ENCODING 79
SWIDTH 665 0
DWIDTH 5 0
BBX 6 6 0 0
BITMAP
078890
96C0D3
8B70E3
0F32E0
2F1890
0BB900
ENDCHAR
STARTCHAR P
ENCODING 80
SWIDTH 573 0
DWIDTH 5 0
BBX 5 6 0 0
BITMAP
168840
A5D3A0
87A770
0BA600
0E3000
2F0000
ENDCHAR
STARTCHAR Q
ENCODING 81
SWIDTH 665 0
DWIDTH 5 0
BBX 6 7 0 -1
BITMAP
179890
A6C0D3
5C60E3
0F23E1
2F7C80
0BCE00
000A90
ENDCHAR
STARTCHAR R
ENCODING 82
SWIDTH 601 0
DWIDTH 5 0
BBX 5 6 0 0
BITMAP
179850
B5D580
58BD20
0B6C50
0E3E20
2F2E10
ENDCHAR
STARTCHAR S
ENCODING 83
SWIDTH 570 0
DWIDTH 5 0
BBX 5 6 0 0
BITMAP
05A930
0B7630
05E300
278D00
A52F10
5AA600
ENDCHAR
STARTCHAR T
ENCODING 84
SWIDTH 481 0
DWIDTH 4 0
BBX 6 6 0 0
BITMAP
3ADDC6
C1C500
70F200
03E000
06B000
0A8000
ENDCHAR
STARTCHAR U
ENCODING 85
SWIDTH 716 0
DWIDTH 6 0
BBX 6 6 0 0
BITMAP
27E42F
B2F15C
85B098
0970C5
0B52E1
06DC40
ENDCHAR
STARTCHAR V
ENCODING 86
SWIDTH 615 0
DWIDTH 5 0
BBX 6 6 0 0
BITMAP
17E344
A1F370
80F370
00E730
00EA00
00E700
ENDCHAR
STARTCHAR W
ENCODING 87
SWIDTH 962 0
DWIDTH 8 0
BBX 9 6 0 0
BITMAP
17E34E0710
A1F39E0800
80F3AF2500
00E76F6000
00EA2F6000
00E72F3000
ENDCHAR
STARTCHAR X
ENCODING 88
SWIDTH 620 0
DWIDTH 5 0
BBX 5 6 0 0
BITMAP
17E480
A1CC30
809B00
008D00
029F10
070E50
ENDCHAR
STARTCHAR Y
ENCODING 89
SWIDTH 620 0
DWIDTH 5 0
BBX 6 6 0 0
BITMAP
17E425
A1C870
808C60
005F10
007C00
00A900
ENDCHAR
STARTCHAR Z
ENCODING 90
SWIDTH 542 0
DWIDTH 4 0
BBX 5 6 0 0
BITMAP
3A9F30
12AA00
02F300
0AA000
2F2300
AD8A00
ENDCHAR
STARTCHAR bracketleft
ENCODING 91
SWIDTH 400 0
DWIDTH 3 0
BBX 4 8 0 -2
BITMAP
0792
0A20
0C00
2B00
5800
8400
B100
E500
ENDCHAR
STARTCHAR backslash
ENCODING 92
SWIDTH 362 0
DWIDTH 3 0
BBX 3 8 0 -2
BITMAP
8000
5300
2700
0900
0900
0710
0440
0170
ENDCHAR
STARTCHAR bracketright
ENCODING 93
SWIDTH 400 0
DWIDTH 3 0
BBX 4 8 -1 -2
BITMAP
006C
0039
0076
00A3
00C0
01B0
0480
3A50
ENDCHAR
STARTCHAR asciicircum
ENCODING 94
SWIDTH 421 0
DWIDTH 3 0
BBX 3 2 0 4
BITMAP
0130
2860
ENDCHAR
STARTCHAR underscore
ENCODING 95
SWIDTH 444 0
DWIDTH 4 0
BBX 4 1 0 0
BITMAP
7BB2
ENDCHAR
STARTCHAR grave
ENCODING 96
SWIDTH 201 0
DWIDTH 2 0
BBX 2 2 0 4
BITMAP
81
53
ENDCHAR
STARTCHAR a
ENCODING 97
SWIDTH 526 0
DWIDTH 4 0
BBX 6 4 -1 0
BITMAP
03CAB0
0C5980
1F2D52
0DABA1
ENDCHAR
STARTCHAR b
ENCODING 98
SWIDTH 444 0
DWIDTH 4 0
BBX 4 6 0 0
BITMAP
1700
5C00
8CC1
C693
F2C1
CC50
ENDCHAR
STARTCHAR c
ENCODING 99
SWIDTH 384 0
DWIDTH 3 0
BBX 5 4 -1 0
BITMAP
03B900
0C5200
1F2110
0CB600
ENDCHAR
STARTCHAR d
ENCODING 100
SWIDTH 525 0
DWIDTH 4 0
BBX 6 6 -1 0
BITMAP
000061
0003E0
03CAB0
0C5980
1F2D52
0DABA1
ENDCHAR
STARTCHAR e
ENCODING 101
SWIDTH 384 0
DWIDTH 3 0
BBX 5 4 -1 0
BITMAP
03B900
0C6900
1F6110
0CB600
ENDCHAR
STARTCHAR f
ENCODING 102
SWIDTH 267 0
DWIDTH 2 0
BBX 5 8 -2 -2
BITMAP
001CA0
005C10
008A10
00C600
00E200
03E000
49B000
6D5000
ENDCHAR
STARTCHAR g
ENCODING 103
SWIDTH 507 0
DWIDTH 4 0
BBX 6 6 -1 -2
BITMAP
03BAB0
0C5980
1F2D52
0DBF71
039D00
05C600
ENDCHAR
STARTCHAR h
ENCODING 104
SWIDTH 505 0
DWIDTH 4 0
BBX 6 6 -1 0
BITMAP
017000
05C000
08DD40
0B6C50
0E3E22
3E0CA1
ENDCHAR
STARTCHAR i
ENCODING 105
SWIDTH 267 0
DWIDTH 2 0
BBX 3 6 0 0
BITMAP
3C00
0200
8900
C600
F320
DA10
ENDCHAR
STARTCHAR j
ENCODING 106
SWIDTH 240 0
DWIDTH 2 0
BBX 5 8 -2 -2
BITMAP
003B00
000200
008900
00C600
00E410
03F600
3AB000
6C5000
ENDCHAR
STARTCHAR k
ENCODING 107
SWIDTH 518 0
DWIDTH 4 0
BBX 6 6 -1 0
BITMAP
017000
05C000
089730
0BDD20
0E3E42
3E0CB1
ENDCHAR
STARTCHAR l
ENCODING 108
SWIDTH 267 0
DWIDTH 2 0
BBX 3 6 0 0
BITMAP
1800
5C00
8900
C500
F320
DB10
ENDCHAR
STARTCHAR m
ENCODING 109
SWIDTH 752 0
DWIDTH 6 0
BBX 8 4 -1 0
BITMAP
08DD9D40
0C6C6C50
0E3F2F22
3E3E0D90
ENDCHAR
STARTCHAR n
ENCODING 110
SWIDTH 505 0
DWIDTH 4 0
BBX 6 4 -1 0
BITMAP
08DD40
0C6C50
0E3E22
3E0CA1
ENDCHAR
STARTCHAR o
ENCODING 111
SWIDTH 439 0
DWIDTH 4 0
BBX 6 4 -1 0
BITMAP
03BA00
0C5A61
1F2A00
0CB400
ENDCHAR
STARTCHAR p
ENCODING 112
SWIDTH 468 0
DWIDTH 4 0
BBX 5 7 -1 -2
BITMAP
035000
09CC50
0C6970
1F2C40
3FBA00
7B0000
860000
ENDCHAR
STARTCHAR q
ENCODING 113
SWIDTH 486 0
DWIDTH 4 0
BBX 5 6 -1 -2
BITMAP
03BAB0
0C5A80
1F2D40
0DBF10
004D00
006800
ENDCHAR
STARTCHAR r
ENCODING 114
SWIDTH 376 0
DWIDTH 3 0
BBX 4 4 -1 0
BITMAP
08CD
0C61
0E20
3E00
ENDCHAR
STARTCHAR s
ENCODING 115
SWIDTH 382 0
DWIDTH 3 0
BBX 5 5 -1 0
BITMAP
002100
01F600
05B700
18A910
1AC400
ENDCHAR
STARTCHAR t
ENCODING 116
SWIDTH 267 0
DWIDTH 2 0
BBX 3 6 0 0
BITMAP
0200
5C00
AA10
C600
F320
DA10
ENDCHAR
STARTCHAR u
ENCODING 117
SWIDTH 505 0
DWIDTH 4 0
BBX 5 4 0 0
BITMAP
899800
C6C500
F4F320
D9D900
ENDCHAR
STARTCHAR v
ENCODING 118
SWIDTH 414 0
DWIDTH 3 0
BBX 4 4 0 0
BITMAP
8992
C661
F390
DB30
ENDCHAR
STARTCHAR w
ENCODING 119
SWIDTH 661 0
DWIDTH 5 0
BBX 6 4 0 0
BITMAP
899891
C6C561
F4F290
D9DB20
ENDCHAR
STARTCHAR x
ENCODING 120
SWIDTH 522 0
DWIDTH 4 0
BBX 5 4 0 0
BITMAP
2B8900
54E600
36E020
53CA10
ENDCHAR
STARTCHAR y
ENCODING 121
SWIDTH 486 0
DWIDTH 4 0
BBX 5 6 0 -2
BITMAP
899800
C6C500
F4F310
DCF600
4AB000
6C4000
ENDCHAR
STARTCHAR z
ENCODING 122
SWIDTH 428 0
DWIDTH 3 0
BBX 4 4 0 0
BITMAP
69F2
1980
2E20
BCB0
ENDCHAR
STARTCHAR braceleft
ENCODING 123
SWIDTH 352 0
DWIDTH 3 0
BBX 4 8 0 -2
BITMAP
03A1
0940
0B20
0C10
4900
3A00
7600
7800
ENDCHAR
STARTCHAR bar
ENCODING 124
SWIDTH 532 0
DWIDTH 4 0
BBX 2 8 1 -2
BITMAP
48
48
48
48
48
48
48
48
ENDCHAR
STARTCHAR braceright
ENCODING 125
SWIDTH 352 0
DWIDTH 3 0
BBX 4 8 -1 -2
BITMAP
01C2
00A4
00C1
00C0
01B2
0670
0850
3B10
ENDCHAR
STARTCHAR asciitilde
ENCODING 126
SWIDTH 431 0
DWIDTH 3 0
BBX 4 1 0 4
BITMAP
19A2
ENDCHAR
STARTCHAR uni00A0
ENCODING 160
SWIDTH 217 0
DWIDTH 2 0
BBX 1 1 0 0
BITMAP
00
ENDCHAR
STARTCHAR exclamdown
ENCODING 161
SWIDTH 219 0
DWIDTH 2 0
BBX 3 6 -1 -2
BITMAP
04B0
0230
0830
0D10
2E00
5800
ENDCHAR
STARTCHAR cent
ENCODING 162
SWIDTH 384 0
DWIDTH 3 0
BBX 4 6 0 0
BITMAP
0060
3BC4
B820
D710
6C60
1400
ENDCHAR
STARTCHAR sterling
ENCODING 163
SWIDTH 455 0
DWIDTH 4 0
BBX 5 6 0 0
BITMAP
03BB10
0A6500
4E7200
2E0000
5B0100
ADDA00
ENDCHAR
STARTCHAR currency
ENCODING 164
SWIDTH 500 0
DWIDTH 4 0
BBX 4 4 0 1
BITMAP
1001
3993
2543
3883
ENDCHAR
STARTCHAR yen
ENCODING 165
SWIDTH 558 0
DWIDTH 4 0
BBX 5 6 0 0
BITMAP
1F5250
0B8700
07D600
09F600
2AD500
0A9000
ENDCHAR
STARTCHAR brokenbar
ENCODING 166
SWIDTH 532 0
DWIDTH 4 0
BBX 2 8 1 -2
BITMAP
48
48
48
24
36
48
48
48
ENDCHAR
STARTCHAR section
ENCODING 167
SWIDTH 542 0
DWIDTH 4 0
BBX 5 7 0 -1
BITMAP
029820
089300
3CE600
2D6E00
36EA00
C1E100
675000
ENDCHAR
STARTCHAR dieresis
ENCODING 168
SWIDTH 392 0
DWIDTH 3 0
BBX 3 1 0 5
BITMAP
5370
ENDCHAR
STARTCHAR copyright
ENCODING 169
SWIDTH 587 0
DWIDTH 5 0
BBX 5 5 0 0
BITMAP
056300
466710
670340
467710
055300
ENDCHAR
STARTCHAR ordfeminine
ENCODING 170
SWIDTH 345 0
DWIDTH 3 0
BBX 3 3 0 3
BITMAP
4870
9740
2420
ENDCHAR
STARTCHAR guillemotleft
ENCODING 171
SWIDTH 589 0
DWIDTH 5 0
BBX 5 4 0 0
BITMAP
002120
478500
477600
000100
ENDCHAR
STARTCHAR logicalnot
ENCODING 172
SWIDTH 444 0
DWIDTH 4 0
BBX 4 3 0 0
BITMAP
79C1
00D0
0030
ENDCHAR
STARTCHAR uni00AD
ENCODING 173
SWIDTH 290 0
DWIDTH 2 0
BBX 2 1 0 2
BITMAP
78
ENDCHAR
STARTCHAR registered
ENCODING 174
SWIDTH 553 0
DWIDTH 4 0
BBX 5 5 0 0
BITMAP
066200
566600
678420
554700
056200
ENDCHAR
STARTCHAR macron
ENCODING 175
SWIDTH 446 0
DWIDTH 4 0
BBX 4 1 0 4
BITMAP
3882
ENDCHAR
STARTCHAR degree
ENCODING 176
SWIDTH 314 0
DWIDTH 3 0
BBX 3 3 0 3
BITMAP
2610
8520
5400
ENDCHAR
STARTCHAR plusminus
ENCODING 177
SWIDTH 479 0
DWIDTH 4 0
BBX 4 4 0 1
BITMAP
0270
4BB5
0810
7990
ENDCHAR
STARTCHAR uni00B2
ENCODING 178
SWIDTH 328 0
DWIDTH 3 0
BBX 3 4 0 2
BITMAP
2860
0520
2720
1620
ENDCHAR
STARTCHAR uni00B3
ENCODING 179
SWIDTH 336 0
DWIDTH 3 0
BBX 3 4 0 2
BITMAP
1860
0740
7570
3610
ENDCHAR
STARTCHAR acute
ENCODING 180
SWIDTH 316 0
DWIDTH 3 0
BBX 2 2 1 4
BITMAP
33
80
ENDCHAR
STARTCHAR uni00B5
ENCODING 181
SWIDTH 505 0
DWIDTH 4 0
BBX 6 6 -1 -2
BITMAP
089980
0C6C50
0F4F32
3F9D90
6B0000
210000
ENDCHAR
STARTCHAR paragraph
ENCODING 182
SWIDTH 542 0
DWIDTH 4 0
BBX 4 7 0 -1
BITMAP
09F9
5FEB
4FBB
08C9
07A6
0AA2
0430
ENDCHAR
STARTCHAR periodcentered
ENCODING 183
SWIDTH 434 0
DWIDTH 3 0
BBX 2 2 1 1
BITMAP
52
D5
ENDCHAR
STARTCHAR cedilla
ENCODING 184
SWIDTH 227 0
DWIDTH 2 0
BBX 2 2 0 -2
BITMAP
45
46
ENDCHAR
STARTCHAR uni00B9
ENCODING 185
SWIDTH 229 0
DWIDTH 2 0
BBX 2 4 0 3
BITMAP
02
59
55
72
ENDCHAR
STARTCHAR ordmasculine
ENCODING 186
SWIDTH 329 0
DWIDTH 3 0
BBX 3 3 0 3
BITMAP
5930
9500
2300
ENDCHAR
STARTCHAR guillemotright
ENCODING 187
SWIDTH 586 0
DWIDTH 5 0
BBX 5 4 0 0
BITMAP
212000
176720
468610
100000
ENDCHAR
STARTCHAR onequarter
ENCODING 188
SWIDTH 749 0
DWIDTH 6 0
BBX 6 7 0 0
BITMAP
020000
590270
550810
723600
008099
044299
080064
ENDCHAR
STARTCHAR onehalf
ENCODING 189
SWIDTH 745 0
DWIDTH 6 0
BBX 6 7 0 0
BITMAP
020000
590270
550810
723600
00807A
044045
0802B6
ENDCHAR
STARTCHAR threequarters
ENCODING 190
SWIDTH 836 0
DWIDTH 7 0
BBX 7 6 0 0
BITMAP
18605300
07418000
75772000
36373960
00815A50
02600A00
ENDCHAR
STARTCHAR questiondown
ENCODING 191
SWIDTH 439 0
DWIDTH 4 0
BBX 3 6 0 -2
BITMAP
03C0
0030
0350
4900
E2B0
C770
ENDCHAR
STARTCHAR Agrave
ENCODING 192
SWIDTH 668 0
DWIDTH 5 0
BBX 6 9 0 -1
BITMAP
0000B0
000050
0004C6
0055E4
59C6F1
8865C0
0D1890
4B0C60
390000
ENDCHAR
STARTCHAR Aacute
ENCODING 193
SWIDTH 668 0
DWIDTH 5 0
BBX 6 9 0 -1
BITMAP
00000B
000023
0004C6
0055E4
59C6F1
8865C0
0D1890
4B0C60
390000
ENDCHAR
STARTCHAR Acircumflex
ENCODING 194
SWIDTH 668 0
DWIDTH 5 0
BBX 6 9 0 -1
BITMAP
00003A
000042
0004C6
0055E4
59C6F1
8865C0
0D1890
4B0C60
390000
ENDCHAR
STARTCHAR Atilde
ENCODING 195
SWIDTH 668 0
DWIDTH 5 0
BBX 7 9 0 -1
BITMAP
00016310
00014600
0004C600
0055E400
59C6F100
8865C000
0D189000
4B0C6000
39000000
ENDCHAR
STARTCHAR Adieresis
ENCODING 196
SWIDTH 668 0
DWIDTH 5 0
BBX 6 8 0 -1
BITMAP
00037A
0004C6
0055E4
59C6F1
8865C0
0D1890
4B0C60
390000
ENDCHAR
STARTCHAR Aring
ENCODING 197
SWIDTH 668 0
DWIDTH 5 0
BBX 6 9 0 -1
BITMAP
000032
000042
0004C6
0055E4
59C6F1
8865C0
0D1890
4B0C60
390000
ENDCHAR
STARTCHAR AE
ENCODING 198
SWIDTH 764 0
DWIDTH 6 0
BBX 8 7 0 -1
BITMAP
0003CBA1
0054E200
68C7E910
5866B000
0D198000
4B0CED20
39000000
ENDCHAR
STARTCHAR Ccedilla
ENCODING 199
SWIDTH 497 0
DWIDTH 4 0
BBX 5 8 0 -2
BITMAP
06A820
3E1520
9A0000
C80000
CB3710
6EC300
027000
055000
ENDCHAR
STARTCHAR Egrave
ENCODING 200
SWIDTH 459 0
DWIDTH 4 0
BBX 4 8 0 0
BITMAP
00B0
0040
0599
0D27
0B70
8C00
D803
8E92
ENDCHAR
STARTCHAR Eacute
ENCODING 201
SWIDTH 459 0
DWIDTH 4 0
BBX 4 8 0 0
BITMAP
000B
0023
0599
0D27
0B70
8C00
D803
8E92
ENDCHAR
STARTCHAR Ecircumflex
ENCODING 202
SWIDTH 459 0
DWIDTH 4 0
BBX 4 8 0 0
BITMAP
0049
0133
0599
0D27
0B70
8C00
D803
8E92
ENDCHAR
STARTCHAR Edieresis
ENCODING 203
SWIDTH 459 0
DWIDTH 4 0
BBX 5 8 0 0
BITMAP
00A730
000000
059900
0D2700
0B7000
8C0000
D80300
8E9200
ENDCHAR
STARTCHAR Igrave
ENCODING 204
SWIDTH 375 0
DWIDTH 3 0
BBX 4 8 0 0
BITMAP
02A0
0050
18E1
A5D0
88A0
0B70
0E30
2F00
ENDCHAR
STARTCHAR Iacute
ENCODING 205
SWIDTH 375 0
DWIDTH 3 0
BBX 4 8 0 0
BITMAP
0039
0041
18E1
A5D0
88A0
0B70
0E30
2F00
ENDCHAR
STARTCHAR Icircumflex
ENCODING 206
SWIDTH 375 0
DWIDTH 3 0
BBX 4 8 0 0
BITMAP
0076
0223
18E1
A5D0
88A0
0B70
0E30
2F00
ENDCHAR
STARTCHAR Idieresis
ENCODING 207
SWIDTH 375 0
DWIDTH 3 0
BBX 4 7 0 0
BITMAP
055A
18E1
A5D0
88A0
0B70
0E30
2F00
ENDCHAR
STARTCHAR Eth
ENCODING 208
SWIDTH 663 0
DWIDTH 5 0
BBX 6 6 0 0
BITMAP
28A870
B5C0F1
3BC2F2
0C53E0
0E38A0
2FAC10
ENDCHAR
STARTCHAR Ntilde
ENCODING 209
SWIDTH 686 0
DWIDTH 5 0
BBX 6 8 0 0
BITMAP
000431
001572
2AF32A
B5F656
98CA83
0B5DB0
0C1FB0
290C80
ENDCHAR
STARTCHAR Ograve
ENCODING 210
SWIDTH 665 0
DWIDTH 5 0
BBX 6 8 0 0
BITMAP
006500
001300
078890
96C0D3
8B70E3
0F32E0
2F1890
0BB900
ENDCHAR
STARTCHAR Oacute
ENCODING 211
SWIDTH 665 0
DWIDTH 5 0
BBX 6 8 0 0
BITMAP
000560
000500
078890
96C0D3
8B70E3
0F32E0
2F1890
0BB900
ENDCHAR
STARTCHAR Ocircumflex
ENCODING 212
SWIDTH 665 0
DWIDTH 5 0
BBX 6 8 0 0
BITMAP
000A30
003130
078890
96C0D3
8B70E3
0F32E0
2F1890
0BB900
ENDCHAR
STARTCHAR Otilde
ENCODING 213
SWIDTH 665 0
DWIDTH 5 0
BBX 6 8 0 0
BITMAP
002721
001460
078890
96C0D3
8B70E3
0F32E0
2F1890
0BB900
ENDCHAR
STARTCHAR Odieresis
ENCODING 214
SWIDTH 665 0
DWIDTH 5 0
BBX 6 8 0 0
BITMAP
008480
000000
078890
96C0D3
8B70E3
0F32E0
2F1890
0BB900
ENDCHAR
STARTCHAR multiply
ENCODING 215
SWIDTH 414 0
DWIDTH 3 0
BBX 3 3 0 1
BITMAP
6680
2E60
3140
ENDCHAR
STARTCHAR Oslash
ENCODING 216
SWIDTH 658 0
DWIDTH 5 0
BBX 5 7 0 -1
BITMAP
075B70
94B7F0
9A76F0
0F56C0
2F6A50
0CC700
003000
ENDCHAR
STARTCHAR Ugrave
ENCODING 217
SWIDTH 716 0
DWIDTH 6 0
BBX 6 8 0 0
BITMAP
000920
000320
27E43E
B2E06B
76B098
0970D4
0B53E0
07DC40
ENDCHAR
STARTCHAR Uacute
ENCODING 218
SWIDTH 716 0
DWIDTH 6 0
BBX 6 8 0 0
BITMAP
0001B0
000220
27E43E
B2E06B
76B098
0970D4
0B53E0
07DC40
ENDCHAR
STARTCHAR Ucircumflex
ENCODING 219
SWIDTH 716 0
DWIDTH 6 0
BBX 6 8 0 0
BITMAP
0002B0
000421
27E43E
B2E06B
76B098
0970D4
0B53E0
07DC40
ENDCHAR
STARTCHAR Udieresis
ENCODING 220
SWIDTH 716 0
DWIDTH 6 0
BBX 6 8 0 0
BITMAP
000A64
000000
27E43E
B2E06B
76B098
0970D4
0B53E0
07DC40
ENDCHAR
STARTCHAR Yacute
ENCODING 221
SWIDTH 620 0
DWIDTH 5 0
BBX 6 8 0 0
BITMAP
000093
000050
17E425
A1C870
808C60
005F10
007C00
00A900
ENDCHAR
STARTCHAR Thorn
ENCODING 222
SWIDTH 583 0
DWIDTH 5 0
BBX 5 6 0 0
BITMAP
007100
07E720
A8B3A0
8A7770
0E7500
2F0000
ENDCHAR
STARTCHAR germandbls
ENCODING 223
SWIDTH 480 0
DWIDTH 4 0
BBX 5 8 -1 -2
BITMAP
00AA30
04C730
089800
0C6A30
0E3870
3E6B20
6C0000
860000
ENDCHAR
STARTCHAR agrave
ENCODING 224
SWIDTH 526 0
DWIDTH 4 0
BBX 6 6 -1 0
BITMAP
002A00
000500
03CAB0
0C5980
1F2D52
0DABA1
ENDCHAR
STARTCHAR aacute
ENCODING 225
SWIDTH 526 0
DWIDTH 4 0
BBX 6 6 -1 0
BITMAP
000830
000500
03CAB0
0C5980
1F2D52
0DABA1
ENDCHAR
STARTCHAR acircumflex
ENCODING 226
SWIDTH 526 0
DWIDTH 4 0
BBX 6 6 -1 0
BITMAP
000940
003230
03CAB0
0C5980
1F2D52
0DABA1
ENDCHAR
STARTCHAR atilde
ENCODING 227
SWIDTH 526 0
DWIDTH 4 0
BBX 6 6 -1 0
BITMAP
008E90
000310
03CAB0
0C5980
1F2D52
0DABA1
ENDCHAR
STARTCHAR adieresis
ENCODING 228
SWIDTH 526 0
DWIDTH 4 0
BBX 6 6 -1 0
BITMAP
0065A0
000000
03CAB0
0C5980
1F2D52
0DABA1
ENDCHAR
STARTCHAR aring
ENCODING 229
SWIDTH 526 0
DWIDTH 4 0
BBX 6 6 -1 0
BITMAP
001810
000500
03CAB0
0C5980
1F2D52
0DABA1
ENDCHAR
STARTCHAR ae
ENCODING 230
SWIDTH 650 0
DWIDTH 5 0
BBX 6 4 0 0
BITMAP
17CCA0
58E890
F4F721
CAAB70
ENDCHAR
STARTCHAR ccedilla
ENCODING 231
SWIDTH 384 0
DWIDTH 3 0
BBX 5 6 -1 -2
BITMAP
03B900
0C4200
1F4610
0CD400
005400
026200
ENDCHAR
STARTCHAR egrave
ENCODING 232
SWIDTH 384 0
DWIDTH 3 0
BBX 5 6 -1 0
BITMAP
009300
003200
03B900
0C6900
1F6110
0CB600
ENDCHAR
STARTCHAR eacute
ENCODING 233
SWIDTH 384 0
DWIDTH 3 0
BBX 5 6 -1 0
BITMAP
000A20
001500
03B900
0C6900
1F6110
0CB600
ENDCHAR
STARTCHAR ecircumflex
ENCODING 234
SWIDTH 384 0
DWIDTH 3 0
BBX 5 6 -1 0
BITMAP
002B00
005310
03B900
0C6900
1F6110
0CB600
ENDCHAR
STARTCHAR edieresis
ENCODING 235
SWIDTH 384 0
DWIDTH 3 0
BBX 5 6 -1 0
BITMAP
00A730
000000
03B900
0C6900
1F6110
0CB600
ENDCHAR
STARTCHAR igrave
ENCODING 236
SWIDTH 267 0
DWIDTH 2 0
BBX 3 6 0 0
BITMAP
6500
1400
8900
C600
F320
DA10
ENDCHAR
STARTCHAR iacute
ENCODING 237
SWIDTH 267 0
DWIDTH 2 0
BBX 3 6 0 0
BITMAP
0920
0500
8900
C600
F320
DA10
ENDCHAR
STARTCHAR icircumflex
ENCODING 238
SWIDTH 267 0
DWIDTH 2 0
BBX 3 6 0 0
BITMAP
1B10
4220
8900
C600
F320
DA10
ENDCHAR
STARTCHAR idieresis
ENCODING 239
SWIDTH 267 0
DWIDTH 2 0
BBX 3 6 0 0
BITMAP
A650
0000
8900
C600
F320
DA10
ENDCHAR
STARTCHAR eth
ENCODING 240
SWIDTH 526 0
DWIDTH 4 0
BBX 6 6 -1 0
BITMAP
000872
0029A0
03CAB0
0C5980
1F2D52
0DABB2
ENDCHAR
STARTCHAR ntilde
ENCODING 241
SWIDTH 505 0
DWIDTH 4 0
BBX 6 6 -1 0
BITMAP
01BD60
000300
08DD40
0C6C50
0E3E22
3E0CA1
ENDCHAR
STARTCHAR ograve
ENCODING 242
SWIDTH 433 0
DWIDTH 3 0
BBX 6 6 -1 0
BITMAP
006500
001300
04BA00
0D5B61
1F1A00
0CB300
ENDCHAR
STARTCHAR oacute
ENCODING 243
SWIDTH 439 0
DWIDTH 4 0
BBX 6 6 -1 0
BITMAP
000A20
001500
03BA00
0C5A61
1F2A00
0CB400
ENDCHAR
STARTCHAR ocircumflex
ENCODING 244
SWIDTH 433 0
DWIDTH 3 0
BBX 6 6 -1 0
BITMAP
003A00
005300
04BA00
0D5B61
1F1A00
0CB300
ENDCHAR
STARTCHAR otilde
ENCODING 245
SWIDTH 433 0
DWIDTH 3 0
BBX 6 6 -1 0
BITMAP
04EB30
002300
04BA00
0D5B61
1F1A00
0CB300
ENDCHAR
STARTCHAR odieresis
ENCODING 246
SWIDTH 433 0
DWIDTH 3 0
BBX 6 6 -1 0
BITMAP
019820
000000
04BA00
0D5B61
1F1A00
0CB300
ENDCHAR
STARTCHAR divide
ENCODING 247
SWIDTH 415 0
DWIDTH 3 0
BBX 4 5 0 0
BITMAP
0780
0110
6AA2
0E10
0200
ENDCHAR
STARTCHAR oslash
ENCODING 248
SWIDTH 428 0
DWIDTH 3 0
BBX 5 5 -1 -1
BITMAP
03BA50
0D6C10
1F8B00
0EC300
310000
ENDCHAR
STARTCHAR ugrave
ENCODING 249
SWIDTH 505 0
DWIDTH 4 0
BBX 5 6 0 0
BITMAP
056000
014000
899800
C6C500
F4F320
D9D900
ENDCHAR
STARTCHAR uacute
ENCODING 250
SWIDTH 505 0
DWIDTH 4 0
BBX 5 6 0 0
BITMAP
009300
005000
899800
C6C500
F4F320
D9D900
ENDCHAR
STARTCHAR ucircumflex
ENCODING 251
SWIDTH 505 0
DWIDTH 4 0
BBX 5 6 0 0
BITMAP
01B100
042200
899800
C6C500
F4F320
D9D900
ENDCHAR
STARTCHAR udieresis
ENCODING 252
SWIDTH 505 0
DWIDTH 4 0
BBX 5 6 0 0
BITMAP
0A5500
000000
899800
C6C500
F4F320
D9D900
ENDCHAR
STARTCHAR yacute
ENCODING 253
SWIDTH 505 0
DWIDTH 4 0
BBX 5 8 0 -2
BITMAP
009300
005000
899800
C6C500
F4F310
DCF600
4AB000
6C4000
ENDCHAR
STARTCHAR thorn
ENCODING 254
SWIDTH 473 0
DWIDTH 4 0
BBX 5 8 -1 -2
BITMAP
02D000
05C000
08CC50
0C6980
0F2C50
3F9900
6B0000
860000
ENDCHAR
STARTCHAR ydieresis
ENCODING 255
SWIDTH 505 0
DWIDTH 4 0
BBX 5 8 0 -2
BITMAP
0A6400
000000
899800
C6C500
F4F310
DCF600
4AB000
6C4000
ENDCHAR
STARTCHAR Amacron
ENCODING 256
SWIDTH 668 0
DWIDTH 5 0
BBX 7 8 0 -1
BITMAP
00039920
0004C600
0055E400
59C6F100
8865C000
0D189000
4B0C6000
39000000
ENDCHAR
STARTCHAR amacron
ENCODING 257
SWIDTH 526 0
DWIDTH 4 0
BBX 6 6 -1 0
BITMAP
005980
000000
03CAB0
0C5980
1F2D52
0DABA1
ENDCHAR
STARTCHAR Abreve
ENCODING 258
SWIDTH 668 0
DWIDTH 5 0
BBX 7 9 0 -1
BITMAP
00023130
00018710
0004C600
0055E400
59C6F100
8865C000
0D189000
4B0C6000
39000000
ENDCHAR
STARTCHAR abreve
ENCODING 259
SWIDTH 526 0
DWIDTH 4 0
BBX 6 6 -1 0
BITMAP
00A0A0
004730
03CAB0
0C5980
1F2D52
0DABA1
ENDCHAR
STARTCHAR Aogonek
ENCODING 260
SWIDTH 668 0
DWIDTH 5 0
BBX 6 8 0 -2
BITMAP
0004C6
0055E4
59C6F1
8865C0
0D1890
3C0C60
3A0800
000820
ENDCHAR
STARTCHAR aogonek
ENCODING 261
SWIDTH 526 0
DWIDTH 4 0
BBX 6 6 -1 -2
BITMAP
03CAB0
0C5980
1F2D52
0DABB2
000720
000650
ENDCHAR
STARTCHAR Cacute
ENCODING 262
SWIDTH 497 0
DWIDTH 4 0
BBX 5 8 0 0
BITMAP
000B10
001300
06A820
3E1620
9B0000
C80000
C80200
6EA500
ENDCHAR
STARTCHAR cacute
ENCODING 263
SWIDTH 384 0
DWIDTH 3 0
BBX 5 6 -1 0
BITMAP
000830
000600
03B900
0C5200
1F2110
0CB600
ENDCHAR
STARTCHAR Ccircumflex
ENCODING 264
SWIDTH 497 0
DWIDTH 4 0
BBX 5 8 0 0
BITMAP
004900
013300
06A820
3E1620
9B0000
C80000
C80200
6EA500
ENDCHAR
STARTCHAR ccircumflex
ENCODING 265
SWIDTH 384 0
DWIDTH 3 0
BBX 5 6 -1 0
BITMAP
002B00
005310
03B900
0C5200
1F2110
0CB600
ENDCHAR
STARTCHAR Cdotaccent
ENCODING 266
SWIDTH 497 0
DWIDTH 4 0
BBX 5 8 0 0
BITMAP
000E10
000200
06A820
3E1620
9B0000
C80000
C80200
6EA500
ENDCHAR
STARTCHAR cdotaccent
ENCODING 267
SWIDTH 384 0
DWIDTH 3 0
BBX 5 6 -1 0
BITMAP
002C00
000200
03B900
0C5200
1F2110
0CB600
ENDCHAR
STARTCHAR Ccaron
ENCODING 268
SWIDTH 497 0
DWIDTH 4 0
BBX 5 8 0 0
BITMAP
006730
002200
06A820
3E1620
9B0000
C80000
C80200
6EA500
ENDCHAR
STARTCHAR ccaron
ENCODING 269
SWIDTH 384 0
DWIDTH 3 0
BBX 5 6 -1 0
BITMAP
004750
000500
03B900
0C5200
1F2110
0CB600
ENDCHAR
STARTCHAR Dcaron
ENCODING 270
SWIDTH 663 0
DWIDTH 5 0
BBX 6 8 0 0
BITMAP
005730
002200
288860
B5D0E1
77A0F2
0B63E0
0E3890
2FAC10
ENDCHAR
STARTCHAR dcaron
ENCODING 271
SWIDTH 525 0
DWIDTH 4 0
BBX 7 6 -1 0
BITMAP
00006750
0003E310
03CAB000
0C598000
1F2D5200
0DABA100
ENDCHAR
STARTCHAR Dcroat
ENCODING 272
SWIDTH 663 0
DWIDTH 5 0
BBX 6 6 0 0
BITMAP
28A870
B5C0F1
3BC2F2
0C53E0
0E38A0
2FAC10
ENDCHAR
STARTCHAR dcroat
ENCODING 273
SWIDTH 525 0
DWIDTH 4 0
BBX 6 6 -1 0
BITMAP
000051
0007F4
03CAB0
0C5980
1F2D52
0DABA1
ENDCHAR
STARTCHAR Emacron
ENCODING 274
SWIDTH 459 0
DWIDTH 4 0
BBX 5 8 0 0
BITMAP
019940
000000
059900
0D2700
0B7000
8C0000
D80300
8E9200
ENDCHAR
STARTCHAR emacron
ENCODING 275
SWIDTH 384 0
DWIDTH 3 0
BBX 5 6 -1 0
BITMAP
039920
000000
03B900
0C6900
1F6110
0CB600
ENDCHAR
STARTCHAR Ebreve
ENCODING 276
SWIDTH 459 0
DWIDTH 4 0
BBX 5 8 0 0
BITMAP
013130
008720
059900
0D2700
0B7000
8C0000
D80300
8E9200
ENDCHAR
STARTCHAR ebreve
ENCODING 277
SWIDTH 384 0
DWIDTH 3 0
BBX 5 6 -1 0
BITMAP
055550
018600
03B900
0C6900
1F6110
0CB600
ENDCHAR
STARTCHAR Edotaccent
ENCODING 278
SWIDTH 459 0
DWIDTH 4 0
BBX 4 8 0 0
BITMAP
004B
0001
0599
0D27
0B70
8C00
D803
8E92
ENDCHAR
STARTCHAR edotaccent
ENCODING 279
SWIDTH 384 0
DWIDTH 3 0
BBX 5 6 -1 0
BITMAP
003C00
000200
03B900
0C6900
1F6110
0CB600
ENDCHAR
STARTCHAR Eogonek
ENCODING 280
SWIDTH 459 0
DWIDTH 4 0
BBX 4 8 0 -2
BITMAP
0A68
3E08
0C70
9C00
D902
6EB4
0170
0181
ENDCHAR
STARTCHAR eogonek
ENCODING 281
SWIDTH 384 0
DWIDTH 3 0
BBX 5 6 -1 -2
BITMAP
03B900
0C6900
1F6110
0CA800
009000
008200
ENDCHAR
STARTCHAR Ecaron
ENCODING 282
SWIDTH 459 0
DWIDTH 4 0
BBX 5 8 0 0
BITMAP
005730
002200
059900
0D2700
0B7000
8C0000
D80300
8E9200
ENDCHAR
STARTCHAR ecaron
ENCODING 283
SWIDTH 384 0
DWIDTH 3 0
BBX 5 6 -1 0
BITMAP
004740
001400
03B900
0C6900
1F6110
0CB600
ENDCHAR
STARTCHAR Gcircumflex
ENCODING 284
SWIDTH 578 0
DWIDTH 5 0
BBX 5 10 0 -2
BITMAP
001B10
004220
089840
7C0450
C70520
B71E20
3B9E00
187B00
659600
177000
ENDCHAR
STARTCHAR gcircumflex
ENCODING 285
SWIDTH 507 0
DWIDTH 4 0
BBX 6 8 -1 -2
BITMAP
000940
003230
03BAB0
0C5980
1F2D52
0DBF71
039D00
05C600
ENDCHAR
STARTCHAR Gbreve
ENCODING 286
SWIDTH 578 0
DWIDTH 5 0
BBX 5 10 0 -2
BITMAP
004040
005860
089840
7C0440
C70520
B71E20
3B9E00
187B00
659600
177000
ENDCHAR
STARTCHAR gbreve
ENCODING 287
SWIDTH 507 0
DWIDTH 4 0
BBX 6 8 -1 -2
BITMAP
00A0A0
004730
03BAB0
0C5980
1F2D52
0DBF71
039D00
05C600
ENDCHAR
STARTCHAR Gdotaccent
ENCODING 288
SWIDTH 578 0
DWIDTH 5 0
BBX 5 10 0 -2
BITMAP
003C00
000200
089840
7C0440
C70520
B71E20
3B9E00
187B00
659600
177000
ENDCHAR
STARTCHAR gdotaccent
ENCODING 289
SWIDTH 507 0
DWIDTH 4 0
BBX 6 8 -1 -2
BITMAP
000B30
000200
03BAB0
0C5980
1F2D52
0DBF71
039D00
05C600
ENDCHAR
STARTCHAR Gcommaaccent
ENCODING 290
SWIDTH 578 0
DWIDTH 5 0
BBX 5 8 0 -2
BITMAP
069910
4E1810
B90000
E70B20
D72E00
6DAB00
023000
033000
ENDCHAR
STARTCHAR gcommaaccent
ENCODING 291
SWIDTH 507 0
DWIDTH 4 0
BBX 6 8 -1 -2
BITMAP
000600
000500
03BAB0
0C5980
1F2D52
0DBF71
039D00
05C600
ENDCHAR
STARTCHAR Hcircumflex
ENCODING 292
SWIDTH 665 0
DWIDTH 5 0
BBX 6 8 0 0
BITMAP
000490
001430
17E2B7
A5D0E3
67DAF1
0A76C0
0D4990
2F1C60
ENDCHAR
STARTCHAR hcircumflex
ENCODING 293
SWIDTH 505 0
DWIDTH 4 0
BBX 6 7 -1 0
BITMAP
016600
029000
05C000
09DD40
0C6C50
0F3E22
3E0CA1
ENDCHAR
STARTCHAR Hbar
ENCODING 294
SWIDTH 665 0
DWIDTH 5 0
BBX 6 6 0 0
BITMAP
17E1B6
B7E6E7
67DAF0
0A76C0
0D4990
1F1C60
ENDCHAR
STARTCHAR hbar
ENCODING 295
SWIDTH 505 0
DWIDTH 4 0
BBX 6 6 -1 0
BITMAP
015000
08E400
08DD40
0B6C50
0E3E22
3E0CA0
ENDCHAR
STARTCHAR Itilde
ENCODING 296
SWIDTH 375 0
DWIDTH 3 0
BBX 4 8 0 0
BITMAP
0362
0155
18E1
A5D0
88A0
0B70
0E30
2F00
ENDCHAR
STARTCHAR itilde
ENCODING 297
SWIDTH 267 0
DWIDTH 2 0
BBX 3 6 0 0
BITMAP
8C20
0200
8900
C600
F320
DA10
ENDCHAR
STARTCHAR Imacron
ENCODING 298
SWIDTH 375 0
DWIDTH 3 0
BBX 4 7 0 0
BITMAP
0697
18E1
A5D0
88A0
0B70
0E30
2F00
ENDCHAR
STARTCHAR imacron
ENCODING 299
SWIDTH 267 0
DWIDTH 2 0
BBX 3 6 0 0
BITMAP
7930
0000
8900
C600
F320
DA10
ENDCHAR
STARTCHAR Ibreve
ENCODING 300
SWIDTH 375 0
DWIDTH 3 0
BBX 5 8 0 0
BITMAP
031310
038700
18E100
A5D000
88A000
0B7000
0E3000
2F0000
ENDCHAR
STARTCHAR ibreve
ENCODING 301
SWIDTH 267 0
DWIDTH 2 0
BBX 3 6 0 0
BITMAP
9170
4710
8900
C600
F320
DA10
ENDCHAR
STARTCHAR Iogonek
ENCODING 302
SWIDTH 375 0
DWIDTH 3 0
BBX 4 10 0 -2
BITMAP
0740
0230
18E1
A5D0
88A0
0B70
0E30
2F00
5300
4810
ENDCHAR
STARTCHAR iogonek
ENCODING 303
SWIDTH 267 0
DWIDTH 2 0
BBX 4 8 -1 -2
BITMAP
03C0
0020
0890
0C60
0F32
0EA1
2600
2920
ENDCHAR
STARTCHAR Idotaccent
ENCODING 304
SWIDTH 375 0
DWIDTH 3 0
BBX 4 8 0 0
BITMAP
00A5
0010
18E1
A5D0
88A0
0B70
0E30
2F00
ENDCHAR
STARTCHAR dotlessi
ENCODING 305
SWIDTH 267 0
DWIDTH 2 0
BBX 3 4 0 0
BITMAP
8900
C600
F320
DA10
ENDCHAR
STARTCHAR IJ
ENCODING 306
SWIDTH 663 0
DWIDTH 5 0
BBX 6 8 0 -2
BITMAP
18E1B4
A5D1F1
88A4D0
0B68A0
0E3B70
2F3E30
1A4D00
078300
ENDCHAR
STARTCHAR ij
ENCODING 307
SWIDTH 507 0
DWIDTH 4 0
BBX 5 8 0 -2
BITMAP
3C2D00
020200
896B00
C6A800
F3D520
D6F710
29D000
5C6000
ENDCHAR
STARTCHAR Jcircumflex
ENCODING 308
SWIDTH 536 0
DWIDTH 4 0
BBX 5 10 0 -2
BITMAP
0003A0
000420
005C80
057C50
044F10
004D00
007A00
57B700
B2E200
575000
ENDCHAR
STARTCHAR jcircumflex
ENCODING 309
SWIDTH 240 0
DWIDTH 2 0
BBX 5 8 -2 -2
BITMAP
002B00
004210
008900
00C600
00E410
03F600
3AB000
6C5000
ENDCHAR
STARTCHAR Kcommaaccent
ENCODING 310
SWIDTH 601 0
DWIDTH 5 0
BBX 6 8 0 -2
BITMAP
18E2A1
B5D810
58DA10
0B6C50
0E3E20
2F2E10
005000
006000
ENDCHAR
STARTCHAR kcommaaccent
ENCODING 311
SWIDTH 518 0
DWIDTH 4 0
BBX 6 8 -1 -2
BITMAP
017000
05C000
089730
0BDD20
0E3E42
3E0CB1
005000
006000
ENDCHAR
STARTCHAR kgreenlandic
ENCODING 312
SWIDTH 518 0
DWIDTH 4 0
BBX 6 4 -1 0
BITMAP
089730
0CDD20
0E3E42
3E0CB1
ENDCHAR
STARTCHAR Lacute
ENCODING 313
SWIDTH 379 0
DWIDTH 3 0
BBX 6 10 0 -2
BITMAP
002A00
003200
18E100
B5D000
789000
0B6000
0E3000
3F2000
03B721
0008E1
ENDCHAR
STARTCHAR lacute
ENCODING 314
SWIDTH 267 0
DWIDTH 2 0
BBX 3 8 0 0
BITMAP
0150
0730
1800
5C00
8900
C500
F320
DB10
ENDCHAR
STARTCHAR Lcommaaccent
ENCODING 315
SWIDTH 379 0
DWIDTH 3 0
BBX 6 8 0 -2
BITMAP
18E100
B5D000
789000
0B6000
0E3000
3F2000
26B721
3408E1
ENDCHAR
STARTCHAR lcommaaccent
ENCODING 316
SWIDTH 267 0
DWIDTH 2 0
BBX 3 8 0 -2
BITMAP
1800
5C00
8900
C500
F320
DB10
5000
6000
ENDCHAR
STARTCHAR Lcaron
ENCODING 317
SWIDTH 379 0
DWIDTH 3 0
BBX 6 10 0 -2
BITMAP
006720
002200
18E100
B5D000
789000
0B6000
0E3000
3F2000
03B721
0008E1
ENDCHAR
STARTCHAR lcaron
ENCODING 318
SWIDTH 267 0
DWIDTH 2 0
BBX 4 6 0 0
BITMAP
1692
5C40
8900
C600
F320
DA10
ENDCHAR
STARTCHAR Ldot
ENCODING 319
SWIDTH 605 0
DWIDTH 5 0
BBX 6 8 0 -2
BITMAP
18E100
B5D000
589000
0B6A50
0E3100
3F2000
03B721
0008E1
ENDCHAR
STARTCHAR ldot
ENCODING 320
SWIDTH 353 0
DWIDTH 3 0
BBX 3 6 0 0
BITMAP
0300
4D00
8900
B890
E300
D600
ENDCHAR
STARTCHAR Lslash
ENCODING 321
SWIDTH 392 0
DWIDTH 3 0
BBX 6 8 0 -2
BITMAP
18E100
B5D200
78C200
1D6000
0E3000
3F2000
03B721
0008E1
ENDCHAR
STARTCHAR lslash
ENCODING 322
SWIDTH 286 0
DWIDTH 2 0
BBX 4 6 -1 0
BITMAP
0180
05C1
08B3
2D50
0F32
0DB1
ENDCHAR
STARTCHAR Nacute
ENCODING 323
SWIDTH 702 0
DWIDTH 6 0
BBX 6 8 0 0
BITMAP
000083
000050
2AF32A
B5F656
98CA83
0B5DB0
0C1FB0
290C80
ENDCHAR
STARTCHAR nacute
ENCODING 324
SWIDTH 505 0
DWIDTH 4 0
BBX 6 6 -1 0
BITMAP
000660
000500
08DD40
0C6C50
0E3E22
3E0CA1
ENDCHAR
STARTCHAR Ncommaaccent
ENCODING 325
SWIDTH 668 0
DWIDTH 5 0
BBX 6 8 0 -2
BITMAP
2AF32A
B5F656
98CA83
0B5DB0
0C1FB0
290C80
005000
006000
ENDCHAR
STARTCHAR ncommaaccent
ENCODING 326
SWIDTH 505 0
DWIDTH 4 0
BBX 6 6 -1 -2
BITMAP
08DD40
0C6C50
0E3E22
3E0CA1
015000
006000
ENDCHAR
STARTCHAR Ncaron
ENCODING 327
SWIDTH 668 0
DWIDTH 5 0
BBX 6 8 0 0
BITMAP
000484
000030
2AF32A
B5F656
98CA83
0B5DB0
0C1FB0
290C80
ENDCHAR
STARTCHAR ncaron
ENCODING 328
SWIDTH 505 0
DWIDTH 4 0
BBX 6 6 -1 0
BITMAP
005730
001300
08DD40
0C6C50
0E3E22
3E0CA1
ENDCHAR
STARTCHAR napostrophe
ENCODING 329
SWIDTH 505 0
DWIDTH 4 0
BBX 6 6 -1 0
BITMAP
082000
030000
08DD40
0C6C50
0E3E22
3E0CA1
ENDCHAR
STARTCHAR Eng
ENCODING 330
SWIDTH 723 0
DWIDTH 6 0
BBX 7 8 0 -2
BITMAP
08D80B10
75DC0C00
65CF3900
056D9600
0839F200
0B05E000
01858000
00671000
ENDCHAR
STARTCHAR eng
ENCODING 331
SWIDTH 505 0
DWIDTH 4 0
BBX 5 6 -1 -2
BITMAP
09CD40
0C6C50
0F3E20
3E3E00
039B00
04C400
ENDCHAR
STARTCHAR Omacron
ENCODING 332
SWIDTH 665 0
DWIDTH 5 0
BBX 6 8 0 0
BITMAP
007970
000000
078890
96C0D3
8B70E3
0F32E0
2F1890
0BB900
ENDCHAR
STARTCHAR omacron
ENCODING 333
SWIDTH 433 0
DWIDTH 3 0
BBX 6 6 -1 0
BITMAP
019930
000000
04BA00
0D5B61
1F1A00
0CB300
ENDCHAR
STARTCHAR Obreve
ENCODING 334
SWIDTH 665 0
DWIDTH 5 0
BBX 6 8 0 0
BITMAP
003131
003870
078890
96C0D3
8B70E3
0F32E0
2F1890
0BB900
ENDCHAR
STARTCHAR obreve
ENCODING 335
SWIDTH 433 0
DWIDTH 3 0
BBX 6 6 -1 0
BITMAP
019290
007710
04BA00
0D5B61
1F1A00
0CB300
ENDCHAR
STARTCHAR Ohungarumlaut
ENCODING 336
SWIDTH 665 0
DWIDTH 5 0
BBX 6 9 0 0
BITMAP
000112
000875
000220
078890
96C0D3
8B70E3
0F32E0
2F1890
0BB900
ENDCHAR
STARTCHAR ohungarumlaut
ENCODING 337
SWIDTH 433 0
DWIDTH 3 0
BBX 6 6 -1 0
BITMAP
006790
004310
04BA00
0D5B61
1F1A00
0CB300
ENDCHAR
STARTCHAR OE
ENCODING 338
SWIDTH 846 0
DWIDTH 7 0
BBX 8 6 0 0
BITMAP
1799EBC2
A5C0D300
3C60EA20
0F32D000
2F188000
0BBFDD10
ENDCHAR
STARTCHAR oe
ENCODING 339
SWIDTH 663 0
DWIDTH 5 0
BBX 7 4 -1 0
BITMAP
04A9B920
0D4CB710
1F1C9130
0CB9C710
ENDCHAR
STARTCHAR Racute
ENCODING 340
SWIDTH 601 0
DWIDTH 5 0
BBX 5 8 0 0
BITMAP
000830
000500
179850
B5D580
58BD20
0B6C50
0E3E20
2F2E10
ENDCHAR
STARTCHAR racute
ENCODING 341
SWIDTH 376 0
DWIDTH 3 0
BBX 4 6 -1 0
BITMAP
000B
0023
08CD
0C61
0E20
3E00
ENDCHAR
STARTCHAR Rcommaaccent
ENCODING 342
SWIDTH 601 0
DWIDTH 5 0
BBX 5 8 0 -2
BITMAP
179850
B5D580
58BD20
0B6C50
0E3E20
2F2E10
014000
006000
ENDCHAR
STARTCHAR rcommaaccent
ENCODING 343
SWIDTH 376 0
DWIDTH 3 0
BBX 4 6 -1 -2
BITMAP
08CD
0C61
0E20
3E00
0410
0510
ENDCHAR
STARTCHAR Rcaron
ENCODING 344
SWIDTH 601 0
DWIDTH 5 0
BBX 5 8 0 0
BITMAP
001960
000400
179850
B5D580
58BD20
0B6C50
0E3E20
2F2E10
ENDCHAR
STARTCHAR rcaron
ENCODING 345
SWIDTH 376 0
DWIDTH 3 0
BBX 5 6 -1 0
BITMAP
008710
004000
08CD00
0C6100
0E2000
3E0000
ENDCHAR
STARTCHAR Sacute
ENCODING 346
SWIDTH 570 0
DWIDTH 5 0
BBX 5 8 0 0
BITMAP
000920
000500
05A930
0B7630
05E300
278D00
A52F10
5AA600
ENDCHAR
STARTCHAR sacute
ENCODING 347
SWIDTH 382 0
DWIDTH 3 0
BBX 5 6 -1 0
BITMAP
000A10
003500
01F600
05B700
18A910
1AC400
ENDCHAR
STARTCHAR Scircumflex
ENCODING 348
SWIDTH 570 0
DWIDTH 5 0
BBX 5 8 0 0
BITMAP
001B10
004120
05A930
0B7630
05E300
278D00
A52F10
5AA600
ENDCHAR
STARTCHAR scircumflex
ENCODING 349
SWIDTH 382 0
DWIDTH 3 0
BBX 5 6 -1 0
BITMAP
005800
015400
01F600
05B700
18A910
1AC400
ENDCHAR
STARTCHAR Scedilla
ENCODING 350
SWIDTH 570 0
DWIDTH 5 0
BBX 5 8 0 -2
BITMAP
05A930
0B7630
05E300
278D00
A52F10
5AA600
048000
049000
ENDCHAR
STARTCHAR scedilla
ENCODING 351
SWIDTH 382 0
DWIDTH 3 0
BBX 5 6 -1 -2
BITMAP
00A400
05D600
18B700
24B710
063000
088000
ENDCHAR
STARTCHAR Scaron
ENCODING 352
SWIDTH 570 0
DWIDTH 5 0
BBX 5 8 0 0
BITMAP
001960
000400
05A930
0B7630
05E300
278D00
A52F10
5AA600
ENDCHAR
STARTCHAR scaron
ENCODING 353
SWIDTH 369 0
DWIDTH 3 0
BBX 5 6 -1 0
BITMAP
007710
005200
01F600
05B700
18A910
1AC400
ENDCHAR
STARTCHAR uni0162
ENCODING 354
SWIDTH 481 0
DWIDTH 4 0
BBX 6 8 0 -2
BITMAP
3ADDC6
C1C500
70F200
03E000
06B000
0A8000
065000
059000
ENDCHAR
STARTCHAR uni0163
ENCODING 355
SWIDTH 267 0
DWIDTH 2 0
BBX 4 8 -1 -2
BITMAP
0020
05C0
0AA1
0C60
0F32
0DA1
0930
1850
ENDCHAR
STARTCHAR Tcaron
ENCODING 356
SWIDTH 481 0
DWIDTH 4 0
BBX 6 8 0 0
BITMAP
004840
000400
3ADDC6
C1C500
70F200
03E000
06B000
0A8000
ENDCHAR
STARTCHAR tcaron
ENCODING 357
SWIDTH 267 0
DWIDTH 2 0
BBX 4 6 0 0
BITMAP
0283
5C30
AA10
C600
F320
DA10
ENDCHAR
STARTCHAR Tbar
ENCODING 358
SWIDTH 481 0
DWIDTH 4 0
BBX 6 6 0 0
BITMAP
3ADDC6
C0C500
60F200
28E610
07B000
0A8000
ENDCHAR
STARTCHAR tbar
ENCODING 359
SWIDTH 267 0
DWIDTH 2 0
BBX 3 6 0 0
BITMAP
0200
5C00
9B10
CA00
E310
D810
ENDCHAR
STARTCHAR Utilde
ENCODING 360
SWIDTH 716 0
DWIDTH 6 0
BBX 6 8 0 0
BITMAP
000551
000173
27E43E
B2E06B
76B098
0970D4
0B53E0
07DC40
ENDCHAR
STARTCHAR utilde
ENCODING 361
SWIDTH 505 0
DWIDTH 4 0
BBX 5 6 0 0
BITMAP
1BB200
003000
899800
C6C500
F4F320
D9D900
ENDCHAR
STARTCHAR Umacron
ENCODING 362
SWIDTH 716 0
DWIDTH 6 0
BBX 6 8 0 0
BITMAP
000895
000000
27E43E
B2E06B
76B098
0970D4
0B53E0
07DC40
ENDCHAR
STARTCHAR umacron
ENCODING 363
SWIDTH 505 0
DWIDTH 4 0
BBX 5 6 0 0
BITMAP
099500
000000
899800
C6C500
F4F320
D9D900
ENDCHAR
STARTCHAR Ubreve
ENCODING 364
SWIDTH 716 0
DWIDTH 6 0
BBX 6 8 0 0
BITMAP
000404
000774
27E43E
B2E06B
76B098
0970D4
0B53E0
07DC40
ENDCHAR
STARTCHAR ubreve
ENCODING 365
SWIDTH 505 0
DWIDTH 4 0
BBX 5 6 0 0
BITMAP
0A1900
067100
899800
C6C500
F4F320
D9D900
ENDCHAR
STARTCHAR Uring
ENCODING 366
SWIDTH 716 0
DWIDTH 6 0
BBX 6 8 0 0
BITMAP
000240
000240
27E43E
B2E06B
76B098
0970D4
0B53E0
07DC40
ENDCHAR
STARTCHAR uring
ENCODING 367
SWIDTH 505 0
DWIDTH 4 0
BBX 5 6 0 0
BITMAP
046000
024000
899800
C6C500
F4F320
D9D900
ENDCHAR
STARTCHAR Uhungarumlaut
ENCODING 368
SWIDTH 716 0
DWIDTH 6 0
BBX 6 9 0 0
BITMAP
000021
000379
000211
27E43E
B2E06B
76B098
0970D4
0B53E0
07DC40
ENDCHAR
STARTCHAR uhungarumlaut
ENCODING 369
SWIDTH 505 0
DWIDTH 4 0
BBX 5 6 0 0
BITMAP
057900
043100
899800
C6C500
F4F320
D9D900
ENDCHAR
STARTCHAR Uogonek
ENCODING 370
SWIDTH 716 0
DWIDTH 6 0
BBX 6 10 0 -2
BITMAP
000920
000320
27E43E
B2E06B
76B098
0970D4
0B53E0
08DD50
008000
009400
ENDCHAR
STARTCHAR uogonek
ENCODING 371
SWIDTH 505 0
DWIDTH 4 0
BBX 5 6 0 -2
BITMAP
899800
C6C500
F4F320
D9DA00
009000
009400
ENDCHAR
STARTCHAR Wcircumflex
ENCODING 372
SWIDTH 962 0
DWIDTH 8 0
BBX 9 8 0 0
BITMAP
0000084000
0000313000
17E34E0710
A1F39E0800
80F3AF2500
00E76F6000
00EA2F6000
00E72F3000
ENDCHAR
STARTCHAR wcircumflex
ENCODING 373
SWIDTH 661 0
DWIDTH 5 0
BBX 6 6 0 0
BITMAP
003A00
015400
899891
C6C561
F4F290
D9DB20
ENDCHAR
STARTCHAR Ycircumflex
ENCODING 374
SWIDTH 620 0
DWIDTH 5 0
BBX 6 8 0 0
BITMAP
0003A0
000430
17E425
A1C870
808C60
005F10
007C00
00A900
ENDCHAR
STARTCHAR ycircumflex
ENCODING 375
SWIDTH 505 0
DWIDTH 4 0
BBX 5 8 0 -2
BITMAP
01B000
042200
899800
C6C500
F4F310
DCF600
4AB000
6C4000
ENDCHAR
STARTCHAR Ydieresis
ENCODING 376
SWIDTH 620 0
DWIDTH 5 0
BBX 6 7 0 0
BITMAP
000A64
17E425
A1C870
808C60
005F10
007C00
00A900
ENDCHAR
STARTCHAR Zacute
ENCODING 377
SWIDTH 542 0
DWIDTH 4 0
BBX 5 8 0 0
BITMAP
000930
000500
3A9F30
12AA00
02F300
0AA000
2F2300
AD8A00
ENDCHAR
STARTCHAR zacute
ENCODING 378
SWIDTH 428 0
DWIDTH 3 0
BBX 4 6 0 0
BITMAP
0092
0050
69F2
1980
2E20
BCB0
ENDCHAR
STARTCHAR Zdotaccent
ENCODING 379
SWIDTH 530 0
DWIDTH 4 0
BBX 5 7 0 0
BITMAP
007300
3A9F30
12AA00
02F300
0AA000
2F2300
AD8A00
ENDCHAR
STARTCHAR zdotaccent
ENCODING 380
SWIDTH 428 0
DWIDTH 3 0
BBX 4 6 0 0
BITMAP
0280
0000
69F2
1980
2E20
BCB0
ENDCHAR
STARTCHAR Zcaron
ENCODING 381
SWIDTH 542 0
DWIDTH 4 0
BBX 5 8 0 0
BITMAP
005730
001300
3A9F30
12AA00
02F300
0AA000
2F2300
AD8A00
ENDCHAR
STARTCHAR zcaron
ENCODING 382
SWIDTH 428 0
DWIDTH 3 0
BBX 4 6 0 0
BITMAP
0584
0130
69F2
1980
2E20
BCB0
ENDCHAR
STARTCHAR longs
ENCODING 383
SWIDTH 267 0
DWIDTH 2 0
BBX 5 8 -2 -2
BITMAP
001CA0
005C10
00A900
00C600
00E300
03E000
49B000
6D5000
ENDCHAR
STARTCHAR uni018F
ENCODING 399
SWIDTH 544 0
DWIDTH 4 0
BBX 5 6 0 0
BITMAP
1CEA00
122F30
037F40
5A5F10
C4A900
8B9000
ENDCHAR
STARTCHAR florin
ENCODING 402
SWIDTH 267 0
DWIDTH 2 0
BBX 6 8 -2 -2
BITMAP
0006B5
001E32
009C30
00A700
00E300
04D000
388000
AA1000
ENDCHAR
STARTCHAR Ohorn
ENCODING 416
SWIDTH 665 0
DWIDTH 5 0
BBX 6 7 0 0
BITMAP
00000A
0788C4
96C0D3
8B70E3
0F32F1
2F1890
0BB910
ENDCHAR
STARTCHAR ohorn
ENCODING 417
SWIDTH 439 0
DWIDTH 4 0
BBX 5 5 -1 0
BITMAP
000090
03BA40
0D5910
1F2B00
0CC300
ENDCHAR
STARTCHAR Uhorn
ENCODING 431
SWIDTH 716 0
DWIDTH 6 0
BBX 7 8 0 0
BITMAP
00000050
000000A0
27E43E10
B2E06B00
76B09800
0970D400
0B53E000
07DC4000
ENDCHAR
STARTCHAR uhorn
ENCODING 432
SWIDTH 505 0
DWIDTH 4 0
BBX 5 6 0 0
BITMAP
000220
000620
899800
C6C500
F4F320
D9D900
ENDCHAR
STARTCHAR uni01B7
ENCODING 439
SWIDTH 555 0
DWIDTH 4 0
BBX 5 6 0 0
BITMAP
1A7F30
02B700
04E400
006E00
716E00
98B400
ENDCHAR
STARTCHAR uni01CD
ENCODING 461
SWIDTH 668 0
DWIDTH 5 0
BBX 7 9 0 -1
BITMAP
00005840
00001300
0004C600
0055E400
59C6F100
8865C000
0D189000
4B0C6000
39000000
ENDCHAR
STARTCHAR uni01CE
ENCODING 462
SWIDTH 526 0
DWIDTH 4 0
BBX 6 6 -1 0
BITMAP
000870
000500
03CAB0
0C5980
1F2D52
0DABA1
ENDCHAR
STARTCHAR uni01CF
ENCODING 463
SWIDTH 375 0
DWIDTH 3 0
BBX 5 8 0 0
BITMAP
007710
003100
18E100
A5D000
88A000
0B7000
0E3000
2F0000
ENDCHAR
STARTCHAR uni01D0
ENCODING 464
SWIDTH 267 0
DWIDTH 2 0
BBX 3 6 0 0
BITMAP
3850
0400
8900
C600
F320
DA10
ENDCHAR
STARTCHAR uni01D1
ENCODING 465
SWIDTH 665 0
DWIDTH 5 0
BBX 6 8 0 0
BITMAP
000672
000310
078890
96C0D3
8B70E3
0F32E0
2F1890
0BB900
ENDCHAR
STARTCHAR uni01D2
ENCODING 466
SWIDTH 433 0
DWIDTH 3 0
BBX 6 6 -1 0
BITMAP
005740
002300
04BA00
0D5B61
1F1A00
0CB300
ENDCHAR
STARTCHAR uni01D3
ENCODING 467
SWIDTH 716 0
DWIDTH 6 0
BBX 6 8 0 0
BITMAP
000285
000040
27E43E
B2E06B
76B098
0970D4
0B53E0
07DC40
ENDCHAR
STARTCHAR uni01D4
ENCODING 468
SWIDTH 505 0
DWIDTH 4 0
BBX 5 6 0 0
BITMAP
048400
004000
899800
C6C500
F4F320
D9D900
ENDCHAR
STARTCHAR uni01D5
ENCODING 469
SWIDTH 716 0
DWIDTH 6 0
BBX 6 8 0 0
BITMAP
000575
000A38
27E43E
B2E06B
76B098
0970D4
0B53E0
07DC40
ENDCHAR
STARTCHAR uni01D6
ENCODING 470
SWIDTH 505 0
DWIDTH 4 0
BBX 5 7 0 0
BITMAP
079700
0A5500
000000
899800
C6C500
F4F320
D9D900
ENDCHAR
STARTCHAR uni01D7
ENCODING 471
SWIDTH 716 0
DWIDTH 6 0
BBX 6 8 0 0
BITMAP
0037AA
000110
27E43E
B2E06B
76B098
0970D4
0B53E0
07DC40
ENDCHAR
STARTCHAR uni01D8
ENCODING 472
SWIDTH 505 0
DWIDTH 4 0
BBX 5 8 0 0
BITMAP
002400
009100
0A5500
000000
899800
C6C500
F4F320
D9D900
ENDCHAR
STARTCHAR uni01D9
ENCODING 473
SWIDTH 716 0
DWIDTH 6 0
BBX 6 9 0 0
BITMAP
000212
003899
000000
27E43E
B2E06B
76B098
0970D4
0B53E0
07DC40
ENDCHAR
STARTCHAR uni01DA
ENCODING 474
SWIDTH 505 0
DWIDTH 4 0
BBX 5 8 0 0
BITMAP
012400
00B200
0A5500
000000
899800
C6C500
F4F320
D9D900
ENDCHAR
STARTCHAR uni01DB
ENCODING 475
SWIDTH 716 0
DWIDTH 6 0
BBX 6 8 0 0
BITMAP
0038AA
000050
27E43E
B2E06B
76B098
0970D4
0B53E0
07DC40
ENDCHAR
STARTCHAR uni01DC
ENCODING 476
SWIDTH 505 0
DWIDTH 4 0
BBX 5 8 0 0
BITMAP
011000
037000
0A5500
000000
899800
C6C500
F4F320
D9D900
ENDCHAR
STARTCHAR uni01E4
ENCODING 484
SWIDTH 601 0
DWIDTH 5 0
BBX 5 8 0 -2
BITMAP
089840
7C0560
C70110
B74D60
3B9F00
187B00
659600
177000
ENDCHAR
STARTCHAR uni01E5
ENCODING 485
SWIDTH 507 0
DWIDTH 4 0
BBX 6 6 -1 -2
BITMAP
03BAB0
0C5980
1F2D52
0DCF40
07CD20
04C500
ENDCHAR
STARTCHAR Gcaron
ENCODING 486
SWIDTH 578 0
DWIDTH 5 0
BBX 5 10 0 -2
BITMAP
001960
000400
089840
7C0440
C70520
B71E20
3B9E00
187B00
659600
177000
ENDCHAR
STARTCHAR gcaron
ENCODING 487
SWIDTH 507 0
DWIDTH 4 0
BBX 6 8 -1 -2
BITMAP
000870
000500
03BAB0
0C5980
1F2D52
0DBF71
039D00
05C600
ENDCHAR
STARTCHAR uni01E8
ENCODING 488
SWIDTH 601 0
DWIDTH 5 0
BBX 6 8 0 0
BITMAP
000313
000580
18E2A1
B5D810
58DA10
0B6C50
0E3E20
2F2E10
ENDCHAR
STARTCHAR uni01E9
ENCODING 489
SWIDTH 518 0
DWIDTH 4 0
BBX 6 7 -1 0
BITMAP
000331
017850
05C000
089730
0BDD20
0E3E42
3E0CB1
ENDCHAR
STARTCHAR uni01EA
ENCODING 490
SWIDTH 665 0
DWIDTH 5 0
BBX 6 10 0 -2
BITMAP
008400
002300
078890
96C0D3
8B70E3
0F32E0
2F1890
0BB900
062000
058100
ENDCHAR
STARTCHAR uni01EB
ENCODING 491
SWIDTH 433 0
DWIDTH 3 0
BBX 6 6 -1 -2
BITMAP
04BA00
0D5B61
1F1A00
0CB300
080000
085000
ENDCHAR
STARTCHAR uni01EE
ENCODING 494
SWIDTH 525 0
DWIDTH 4 0
BBX 5 8 0 0
BITMAP
003220
006700
1A7F30
02B700
04E400
006E00
716E00
98B400
ENDCHAR
STARTCHAR uni01EF
ENCODING 495
SWIDTH 600 0
DWIDTH 5 0
BBX 4 8 0 -2
BITMAP
0313
03A0
89D1
1C50
3E02
0C74
6E50
AC10
ENDCHAR
STARTCHAR uni01F4
ENCODING 500
SWIDTH 578 0
DWIDTH 5 0
BBX 5 10 0 -2
BITMAP
000840
000600
089840
7C0450
C70520
B71E20
3B9E00
187B00
659600
177000
ENDCHAR
STARTCHAR uni01F5
ENCODING 501
SWIDTH 507 0
DWIDTH 4 0
BBX 6 8 -1 -2
BITMAP
000830
000500
03BAB0
0C5980
1F2D52
0DBF71
039D00
05C600
ENDCHAR
STARTCHAR Aringacute
ENCODING 506
SWIDTH 668 0
DWIDTH 5 0
BBX 7 9 0 -1
BITMAP
00000910
00004700
0001A700
0034E400
59C6F100
8865D000
0D189000
4B0C6000
39000000
ENDCHAR
STARTCHAR aringacute
ENCODING 507
SWIDTH 526 0
DWIDTH 4 0
BBX 6 7 -1 0
BITMAP
000230
000810
000600
03CAB0
0C5980
1F2D52
0DABA1
ENDCHAR
STARTCHAR AEacute
ENCODING 508
SWIDTH 764 0
DWIDTH 6 0
BBX 8 9 0 -1
BITMAP
00000640
00000400
0003CBA1
0054E200
68C7E910
5866B000
0D198000
4B0CED20
39000000
ENDCHAR
STARTCHAR aeacute
ENCODING 509
SWIDTH 650 0
DWIDTH 5 0
BBX 6 6 0 0
BITMAP
000650
000500
17CCA0
58E890
F4F721
CAAB70
ENDCHAR
STARTCHAR Oslashacute
ENCODING 510
SWIDTH 658 0
DWIDTH 5 0
BBX 5 9 0 -1
BITMAP
0001A0
000320
075B70
94B7F0
9A76F0
0F56C0
2F6A50
0CC700
003000
ENDCHAR
STARTCHAR oslashacute
ENCODING 511
SWIDTH 428 0
DWIDTH 3 0
BBX 5 7 -1 -1
BITMAP
000930
000500
03BA50
0D6C10
1F8B00
0EC300
310000
ENDCHAR
STARTCHAR uni0200
ENCODING 512
SWIDTH 668 0
DWIDTH 5 0
BBX 6 9 0 -1
BITMAP
000A83
000223
0004C6
0055E4
59C6F1
8865C0
0D1890
4B0C60
390000
ENDCHAR
STARTCHAR uni0201
ENCODING 513
SWIDTH 526 0
DWIDTH 4 0
BBX 6 6 -1 0
BITMAP
029A10
003220
03CAB0
0C5980
1F2D52
0DABA1
ENDCHAR
STARTCHAR uni0202
ENCODING 514
SWIDTH 668 0
DWIDTH 5 0
BBX 7 9 0 -1
BITMAP
00017820
00022220
0004C600
0055E400
59C6F100
8865C000
0D189000
4B0C6000
39000000
ENDCHAR
STARTCHAR uni0203
ENCODING 515
SWIDTH 526 0
DWIDTH 4 0
BBX 6 6 -1 0
BITMAP
008790
001010
03CAB0
0C5980
1F2D52
0DABA1
ENDCHAR
STARTCHAR uni0204
ENCODING 516
SWIDTH 459 0
DWIDTH 4 0
BBX 4 8 0 0
BITMAP
0A83
0224
0599
0D27
0B70
8C00
D803
8E92
ENDCHAR
STARTCHAR uni0205
ENCODING 517
SWIDTH 384 0
DWIDTH 3 0
BBX 5 6 -1 0
BITMAP
086700
003400
03B900
0C6900
1F6110
0CB600
ENDCHAR
STARTCHAR uni0206
ENCODING 518
SWIDTH 459 0
DWIDTH 4 0
BBX 5 8 0 0
BITMAP
017830
022130
059900
0D2700
0B7000
8C0000
D80300
8E9200
ENDCHAR
STARTCHAR uni0207
ENCODING 519
SWIDTH 384 0
DWIDTH 3 0
BBX 5 6 -1 0
BITMAP
048A20
010100
03B900
0C6900
1F6110
0CB600
ENDCHAR
STARTCHAR uni0208
ENCODING 520
SWIDTH 375 0
DWIDTH 3 0
BBX 4 8 0 0
BITMAP
2780
0642
19E1
A6D0
97A0
0B70
0E30
2F00
ENDCHAR
STARTCHAR uni0209
ENCODING 521
SWIDTH 267 0
DWIDTH 2 0
BBX 4 6 -1 0
BITMAP
6780
0440
0890
0C60
0F32
0DA1
ENDCHAR
STARTCHAR uni020A
ENCODING 522
SWIDTH 375 0
DWIDTH 3 0
BBX 4 8 0 0
BITMAP
0477
0404
18E1
A5D0
88A0
0B70
0E30
2F00
ENDCHAR
STARTCHAR uni020B
ENCODING 523
SWIDTH 267 0
DWIDTH 2 0
BBX 3 6 0 0
BITMAP
8930
1010
8900
C600
F320
DA10
ENDCHAR
STARTCHAR uni020C
ENCODING 524
SWIDTH 665 0
DWIDTH 5 0
BBX 6 8 0 0
BITMAP
029A00
004220
078890
96C0D3
8B70E3
0F32E0
2F1890
0BB900
ENDCHAR
STARTCHAR uni020D
ENCODING 525
SWIDTH 433 0
DWIDTH 3 0
BBX 6 6 -1 0
BITMAP
096600
003400
04BA00
0D5B61
1F1A00
0CB300
ENDCHAR
STARTCHAR uni020E
ENCODING 526
SWIDTH 665 0
DWIDTH 5 0
BBX 6 8 0 0
BITMAP
002780
003131
078890
96C0D3
8B70E3
0F32E0
2F1890
0BB900
ENDCHAR
STARTCHAR uni020F
ENCODING 527
SWIDTH 433 0
DWIDTH 3 0
BBX 6 6 -1 0
BITMAP
029940
010010
04BA00
0D5B61
1F1A00
0CB300
ENDCHAR
STARTCHAR uni0210
ENCODING 528
SWIDTH 601 0
DWIDTH 5 0
BBX 5 8 0 0
BITMAP
0A7500
013400
179850
B5D580
58BD20
0B6C50
0E3E20
2F2E10
ENDCHAR
STARTCHAR uni0211
ENCODING 529
SWIDTH 376 0
DWIDTH 3 0
BBX 4 6 -1 0
BITMAP
1A92
0323
08CD
0C61
0E20
3E00
ENDCHAR
STARTCHAR uni0212
ENCODING 530
SWIDTH 601 0
DWIDTH 5 0
BBX 5 8 0 0
BITMAP
007830
022130
179850
B5D580
58BD20
0B6C50
0E3E20
2F2E10
ENDCHAR
STARTCHAR uni0213
ENCODING 531
SWIDTH 376 0
DWIDTH 3 0
BBX 5 6 -1 0
BITMAP
038A20
010100
08CD00
0C6100
0E2000
3E0000
ENDCHAR
STARTCHAR uni0214
ENCODING 532
SWIDTH 716 0
DWIDTH 6 0
BBX 6 8 0 0
BITMAP
007780
000440
27E43E
B2E06B
76B098
0970D4
0B53E0
07DC40
ENDCHAR
STARTCHAR uni0215
ENCODING 533
SWIDTH 505 0
DWIDTH 4 0
BBX 5 6 0 0
BITMAP
767000
044000
899800
C6C500
F4F320
D9D900
ENDCHAR
STARTCHAR uni0216
ENCODING 534
SWIDTH 716 0
DWIDTH 6 0
BBX 6 8 0 0
BITMAP
000684
001304
27E43E
B2E06B
76B098
0970D4
0B53E0
07DC40
ENDCHAR
STARTCHAR uni0217
ENCODING 535
SWIDTH 505 0
DWIDTH 4 0
BBX 5 6 0 0
BITMAP
199600
010100
899800
C6C500
F4F320
D9D900
ENDCHAR
STARTCHAR Scommaaccent
ENCODING 536
SWIDTH 570 0
DWIDTH 5 0
BBX 5 8 0 -2
BITMAP
05A930
0B7630
05E300
278D00
A52F10
5AA600
041000
060000
ENDCHAR
STARTCHAR scommaaccent
ENCODING 537
SWIDTH 382 0
DWIDTH 3 0
BBX 5 7 -1 -2
BITMAP
002100
01F600
05B700
18A910
1AC400
041000
051000
ENDCHAR
STARTCHAR uni021A
ENCODING 538
SWIDTH 481 0
DWIDTH 4 0
BBX 6 8 0 -2
BITMAP
3ADDC6
C1C500
70F200
03E000
06B000
0A8000
041000
060000
ENDCHAR
STARTCHAR uni021B
ENCODING 539
SWIDTH 267 0
DWIDTH 2 0
BBX 3 8 0 -2
BITMAP
0200
5C00
AA10
C600
F320
DA10
5000
6000
ENDCHAR
STARTCHAR uni021E
ENCODING 542
SWIDTH 665 0
DWIDTH 5 0
BBX 6 8 0 0
BITMAP
000313
000580
17E2B7
A5D0E3
67DAF1
0A76C0
0D4990
2F1C60
ENDCHAR
STARTCHAR uni021F
ENCODING 543
SWIDTH 600 0
DWIDTH 5 0
BBX 6 7 -1 0
BITMAP
000322
017670
05C000
08DD40
0B6C50
0E3E22
3E0CA1
ENDCHAR
STARTCHAR uni0237
ENCODING 567
SWIDTH 240 0
DWIDTH 2 0
BBX 5 6 -2 -2
BITMAP
008900
00C600
00E410
03F600
3AB000
6C5000
ENDCHAR
STARTCHAR uni0259
ENCODING 601
SWIDTH 404 0
DWIDTH 3 0
BBX 4 4 0 0
BITMAP
5BB0
28F1
A6C0
9B20
ENDCHAR
STARTCHAR uni0292
ENCODING 658
SWIDTH 442 0
DWIDTH 4 0
BBX 4 6 0 -2
BITMAP
89D1
1C50
3E02
0C74
6E50
AC10
ENDCHAR
STARTCHAR uni02BB
ENCODING 699
SWIDTH 241 0
DWIDTH 2 0
BBX 1 2 1 4
BITMAP
50
C0
ENDCHAR
STARTCHAR uni02BC
ENCODING 700
SWIDTH 228 0
DWIDTH 2 0
BBX 2 2 1 4
BITMAP
A1
40
ENDCHAR
STARTCHAR circumflex
ENCODING 710
SWIDTH 293 0
DWIDTH 2 0
BBX 3 2 0 4
BITMAP
0400
5830
ENDCHAR
STARTCHAR caron
ENCODING 711
SWIDTH 294 0
DWIDTH 2 0
BBX 3 2 0 4
BITMAP
1240
0B20
ENDCHAR
STARTCHAR uni02C9
ENCODING 713
SWIDTH 421 0
DWIDTH 3 0
BBX 3 1 1 4
BITMAP
8850
ENDCHAR
STARTCHAR uni02CA
ENCODING 714
SWIDTH 256 0
DWIDTH 2 0
BBX 2 2 1 4
BITMAP
32
90
ENDCHAR
STARTCHAR uni02CB
ENCODING 715
SWIDTH 274 0
DWIDTH 2 0
BBX 2 2 1 4
BITMAP
82
44
ENDCHAR
STARTCHAR breve
ENCODING 728
SWIDTH 431 0
DWIDTH 3 0
BBX 4 2 0 4
BITMAP
2222
2871
ENDCHAR
STARTCHAR dotaccent
ENCODING 729
SWIDTH 250 0
DWIDTH 2 0
BBX 2 2 0 4
BITMAP
68
01
ENDCHAR
STARTCHAR ring
ENCODING 730
SWIDTH 156 0
DWIDTH 1 0
BBX 2 2 0 4
BITMAP
61
71
ENDCHAR
STARTCHAR ogonek
ENCODING 731
SWIDTH 291 0
DWIDTH 2 0
BBX 2 3 0 -2
BITMAP
01
72
57
ENDCHAR
STARTCHAR tilde
ENCODING 732
SWIDTH 403 0
DWIDTH 3 0
BBX 4 1 0 4
BITMAP
2A91
ENDCHAR
STARTCHAR hungarumlaut
ENCODING 733
SWIDTH 436 0
DWIDTH 3 0
BBX 4 2 0 4
BITMAP
0964
2680
ENDCHAR
STARTCHAR gravecomb
ENCODING 768
SWIDTH 0 0
DWIDTH 0 0
BBX 2 2 -2 4
BITMAP
36
08
ENDCHAR
STARTCHAR acutecomb
ENCODING 769
SWIDTH 0 0
DWIDTH 0 0
BBX 2 2 -2 4
BITMAP
06
54
ENDCHAR
STARTCHAR uni0302
ENCODING 770
SWIDTH 0 0
DWIDTH 0 0
BBX 2 2 -2 4
BITMAP
04
79
ENDCHAR
STARTCHAR tildecomb
ENCODING 771
SWIDTH 0 0
DWIDTH 0 0
BBX 3 1 -3 4
BITMAP
3C70
ENDCHAR
STARTCHAR uni0304
ENCODING 772
SWIDTH 0 0
DWIDTH 0 0
BBX 4 1 -3 4
BITMAP
3882
ENDCHAR
STARTCHAR uni0306
ENCODING 774
SWIDTH 0 0
DWIDTH 0 0
BBX 4 2 -3 4
BITMAP
3122
3870
ENDCHAR
STARTCHAR uni0307
ENCODING 775
SWIDTH 0 0
DWIDTH 0 0
BBX 2 2 -1 4
BITMAP
C3
10
ENDCHAR
STARTCHAR uni0308
ENCODING 776
SWIDTH 0 0
DWIDTH 0 0
BBX 4 1 -3 5
BITMAP
1761
ENDCHAR
STARTCHAR hookabovecomb
ENCODING 777
SWIDTH 0 0
DWIDTH 0 0
BBX 2 2 -2 4
BITMAP
45
54
ENDCHAR
STARTCHAR uni030A
ENCODING 778
SWIDTH 0 0
DWIDTH 0 0
BBX 2 2 -1 4
BITMAP
61
71
ENDCHAR
STARTCHAR uni030B
ENCODING 779
SWIDTH 0 0
DWIDTH 0 0
BBX 4 2 -3 4
BITMAP
0973
3580
ENDCHAR
STARTCHAR uni030C
ENCODING 780
SWIDTH 0 0
DWIDTH 0 0
BBX 3 2 -2 4
BITMAP
3310
8500
ENDCHAR
STARTCHAR uni030F
ENCODING 783
SWIDTH 0 0
DWIDTH 0 0
BBX 3 2 -3 4
BITMAP
6670
1880
ENDCHAR
STARTCHAR uni0311
ENCODING 785
SWIDTH 0 0
DWIDTH 0 0
BBX 4 2 -3 4
BITMAP
3780
4041
ENDCHAR
STARTCHAR uni031B
ENCODING 795
SWIDTH 0 0
DWIDTH 0 0
BBX 2 2 -1 3
BITMAP
72
60
ENDCHAR
STARTCHAR dotbelowcomb
ENCODING 803
SWIDTH 0 0
DWIDTH 0 0
BBX 2 2 -2 -3
BITMAP
5A
01
ENDCHAR
STARTCHAR uni0324
ENCODING 804
SWIDTH 0 0
DWIDTH 0 0
BBX 3 1 -4 -2
BITMAP
4480
ENDCHAR
STARTCHAR uni0326
ENCODING 806
SWIDTH 0 0
DWIDTH 0 0
BBX 1 2 -2 -2
BITMAP
90
20
ENDCHAR
STARTCHAR uni0327
ENCODING 807
SWIDTH 0 0
DWIDTH 0 0
BBX 2 2 -3 -2
BITMAP
45
46
ENDCHAR
STARTCHAR uni0328
ENCODING 808
SWIDTH 0 0
DWIDTH 0 0
BBX 2 3 -3 -2
BITMAP
11
80
76
ENDCHAR
STARTCHAR uni032E
ENCODING 814
SWIDTH 0 0
DWIDTH 0 0
BBX 3 2 -4 -2
BITMAP
1120
1650
ENDCHAR
STARTCHAR uni0331
ENCODING 817
SWIDTH 0 0
DWIDTH 0 0
BBX 3 1 -4 -2
BITMAP
5980
ENDCHAR
STARTCHAR uni0335
ENCODING 821
SWIDTH 0 0
DWIDTH 0 0
BBX 3 1 -3 2
BITMAP
6640
ENDCHAR
STARTCHAR uni0394
ENCODING 916
SWIDTH 619 0
DWIDTH 5 0
BBX 5 7 0 0
BITMAP
000200
003F20
00A850
056570
0A0390
7401C0
A999B0
ENDCHAR
STARTCHAR uni03A9
ENCODING 937
SWIDTH 745 0
DWIDTH 6 0
BBX 6 6 0 0
BITMAP
007AA1
095058
290028
370063
190270
7B2A91
ENDCHAR
STARTCHAR uni03BC
ENCODING 956
SWIDTH 505 0
DWIDTH 4 0
BBX 6 7 -1 -2
BITMAP
011110
098980
0C5D50
1F4F32
3F8B80
7A0000
100000
ENDCHAR
STARTCHAR pi
ENCODING 960
SWIDTH 530 0
DWIDTH 4 0
BBX 5 5 0 0
BITMAP
AAAA20
737300
909000
A0A000
607000
ENDCHAR
STARTCHAR uni0400
ENCODING 1024
SWIDTH 459 0
DWIDTH 4 0
BBX 4 8 0 0
BITMAP
0090
0072
0599
0D27
0B70
8C00
D803
8E92
ENDCHAR
STARTCHAR uni0401
ENCODING 1025
SWIDTH 459 0
DWIDTH 4 0
BBX 5 8 0 0
BITMAP
007620
000000
059900
0D2700
0B7000
8C0000
D80300
8E9200
ENDCHAR
STARTCHAR uni0402
ENCODING 1026
SWIDTH 725 0
DWIDTH 6 0
BBX 6 8 0 -2
BITMAP
3ADEC7
B1B600
60EAB1
03E0E3
06B1F1
0984D0
000A70
009900
ENDCHAR
STARTCHAR uni0403
ENCODING 1027
SWIDTH 400 0
DWIDTH 3 0
BBX 5 8 0 0
BITMAP
000060
000530
38FCB0
C4E000
87A000
0A7000
0D4000
1F1000
ENDCHAR
STARTCHAR uni0404
ENCODING 1028
SWIDTH 497 0
DWIDTH 4 0
BBX 5 6 0 0
BITMAP
06A820
3E1520
9D8200
C80000
C90200
6EA500
ENDCHAR
STARTCHAR uni0405
ENCODING 1029
SWIDTH 570 0
DWIDTH 5 0
BBX 5 6 0 0
BITMAP
05A930
0B7630
05E300
278D00
A52F10
5AA600
ENDCHAR
STARTCHAR uni0406
ENCODING 1030
SWIDTH 374 0
DWIDTH 3 0
BBX 4 6 0 0
BITMAP
18E2
A5E0
87A0
0A70
0D40
1F10
ENDCHAR
STARTCHAR uni0407
ENCODING 1031
SWIDTH 375 0
DWIDTH 3 0
BBX 4 8 0 0
BITMAP
0448
0000
18E1
A5D0
88A0
0B70
0E30
2F00
ENDCHAR
STARTCHAR uni0408
ENCODING 1032
SWIDTH 536 0
DWIDTH 4 0
BBX 5 8 0 -2
BITMAP
005C80
057C50
044F10
004D00
007A00
57B700
B2E200
575000
ENDCHAR
STARTCHAR uni0409
ENCODING 1033
SWIDTH 817 0
DWIDTH 7 0
BBX 8 7 -1 -1
BITMAP
0004C700
0037D400
00B1F880
0684D0E3
0C27A1F2
2D0A9C80
2A000000
ENDCHAR
STARTCHAR uni040A
ENCODING 1034
SWIDTH 931 0
DWIDTH 7 0
BBX 8 6 0 0
BITMAP
17E2B600
B5D0E300
57DAF870
0A76C0F2
0D4991F1
1F1C9C70
ENDCHAR
STARTCHAR uni040B
ENCODING 1035
SWIDTH 745 0
DWIDTH 6 0
BBX 6 6 0 0
BITMAP
3ADEC7
B1B600
60EAB1
03E0E3
06B1F1
0982E0
ENDCHAR
STARTCHAR uni040C
ENCODING 1036
SWIDTH 635 0
DWIDTH 5 0
BBX 6 8 0 0
BITMAP
000060
000530
18E5D5
B5E800
57DA20
0A7B50
0D4E30
1F1E10
ENDCHAR
STARTCHAR uni040D
ENCODING 1037
SWIDTH 705 0
DWIDTH 6 0
BBX 6 8 0 0
BITMAP
000910
000630
18E28C
A5E2F8
87A9D5
0AB6F2
0DC4E0
1F47B0
ENDCHAR
STARTCHAR uni040E
ENCODING 1038
SWIDTH 644 0
DWIDTH 5 0
BBX 6 8 0 0
BITMAP
000603
000871
17E517
A1B962
807C80
003F40
001B00
04D400
ENDCHAR
STARTCHAR uni040F
ENCODING 1039
SWIDTH 665 0
DWIDTH 5 0
BBX 6 9 0 -3
BITMAP
18E2B7
A5E0E3
87A2F1
0A75C0
0D4890
1FAD60
027000
02E000
004000
ENDCHAR
STARTCHAR uni0410
ENCODING 1040
SWIDTH 668 0
DWIDTH 5 0
BBX 6 7 0 -1
BITMAP
0004C6
0055E4
59C6F1
8865C0
0D1890
4B0C60
390000
ENDCHAR
STARTCHAR uni0411
ENCODING 1041
SWIDTH 638 0
DWIDTH 5 0
BBX 5 6 0 0
BITMAP
49EBB0
B6B000
59B930
0C57A0
0F2890
3E8C20
ENDCHAR
STARTCHAR uni0412
ENCODING 1042
SWIDTH 641 0
DWIDTH 5 0
BBX 5 6 0 0
BITMAP
189850
B5D490
67CC50
0A75C0
0D46A0
1F8D30
ENDCHAR
STARTCHAR uni0413
ENCODING 1043
SWIDTH 400 0
DWIDTH 3 0
BBX 5 6 0 0
BITMAP
38FCB0
C4E000
87A000
0A7000
0D4000
1F1000
ENDCHAR
STARTCHAR uni0414
ENCODING 1044
SWIDTH 669 0
DWIDTH 5 0
BBX 7 6 -1 0
BITMAP
01788700
0A5E0E10
087B0F30
00A72F10
05E47A00
2BB9C200
ENDCHAR
STARTCHAR uni0415
ENCODING 1045
SWIDTH 459 0
DWIDTH 4 0
BBX 4 6 0 0
BITMAP
0599
0D27
0B70
8C00
D803
8E92
ENDCHAR
STARTCHAR uni0416
ENCODING 1046
SWIDTH 777 0
DWIDTH 6 0
BBX 8 6 -1 0
BITMAP
02D3B5B7
0018F910
003CE910
05B9B980
0A6B7A60
1D2E3C40
ENDCHAR
STARTCHAR uni0417
ENCODING 1047
SWIDTH 525 0
DWIDTH 4 0
BBX 4 6 0 0
BITMAP
07AA
106D
07E4
009B
80AA
A8B1
ENDCHAR
STARTCHAR uni0418
ENCODING 1048
SWIDTH 705 0
DWIDTH 6 0
BBX 6 6 0 0
BITMAP
18E28C
A5E2F8
87A9D5
0AB6F2
0DC4E0
1F47B0
ENDCHAR
STARTCHAR uni0419
ENCODING 1049
SWIDTH 705 0
DWIDTH 6 0
BBX 6 8 0 0
BITMAP
001513
001860
18E28C
A5E2F8
87A9D5
0AB6F2
0DC4E0
1F47B0
ENDCHAR
STARTCHAR uni041A
ENCODING 1050
SWIDTH 635 0
DWIDTH 5 0
BBX 6 6 0 0
BITMAP
18E5D5
B5E800
57DA20
0A7B50
0D4E30
1F1E10
ENDCHAR
STARTCHAR uni041B
ENCODING 1051
SWIDTH 549 0
DWIDTH 4 0
BBX 6 7 -1 -1
BITMAP
0004C7
0038C5
00C1F2
0684E0
0C27A0
2D0A70
2A0000
ENDCHAR
STARTCHAR uni041C
ENCODING 1052
SWIDTH 787 0
DWIDTH 6 0
BBX 7 6 0 0
BITMAP
05BA0E60
47CA5F30
36E9AF10
08ABAE00
099E7C00
459A7A00
ENDCHAR
STARTCHAR uni041D
ENCODING 1053
SWIDTH 665 0
DWIDTH 5 0
BBX 6 6 0 0
BITMAP
17E2B7
A5D0E3
67DAF1
0A76C0
0D4990
2F1C60
ENDCHAR
STARTCHAR uni041E
ENCODING 1054
SWIDTH 665 0
DWIDTH 5 0
BBX 6 6 0 0
BITMAP
078890
96C0D3
8B70E3
0F32E0
2F1890
0BB900
ENDCHAR
STARTCHAR uni041F
ENCODING 1055
SWIDTH 688 0
DWIDTH 6 0
BBX 7 6 0 0
BITMAP
3AFAEC20
B4D0E300
77A2F000
0A75C000
0D489000
1F1C6000
ENDCHAR
STARTCHAR uni0420
ENCODING 1056
SWIDTH 573 0
DWIDTH 5 0
BBX 5 6 0 0
BITMAP
168840
A5D3A0
87A770
0BA600
0E3000
2F0000
ENDCHAR
STARTCHAR uni0421
ENCODING 1057
SWIDTH 497 0
DWIDTH 4 0
BBX 5 6 0 0
BITMAP
06A820
3E1620
9B0000
C80000
C80200
6EA500
ENDCHAR
STARTCHAR uni0422
ENCODING 1058
SWIDTH 481 0
DWIDTH 4 0
BBX 6 6 0 0
BITMAP
3ADDC6
C1C500
70F200
03E000
06B000
0A8000
ENDCHAR
STARTCHAR uni0423
ENCODING 1059
SWIDTH 644 0
DWIDTH 5 0
BBX 6 6 0 0
BITMAP
17E517
A1B962
807C80
003F40
001B00
04D400
ENDCHAR
STARTCHAR uni0424
ENCODING 1060
SWIDTH 786 0
DWIDTH 6 0
BBX 6 7 0 0
BITMAP
055930
072E40
295E79
B57B1F
B6A76A
28E871
01F200
ENDCHAR
STARTCHAR uni0425
ENCODING 1061
SWIDTH 620 0
DWIDTH 5 0
BBX 5 6 0 0
BITMAP
17E480
A1CC30
809B00
008D00
029F10
070E50
ENDCHAR
STARTCHAR uni0426
ENCODING 1062
SWIDTH 692 0
DWIDTH 6 0
BBX 6 7 0 -1
BITMAP
18E2B7
A5E0E3
87A2F0
0A75C0
0D4880
1F8D50
0029E7
ENDCHAR
STARTCHAR uni0427
ENCODING 1063
SWIDTH 695 0
DWIDTH 6 0
BBX 6 6 0 0
BITMAP
18E27A
A5E0A7
85C0D4
0188F1
0005D0
000890
ENDCHAR
STARTCHAR uni0428
ENCODING 1064
SWIDTH 906 0
DWIDTH 7 0
BBX 8 6 0 0
BITMAP
18E2E3C6
A5E2F1F2
87A6C3E0
0A7986B0
0D4C5A80
1FAFAE50
ENDCHAR
STARTCHAR uni0429
ENCODING 1065
SWIDTH 934 0
DWIDTH 7 0
BBX 8 7 0 -1
BITMAP
18E2E3C6
A5E2F1F2
87A6C3E0
0A7996B0
0D4C5970
1F9F4D40
00258CE6
ENDCHAR
STARTCHAR uni042A
ENCODING 1066
SWIDTH 714 0
DWIDTH 6 0
BBX 6 6 0 0
BITMAP
28CA00
A0A700
70D891
01F1B6
04C0D4
08ABA0
ENDCHAR
STARTCHAR uni042B
ENCODING 1067
SWIDTH 909 0
DWIDTH 7 0
BBX 8 6 0 0
BITMAP
18E200B6
B5D000E3
57C943E0
0A75C6B0
0D46A980
1F7D3C50
ENDCHAR
STARTCHAR uni042C
ENCODING 1068
SWIDTH 640 0
DWIDTH 5 0
BBX 5 6 0 0
BITMAP
18E200
B5D000
57C940
0A75C0
0D46A0
1F7D30
ENDCHAR
STARTCHAR uni042D
ENCODING 1069
SWIDTH 544 0
DWIDTH 4 0
BBX 5 6 0 0
BITMAP
18CB00
202F30
069F30
005F10
80B900
97A100
ENDCHAR
STARTCHAR uni042E
ENCODING 1070
SWIDTH 946 0
DWIDTH 8 0
BBX 8 6 0 0
BITMAP
18E269B1
B5D1D296
67DCA097
0A7C60D4
0D4D54C0
1F17CA20
ENDCHAR
STARTCHAR uni042F
ENCODING 1071
SWIDTH 630 0
DWIDTH 5 0
BBX 7 6 -1 0
BITMAP
00497920
00C1F570
01C3D110
01CBA000
097A7000
1C2D4000
ENDCHAR
STARTCHAR uni0430
ENCODING 1072
SWIDTH 526 0
DWIDTH 4 0
BBX 6 4 -1 0
BITMAP
03CAB0
0C5980
1F2D52
0DABA1
ENDCHAR
STARTCHAR uni0431
ENCODING 1073
SWIDTH 430 0
DWIDTH 3 0
BBX 6 6 -1 0
BITMAP
008EE4
006810
029C00
0C6910
1F2A00
0CB300
ENDCHAR
STARTCHAR uni0432
ENCODING 1074
SWIDTH 449 0
DWIDTH 4 0
BBX 6 6 -1 0
BITMAP
007B20
03C530
0A7700
0E7D51
1F2A10
0BC600
ENDCHAR
STARTCHAR uni0433
ENCODING 1075
SWIDTH 375 0
DWIDTH 3 0
BBX 5 4 -1 0
BITMAP
06D800
04B700
0C6210
1DA500
ENDCHAR
STARTCHAR uni0434
ENCODING 1076
SWIDTH 507 0
DWIDTH 4 0
BBX 6 6 -1 -2
BITMAP
03BAB0
0C5980
1F2D52
0DBF71
039D00
05C600
ENDCHAR
STARTCHAR uni0435
ENCODING 1077
SWIDTH 384 0
DWIDTH 3 0
BBX 5 4 -1 0
BITMAP
03B900
0C6900
1F6110
0CB600
ENDCHAR
STARTCHAR uni0436
ENCODING 1078
SWIDTH 882 0
DWIDTH 7 0
BBX 9 4 -1 0
BITMAP
07C5D5BA00
018BFC7200
13A7CA5120
2A8796B600
ENDCHAR
STARTCHAR uni0437
ENCODING 1079
SWIDTH 498 0
DWIDTH 4 0
BBX 5 6 0 -2
BITMAP
3AE300
60D400
1B8320
06D500
4AB000
5C5000
ENDCHAR
STARTCHAR uni0438
ENCODING 1080
SWIDTH 505 0
DWIDTH 4 0
BBX 5 4 0 0
BITMAP
899800
C6C500
F4F320
D9D900
ENDCHAR
STARTCHAR uni0439
ENCODING 1081
SWIDTH 505 0
DWIDTH 4 0
BBX 5 6 0 0
BITMAP
060300
087200
899800
C6C500
F4F320
D9D900
ENDCHAR
STARTCHAR uni043A
ENCODING 1082
SWIDTH 501 0
DWIDTH 4 0
BBX 6 4 -1 0
BITMAP
089690
0CD900
0E4F22
3E0D90
ENDCHAR
STARTCHAR uni043B
ENCODING 1083
SWIDTH 558 0
DWIDTH 4 0
BBX 6 4 -1 0
BITMAP
0029E0
0065B0
146883
2A56D4
ENDCHAR
STARTCHAR uni043C
ENCODING 1084
SWIDTH 827 0
DWIDTH 7 0
BBX 8 4 -1 0
BITMAP
002D55F2
006A5AE0
1469B9A3
2958B5D5
ENDCHAR
STARTCHAR uni043D
ENCODING 1085
SWIDTH 507 0
DWIDTH 4 0
BBX 6 4 -1 0
BITMAP
089890
0CAD50
0E2F32
3E0C90
ENDCHAR
STARTCHAR uni043E
ENCODING 1086
SWIDTH 439 0
DWIDTH 4 0
BBX 6 4 -1 0
BITMAP
03BA00
0C5A61
1F2A00
0CB400
ENDCHAR
STARTCHAR uni043F
ENCODING 1087
SWIDTH 505 0
DWIDTH 4 0
BBX 6 4 -1 0
BITMAP
08DD40
0C6C50
0E3E22
3E0CA1
ENDCHAR
STARTCHAR uni0440
ENCODING 1088
SWIDTH 468 0
DWIDTH 4 0
BBX 5 7 -1 -2
BITMAP
035000
09CC50
0C6970
1F2C40
3FBA00
7B0000
860000
ENDCHAR
STARTCHAR uni0441
ENCODING 1089
SWIDTH 384 0
DWIDTH 3 0
BBX 5 4 -1 0
BITMAP
03B900
0C5200
1F2110
0CB600
ENDCHAR
STARTCHAR uni0442
ENCODING 1090
SWIDTH 752 0
DWIDTH 6 0
BBX 8 4 -1 0
BITMAP
08DD9D40
0C6C6C50
0E3F2F22
3E3E0D90
ENDCHAR
STARTCHAR uni0443
ENCODING 1091
SWIDTH 486 0
DWIDTH 4 0
BBX 5 6 0 -2
BITMAP
899800
C6C500
F4F310
DCF600
4AB000
6C4000
ENDCHAR
STARTCHAR uni0444
ENCODING 1092
SWIDTH 738 0
DWIDTH 6 0
BBX 7 8 -1 -2
BITMAP
00006000
0003D000
03CACC60
0C5A6980
1F2D3C50
0DBFCA00
004C0000
00760000
ENDCHAR
STARTCHAR uni0445
ENCODING 1093
SWIDTH 522 0
DWIDTH 4 0
BBX 5 4 0 0
BITMAP
2B8900
54E600
36E020
53CA10
ENDCHAR
STARTCHAR uni0446
ENCODING 1094
SWIDTH 535 0
DWIDTH 4 0
BBX 4 6 0 -2
BITMAP
8998
C5D5
F6F3
D9CA
0BE5
3210
ENDCHAR
STARTCHAR uni0447
ENCODING 1095
SWIDTH 505 0
DWIDTH 4 0
BBX 5 4 0 0
BITMAP
899800
B7D500
6AF320
00D900
ENDCHAR
STARTCHAR uni0448
ENCODING 1096
SWIDTH 752 0
DWIDTH 6 0
BBX 7 4 0 0
BITMAP
89989800
C6C5C500
F4F3F320
D9D9D900
ENDCHAR
STARTCHAR uni0449
ENCODING 1097
SWIDTH 782 0
DWIDTH 6 0
BBX 6 6 0 -2
BITMAP
899898
C5D5D4
F6F6F3
D9C8DA
001CE4
005210
ENDCHAR
STARTCHAR uni044A
ENCODING 1098
SWIDTH 448 0
DWIDTH 4 0
BBX 4 4 0 0
BITMAP
9C10
7BA1
E3D3
CB80
ENDCHAR
STARTCHAR uni044B
ENCODING 1099
SWIDTH 655 0
DWIDTH 5 0
BBX 6 4 0 0
BITMAP
9817B0
C9B980
E2AB52
CB4AB2
ENDCHAR
STARTCHAR uni044C
ENCODING 1100
SWIDTH 448 0
DWIDTH 4 0
BBX 4 4 0 0
BITMAP
8900
CBB1
E3D2
CB80
ENDCHAR
STARTCHAR uni044D
ENCODING 1101
SWIDTH 413 0
DWIDTH 3 0
BBX 4 4 -1 0
BITMAP
06BA
029E
228A
48B2
ENDCHAR
STARTCHAR uni044E
ENCODING 1102
SWIDTH 675 0
DWIDTH 5 0
BBX 8 4 -1 0
BITMAP
0896BA11
0CAF3B60
0E5F1A00
3E1DB200
ENDCHAR
STARTCHAR uni044F
ENCODING 1103
SWIDTH 527 0
DWIDTH 4 0
BBX 6 4 -1 0
BITMAP
02BAB0
069880
15AC53
2A6AB1
ENDCHAR
STARTCHAR uni0450
ENCODING 1104
SWIDTH 384 0
DWIDTH 3 0
BBX 5 6 -1 0
BITMAP
008100
005300
03B900
0C6900
1F6110
0CB600
ENDCHAR
STARTCHAR uni0451
ENCODING 1105
SWIDTH 384 0
DWIDTH 3 0
BBX 5 6 -1 0
BITMAP
008530
000000
03B900
0C6900
1F6110
0CB600
ENDCHAR
STARTCHAR uni0452
ENCODING 1106
SWIDTH 491 0
DWIDTH 4 0
BBX 6 8 -1 -2
BITMAP
02B000
09D500
09CC20
0C6D40
0F2F31
3E4E40
05BA00
06C400
ENDCHAR
STARTCHAR uni0453
ENCODING 1107
SWIDTH 375 0
DWIDTH 3 0
BBX 5 6 -1 0
BITMAP
000510
002700
06D800
04B700
0C6210
1DA500
ENDCHAR
STARTCHAR uni0454
ENCODING 1108
SWIDTH 384 0
DWIDTH 3 0
BBX 5 4 -1 0
BITMAP
03A900
0C9300
1F1210
0CB500
ENDCHAR
STARTCHAR uni0455
ENCODING 1109
SWIDTH 382 0
DWIDTH 3 0
BBX 5 5 -1 0
BITMAP
002100
01F600
05B700
18A910
1AC400
ENDCHAR
STARTCHAR uni0456
ENCODING 1110
SWIDTH 267 0
DWIDTH 2 0
BBX 3 6 0 0
BITMAP
3C00
0200
8900
C600
F320
DA10
ENDCHAR
STARTCHAR uni0457
ENCODING 1111
SWIDTH 267 0
DWIDTH 2 0
BBX 3 6 0 0
BITMAP
A560
0000
8900
C600
F320
DA10
ENDCHAR
STARTCHAR uni0458
ENCODING 1112
SWIDTH 240 0
DWIDTH 2 0
BBX 5 8 -2 -2
BITMAP
003B00
000200
008900
00C600
00E410
03F600
3AB000
6C5000
ENDCHAR
STARTCHAR uni0459
ENCODING 1113
SWIDTH 745 0
DWIDTH 6 0
BBX 7 4 -1 0
BITMAP
002BE000
0076EB50
14888780
2A56CB10
ENDCHAR
STARTCHAR uni045A
ENCODING 1114
SWIDTH 694 0
DWIDTH 6 0
BBX 7 4 -1 0
BITMAP
08989100
0CAD9E20
0E2F2E20
3E0BB700
ENDCHAR
STARTCHAR uni045B
ENCODING 1115
SWIDTH 505 0
DWIDTH 4 0
BBX 6 6 -1 0
BITMAP
02B000
09D500
09CC20
0C6D40
0F2F22
3E0D90
ENDCHAR
STARTCHAR uni045C
ENCODING 1116
SWIDTH 501 0
DWIDTH 4 0
BBX 6 6 -1 0
BITMAP
000330
000800
089690
0CD900
0E4F22
3E0D90
ENDCHAR
STARTCHAR uni045D
ENCODING 1117
SWIDTH 505 0
DWIDTH 4 0
BBX 5 6 0 0
BITMAP
063000
026000
899800
C6C500
F4F320
D9D900
ENDCHAR
STARTCHAR uni045E
ENCODING 1118
SWIDTH 486 0
DWIDTH 4 0
BBX 5 8 0 -2
BITMAP
060300
087200
899800
C6C500
F4F310
DCF600
4AB000
6C4000
ENDCHAR
STARTCHAR uni045F
ENCODING 1119
SWIDTH 505 0
DWIDTH 4 0
BBX 5 6 0 -2
BITMAP
899800
C6C500
F4F320
D9D900
082000
072000
ENDCHAR
STARTCHAR uni0462
ENCODING 1122
SWIDTH 659 0
DWIDTH 5 0
BBX 5 6 0 0
BITMAP
02F100
7BEC90
78B930
0B56A0
0E2890
3E8D20
ENDCHAR
STARTCHAR uni0463
ENCODING 1123
SWIDTH 692 0
DWIDTH 6 0
BBX 7 4 -1 0
BITMAP
08DD4000
0C6BBA10
0E2E2E20
3E0CB800
ENDCHAR
STARTCHAR uni046A
ENCODING 1130
SWIDTH 834 0
DWIDTH 7 0
BBX 7 6 0 0
BITMAP
06AD6A10
753F5400
258EB910
0D3E3E20
1F2F2E00
6B5D3D00
ENDCHAR
STARTCHAR uni046B
ENCODING 1131
SWIDTH 750 0
DWIDTH 6 0
BBX 6 4 0 0
BITMAP
38D880
19BB91
2D88D2
69B6E0
ENDCHAR
STARTCHAR uni0472
ENCODING 1138
SWIDTH 665 0
DWIDTH 5 0
BBX 6 6 0 0
BITMAP
069890
88B0D3
ACA3D3
1F28E0
2F1890
0BB900
ENDCHAR
STARTCHAR uni0473
ENCODING 1139
SWIDTH 439 0
DWIDTH 4 0
BBX 6 4 -1 0
BITMAP
03BA00
0C6A52
1F8B00
0CB400
ENDCHAR
STARTCHAR uni0474
ENCODING 1140
SWIDTH 668 0
DWIDTH 5 0
BBX 6 6 0 0
BITMAP
17E368
A1F3C0
80F670
00EA10
00EA00
00E600
ENDCHAR
STARTCHAR uni0475
ENCODING 1141
SWIDTH 414 0
DWIDTH 3 0
BBX 4 4 0 0
BITMAP
8992
C661
F390
DB30
ENDCHAR
STARTCHAR uni0490
ENCODING 1168
SWIDTH 431 0
DWIDTH 3 0
BBX 6 7 0 0
BITMAP
000051
39EDC1
B5C000
889000
0B6000
0E3000
2E0000
ENDCHAR
STARTCHAR uni0491
ENCODING 1169
SWIDTH 342 0
DWIDTH 3 0
BBX 4 5 -1 0
BITMAP
0006
08C6
0C60
0E20
3E00
ENDCHAR
STARTCHAR uni0492
ENCODING 1170
SWIDTH 400 0
DWIDTH 3 0
BBX 5 6 0 0
BITMAP
38ECB0
C4E000
97B000
2CB200
0D4000
1F1000
ENDCHAR
STARTCHAR uni0493
ENCODING 1171
SWIDTH 375 0
DWIDTH 3 0
BBX 5 4 -1 0
BITMAP
07D900
1AC700
1F2310
1DA400
ENDCHAR
STARTCHAR uni0494
ENCODING 1172
SWIDTH 665 0
DWIDTH 5 0
BBX 5 6 0 0
BITMAP
38FCB0
C4E000
77DA50
0A73D0
0D45B0
1F8B20
ENDCHAR
STARTCHAR uni0495
ENCODING 1173
SWIDTH 486 0
DWIDTH 4 0
BBX 6 6 -1 -2
BITMAP
08DC50
0BBB00
0E3F31
3E4E40
04B900
06C300
ENDCHAR
STARTCHAR uni0496
ENCODING 1174
SWIDTH 777 0
DWIDTH 6 0
BBX 8 9 -1 -3
BITMAP
02D3B5B7
0018F910
003CE910
05B9B980
0A6B7A60
1D2E3D40
00000C10
00000A40
00000200
ENDCHAR
STARTCHAR uni0497
ENCODING 1175
SWIDTH 882 0
DWIDTH 7 0
BBX 9 6 -1 -2
BITMAP
07C5D5BA00
018BFC7200
13A7CA5110
2A8796C600
000000B000
0000008000
ENDCHAR
STARTCHAR uni0498
ENCODING 1176
SWIDTH 525 0
DWIDTH 4 0
BBX 4 9 0 -3
BITMAP
07AA
106D
07E4
009B
80A9
B8A1
0C10
0950
0200
ENDCHAR
STARTCHAR uni0499
ENCODING 1177
SWIDTH 498 0
DWIDTH 4 0
BBX 5 8 0 -4
BITMAP
1AD200
60D500
51E200
1B8320
19D200
6C7000
380000
170000
ENDCHAR
STARTCHAR uni049A
ENCODING 1178
SWIDTH 635 0
DWIDTH 5 0
BBX 6 9 0 -3
BITMAP
18E5D5
B5E800
57DA20
0A7B50
0D4D30
1F2F10
000D00
000B30
000200
ENDCHAR
STARTCHAR uni049B
ENCODING 1179
SWIDTH 501 0
DWIDTH 4 0
BBX 6 6 -1 -2
BITMAP
089690
0CD900
0E4F22
3E0D90
000920
000620
ENDCHAR
STARTCHAR uni049C
ENCODING 1180
SWIDTH 721 0
DWIDTH 6 0
BBX 7 6 0 0
BITMAP
18E27D10
B5D66000
67DD4000
0A96B000
0D489000
1F197000
ENDCHAR
STARTCHAR uni049D
ENCODING 1181
SWIDTH 551 0
DWIDTH 4 0
BBX 6 4 -1 0
BITMAP
0893B3
0CCA20
0EAB72
3E07D4
ENDCHAR
STARTCHAR uni04A0
ENCODING 1184
SWIDTH 691 0
DWIDTH 6 0
BBX 6 6 0 0
BITMAP
4AD89B
C0CC20
50FA60
03D4C0
06A790
0A8880
ENDCHAR
STARTCHAR uni04A1
ENCODING 1185
SWIDTH 676 0
DWIDTH 5 0
BBX 6 4 0 0
BITMAP
8AE4C2
B5EB20
099A72
0C57C3
ENDCHAR
STARTCHAR uni04A2
ENCODING 1186
SWIDTH 665 0
DWIDTH 5 0
BBX 6 8 0 -2
BITMAP
18E2B7
B5D0E3
67DAF0
0A76C0
0D4980
1F1C70
0001D7
000010
ENDCHAR
STARTCHAR uni04A3
ENCODING 1187
SWIDTH 507 0
DWIDTH 4 0
BBX 6 6 -1 -2
BITMAP
089890
0CAD50
0E2F32
3E0DA0
000930
000620
ENDCHAR
STARTCHAR uni04A4
ENCODING 1188
SWIDTH 689 0
DWIDTH 6 0
BBX 8 6 0 0
BITMAP
17E2ACC3
A5D0E300
67DAF000
0A76C000
0D499000
1F1C6000
ENDCHAR
STARTCHAR uni04A5
ENCODING 1189
SWIDTH 681 0
DWIDTH 5 0
BBX 7 4 -1 0
BITMAP
0898DC50
0CAD5000
0E2F3200
3E0CA000
ENDCHAR
STARTCHAR uni04AA
ENCODING 1194
SWIDTH 497 0
DWIDTH 4 0
BBX 5 9 0 -3
BITMAP
06A820
3E1620
9B0000
C90000
C80210
7EA700
095000
049000
011000
ENDCHAR
STARTCHAR uni04AB
ENCODING 1195
SWIDTH 384 0
DWIDTH 3 0
BBX 5 6 -1 -2
BITMAP
03B900
0C5200
1F2110
0CB600
048000
026000
ENDCHAR
STARTCHAR uni04AE
ENCODING 1198
SWIDTH 620 0
DWIDTH 5 0
BBX 6 6 0 0
BITMAP
17E425
A1C870
808C60
005F10
007C00
00A900
ENDCHAR
STARTCHAR uni04AF
ENCODING 1199
SWIDTH 480 0
DWIDTH 4 0
BBX 4 6 0 -2
BITMAP
8947
7B06
5C51
4E40
4D00
7800
ENDCHAR
STARTCHAR uni04B0
ENCODING 1200
SWIDTH 620 0
DWIDTH 5 0
BBX 6 6 0 0
BITMAP
17E425
A1C870
808C60
00AF50
007C00
00A900
ENDCHAR
STARTCHAR uni04B1
ENCODING 1201
SWIDTH 480 0
DWIDTH 4 0
BBX 4 6 0 -2
BITMAP
8947
7B06
5C51
9F90
4D00
7800
ENDCHAR
STARTCHAR uni04B6
ENCODING 1206
SWIDTH 695 0
DWIDTH 6 0
BBX 6 8 0 -2
BITMAP
18E27A
A5D0A7
85C1D4
0188F1
0005C0
0008B0
0000BB
000001
ENDCHAR
STARTCHAR uni04B7
ENCODING 1207
SWIDTH 505 0
DWIDTH 4 0
BBX 5 6 0 -2
BITMAP
899800
B7D500
6AF320
00D900
009200
006200
ENDCHAR
STARTCHAR uni04B8
ENCODING 1208
SWIDTH 715 0
DWIDTH 6 0
BBX 6 6 0 0
BITMAP
18E25D
A5D08A
85C4C6
018AF3
0004F0
0005C0
ENDCHAR
STARTCHAR uni04B9
ENCODING 1209
SWIDTH 545 0
DWIDTH 4 0
BBX 5 4 0 0
BITMAP
894D00
BABA00
6DD730
028C30
ENDCHAR
STARTCHAR uni04BA
ENCODING 1210
SWIDTH 679 0
DWIDTH 5 0
BBX 5 6 0 0
BITMAP
18E200
A5E000
77D850
0A73E0
0D45D0
1F1890
ENDCHAR
STARTCHAR uni04BB
ENCODING 1211
SWIDTH 505 0
DWIDTH 4 0
BBX 6 6 -1 0
BITMAP
017000
05C000
08DD40
0B6C50
0E3E22
3E0CA1
ENDCHAR
STARTCHAR uni04C0
ENCODING 1216
SWIDTH 375 0
DWIDTH 3 0
BBX 4 6 0 0
BITMAP
18E1
A5D0
88A0
0B70
0E30
2F00
ENDCHAR
STARTCHAR uni04C1
ENCODING 1217
SWIDTH 777 0
DWIDTH 6 0
BBX 8 8 -1 0
BITMAP
00025120
00028600
02D3B5B7
0018F910
003CE910
05B9B980
0A6B7A60
1D2E3C40
ENDCHAR
STARTCHAR uni04C2
ENCODING 1218
SWIDTH 882 0
DWIDTH 7 0
BBX 9 6 -1 0
BITMAP
0002512000
0002860000
07C5D5BA00
018BFC7200
13A7CA5120
2A8796B600
ENDCHAR
STARTCHAR uni04CB
ENCODING 1227
SWIDTH 695 0
DWIDTH 6 0
BBX 6 7 0 -1
BITMAP
18E27A
A5D0A7
75C2D4
0188F1
0005D0
011A90
05D400
ENDCHAR
STARTCHAR uni04CC
ENCODING 1228
SWIDTH 516 0
DWIDTH 4 0
BBX 5 6 0 -2
BITMAP
7A7A00
A8C600
5AF420
00B910
5EA000
610000
ENDCHAR
STARTCHAR uni04CF
ENCODING 1231
SWIDTH 267 0
DWIDTH 2 0
BBX 3 6 0 0
BITMAP
1800
5C00
8900
C500
F320
DB10
ENDCHAR
STARTCHAR uni04D0
ENCODING 1232
SWIDTH 668 0
DWIDTH 5 0
BBX 7 9 0 -1
BITMAP
00015130
00018600
0004C600
0055E400
59C6F100
8865C000
0D189000
4B0C6000
39000000
ENDCHAR
STARTCHAR uni04D1
ENCODING 1233
SWIDTH 526 0
DWIDTH 4 0
BBX 6 6 -1 0
BITMAP
004330
004740
03CAB0
0C5980
1F2D52
0DABA1
ENDCHAR
STARTCHAR uni04D2
ENCODING 1234
SWIDTH 668 0
DWIDTH 5 0
BBX 7 9 0 -1
BITMAP
00008520
00000000
0004C600
0055E400
59C6F100
8865C000
0D189000
4B0C6000
39000000
ENDCHAR
STARTCHAR uni04D3
ENCODING 1235
SWIDTH 526 0
DWIDTH 4 0
BBX 6 6 -1 0
BITMAP
004480
000000
03CAB0
0C5980
1F2D52
0DABA1
ENDCHAR
STARTCHAR uni04D4
ENCODING 1236
SWIDTH 764 0
DWIDTH 6 0
BBX 8 7 0 -1
BITMAP
0003CBA1
0054E200
68C7E910
5866B000
0D198000
4B0CED20
39000000
ENDCHAR
STARTCHAR uni04D5
ENCODING 1237
SWIDTH 650 0
DWIDTH 5 0
BBX 6 4 0 0
BITMAP
17CCA0
58E890
F4F721
CAAB70
ENDCHAR
STARTCHAR uni04D6
ENCODING 1238
SWIDTH 459 0
DWIDTH 4 0
BBX 5 8 0 0
BITMAP
015120
028600
059900
0D2700
0B7000
8C0000
D80300
8E9200
ENDCHAR
STARTCHAR uni04D7
ENCODING 1239
SWIDTH 384 0
DWIDTH 3 0
BBX 5 6 -1 0
BITMAP
016030
018610
03B900
0C6900
1F6110
0CB600
ENDCHAR
STARTCHAR uni04D8
ENCODING 1240
SWIDTH 544 0
DWIDTH 4 0
BBX 5 6 0 0
BITMAP
1CEA00
122F30
037F40
5A5F10
C4A900
8B9000
ENDCHAR
STARTCHAR uni04D9
ENCODING 1241
SWIDTH 404 0
DWIDTH 3 0
BBX 4 4 0 0
BITMAP
5BB0
28F1
A6C0
9B20
ENDCHAR
STARTCHAR uni04DC
ENCODING 1244
SWIDTH 777 0
DWIDTH 6 0
BBX 8 8 -1 0
BITMAP
00017710
00000000
02D3B5B7
0018F910
003CE910
05B9B980
0A6B7A60
1D2E3C40
ENDCHAR
STARTCHAR uni04DD
ENCODING 1245
SWIDTH 882 0
DWIDTH 7 0
BBX 9 6 -1 0
BITMAP
0001771000
0000000000
07C5D5BA00
018BFC7200
13A7CA5120
2A8796B600
ENDCHAR
STARTCHAR uni04DE
ENCODING 1246
SWIDTH 525 0
DWIDTH 4 0
BBX 5 8 0 0
BITMAP
026710
000000
07AA00
106D00
07E400
009B00
80AA00
A8B100
ENDCHAR
STARTCHAR uni04DF
ENCODING 1247
SWIDTH 498 0
DWIDTH 4 0
BBX 5 8 0 -2
BITMAP
073500
000000
3AE300
60D400
1B8320
06D500
4AB000
5C5000
ENDCHAR
STARTCHAR uni04E2
ENCODING 1250
SWIDTH 705 0
DWIDTH 6 0
BBX 6 7 0 0
BITMAP
001883
18E28C
A5E2F8
87A9D5
0AB6F2
0DC4E0
1F47B0
ENDCHAR
STARTCHAR uni04E3
ENCODING 1251
SWIDTH 505 0
DWIDTH 4 0
BBX 5 5 0 0
BITMAP
088500
899800
C6C500
F4F320
D9D900
ENDCHAR
STARTCHAR uni04E4
ENCODING 1252
SWIDTH 705 0
DWIDTH 6 0
BBX 6 8 0 0
BITMAP
000852
000000
18E28C
A5E2F8
87A9D5
0AB6F2
0DC4E0
1F47B0
ENDCHAR
STARTCHAR uni04E5
ENCODING 1253
SWIDTH 505 0
DWIDTH 4 0
BBX 5 6 0 0
BITMAP
073500
000000
899800
C6C500
F4F320
D9D900
ENDCHAR
STARTCHAR uni04E6
ENCODING 1254
SWIDTH 665 0
DWIDTH 5 0
BBX 6 8 0 0
BITMAP
001671
000000
078890
96C0D3
8B70E3
0F32E0
2F1890
0BB900
ENDCHAR
STARTCHAR uni04E7
ENCODING 1255
SWIDTH 439 0
DWIDTH 4 0
BBX 6 6 -1 0
BITMAP
007350
000000
03BA00
0C5A61
1F2A00
0CB400
ENDCHAR
STARTCHAR uni04E8
ENCODING 1256
SWIDTH 665 0
DWIDTH 5 0
BBX 6 6 0 0
BITMAP
067890
77D1D3
BB90D3
2F86E0
2F1790
0BB900
ENDCHAR
STARTCHAR uni04E9
ENCODING 1257
SWIDTH 439 0
DWIDTH 4 0
BBX 6 4 -1 0
BITMAP
03BA00
0FBF61
1F2A00
0CB400
ENDCHAR
STARTCHAR uni04EE
ENCODING 1262
SWIDTH 644 0
DWIDTH 5 0
BBX 6 7 0 0
BITMAP
000884
17E517
A1B962
807C80
003F40
001B00
04D400
ENDCHAR
STARTCHAR uni04EF
ENCODING 1263
SWIDTH 486 0
DWIDTH 4 0
BBX 5 7 0 -2
BITMAP
088500
899800
C6C500
F4F310
DCF600
4AB000
6C4000
ENDCHAR
STARTCHAR uni04F0
ENCODING 1264
SWIDTH 644 0
DWIDTH 5 0
BBX 6 8 0 0
BITMAP
000844
000000
17E517
A1B962
807C80
003F40
001B00
04D400
ENDCHAR
STARTCHAR uni04F1
ENCODING 1265
SWIDTH 486 0
DWIDTH 4 0
BBX 5 8 0 -2
BITMAP
073500
000000
899800
C6C500
F4F310
DCF600
4AB000
6C4000
ENDCHAR
STARTCHAR uni04F2
ENCODING 1266
SWIDTH 644 0
DWIDTH 5 0
BBX 6 8 0 0
BITMAP
000469
000862
17E517
A1B962
807C80
003F40
001B00
04D400
ENDCHAR
STARTCHAR uni04F3
ENCODING 1267
SWIDTH 486 0
DWIDTH 4 0
BBX 5 8 0 -2
BITMAP
037900
085300
899800
C6C500
F4F310
DCF600
4AB000
6C4000
ENDCHAR
STARTCHAR uni04F4
ENCODING 1268
SWIDTH 695 0
DWIDTH 6 0
BBX 6 8 0 0
BITMAP
000853
000000
18E27A
A5E0A7
85C0D4
0188F1
0005D0
000890
ENDCHAR
STARTCHAR uni04F5
ENCODING 1269
SWIDTH 505 0
DWIDTH 4 0
BBX 5 6 0 0
BITMAP
084400
000000
899800
B7D500
6AF320
00D900
ENDCHAR
STARTCHAR uni04F6
ENCODING 1270
SWIDTH 442 0
DWIDTH 4 0
BBX 5 8 0 -2
BITMAP
38FCB0
C4E000
87A000
0A7000
0D4000
2F2000
04F300
001000
ENDCHAR
STARTCHAR uni04F7
ENCODING 1271
SWIDTH 375 0
DWIDTH 3 0
BBX 5 6 -1 -2
BITMAP
06D800
04B700
0C6210
1DA500
055000
045000
ENDCHAR
STARTCHAR uni04F8
ENCODING 1272
SWIDTH 909 0
DWIDTH 7 0
BBX 8 8 0 0
BITMAP
00017610
00000000
18E200B6
B5D000E3
57C943E0
0A75C6B0
0D46A980
1F7D3C50
ENDCHAR
STARTCHAR uni04F9
ENCODING 1273
SWIDTH 642 0
DWIDTH 5 0
BBX 6 6 0 0
BITMAP
026700
000000
870790
B9BA70
E2AC42
CB4AB1
ENDCHAR
STARTCHAR uni051A
ENCODING 1306
SWIDTH 665 0
DWIDTH 5 0
BBX 6 7 0 -1
BITMAP
179890
A6C0D3
5C60E3
0F23E1
2F7C80
0BCE00
000A90
ENDCHAR
STARTCHAR uni051B
ENCODING 1307
SWIDTH 486 0
DWIDTH 4 0
BBX 5 6 -1 -2
BITMAP
03BAB0
0C5A80
1F2D40
0DBF10
004D00
006800
ENDCHAR
STARTCHAR uni051C
ENCODING 1308
SWIDTH 962 0
DWIDTH 8 0
BBX 9 6 0 0
BITMAP
17E34E0710
A1F39E0800
80F3AF2500
00E76F6000
00EA2F6000
00E72F3000
ENDCHAR
STARTCHAR uni051D
ENCODING 1309
SWIDTH 661 0
DWIDTH 5 0
BBX 6 4 0 0
BITMAP
899891
C6C561
F4F290
D9DB20
ENDCHAR
STARTCHAR uni0524
ENCODING 1316
SWIDTH 742 0
DWIDTH 6 0
BBX 7 8 0 -2
BITMAP
39FAEC20
B4D0E300
77A2F000
0A75C000
0D499000
1F1C7000
0001D700
00001000
ENDCHAR
STARTCHAR uni0525
ENCODING 1317
SWIDTH 505 0
DWIDTH 4 0
BBX 6 6 -1 -2
BITMAP
08DD40
0C6C50
0E3E22
3E0DA0
000920
000620
ENDCHAR
STARTCHAR uni1E0C
ENCODING 7692
SWIDTH 663 0
DWIDTH 5 0
BBX 6 8 0 -2
BITMAP
288860
B5D0E1
77A0F2
0B63E0
0E3890
2FAC10
011000
069000
ENDCHAR
STARTCHAR uni1E0D
ENCODING 7693
SWIDTH 525 0
DWIDTH 4 0
BBX 6 8 -1 -2
BITMAP
000061
0003E0
03CAB0
0C5980
1F2D52
0DABA1
002000
03C000
ENDCHAR
STARTCHAR uni1E20
ENCODING 7712
SWIDTH 578 0
DWIDTH 5 0
BBX 5 10 0 -2
BITMAP
019940
000000
089840
7C0440
C70520
B71E20
3B9E00
187B00
659600
177000
ENDCHAR
STARTCHAR uni1E21
ENCODING 7713
SWIDTH 507 0
DWIDTH 4 0
BBX 6 8 -1 -2
BITMAP
007970
000000
03BAB0
0C5980
1F2D52
0DBF71
039D00
05C600
ENDCHAR
STARTCHAR uni1E24
ENCODING 7716
SWIDTH 665 0
DWIDTH 5 0
BBX 6 8 0 -2
BITMAP
17E2B7
A5D0E3
67DAF1
0A76C0
0D4990
2F1C60
002000
03C000
ENDCHAR
STARTCHAR uni1E25
ENCODING 7717
SWIDTH 505 0
DWIDTH 4 0
BBX 6 8 -1 -2
BITMAP
017000
05C000
08DD40
0B6C50
0E3E22
3E0CA1
002000
04B000
ENDCHAR
STARTCHAR uni1E2A
ENCODING 7722
SWIDTH 665 0
DWIDTH 5 0
BBX 6 8 0 -2
BITMAP
17E2B7
A5D0E3
67DAF1
0A76C0
0D4990
2F1C60
030300
067300
ENDCHAR
STARTCHAR uni1E2B
ENCODING 7723
SWIDTH 505 0
DWIDTH 4 0
BBX 6 8 -1 -2
BITMAP
017000
05C000
08DD40
0B6C50
0E3E22
3E0CA1
030300
077200
ENDCHAR
STARTCHAR uni1E36
ENCODING 7734
SWIDTH 379 0
DWIDTH 3 0
BBX 6 8 0 -2
BITMAP
18E100
B5D000
789000
0B6000
0E3000
3F2000
04B721
5A08E1
ENDCHAR
STARTCHAR uni1E37
ENCODING 7735
SWIDTH 293 0
DWIDTH 2 0
BBX 3 7 0 -2
BITMAP
1F20
4D00
8A00
B700
A930
2000
D100
ENDCHAR
STARTCHAR uni1E42
ENCODING 7746
SWIDTH 787 0
DWIDTH 6 0
BBX 7 8 0 -2
BITMAP
05BA0E60
47CA5F30
36E9AF10
08ABAE00
099E7C00
459A7A00
00200000
00C30000
ENDCHAR
STARTCHAR uni1E43
ENCODING 7747
SWIDTH 752 0
DWIDTH 6 0
BBX 8 6 -1 -2
BITMAP
08DD9D40
0C6C6C50
0E3F2F22
3E3E0D90
00110000
00690000
ENDCHAR
STARTCHAR uni1E44
ENCODING 7748
SWIDTH 668 0
DWIDTH 5 0
BBX 6 8 0 0
BITMAP
0004B0
000020
2AF32A
B5F656
98CA83
0B5DB0
0C1FB0
290C80
ENDCHAR
STARTCHAR uni1E45
ENCODING 7749
SWIDTH 505 0
DWIDTH 4 0
BBX 6 6 -1 0
BITMAP
001D00
000200
08DD40
0C6C50
0E3E22
3E0CA1
ENDCHAR
STARTCHAR uni1E46
ENCODING 7750
SWIDTH 668 0
DWIDTH 5 0
BBX 6 8 0 -2
BITMAP
2AF32A
B5F656
98CA83
0B5DB0
0C1FB0
290C80
002000
02D000
ENDCHAR
STARTCHAR uni1E47
ENCODING 7751
SWIDTH 505 0
DWIDTH 4 0
BBX 6 6 -1 -2
BITMAP
08DD40
0C6C50
0E3E22
3E0CA1
002000
03C000
ENDCHAR
STARTCHAR uni1E5A
ENCODING 7770
SWIDTH 601 0
DWIDTH 5 0
BBX 5 8 0 -2
BITMAP
179850
B5D580
58BD20
0B6C50
0E3E20
2F2E10
002000
03B000
ENDCHAR
STARTCHAR uni1E5B
ENCODING 7771
SWIDTH 376 0
DWIDTH 3 0
BBX 4 6 -1 -2
BITMAP
08CD
0C61
0E20
3E00
0200
4B00
ENDCHAR
STARTCHAR uni1E60
ENCODING 7776
SWIDTH 570 0
DWIDTH 5 0
BBX 5 8 0 0
BITMAP
003C00
000200
05A930
0B7630
05E300
278D00
A52F10
5AA600
ENDCHAR
STARTCHAR uni1E61
ENCODING 7777
SWIDTH 382 0
DWIDTH 3 0
BBX 5 6 -1 0
BITMAP
007700
002200
01E600
05C700
18A910
1AC400
ENDCHAR
STARTCHAR uni1E62
ENCODING 7778
SWIDTH 570 0
DWIDTH 5 0
BBX 5 8 0 -2
BITMAP
05A930
0B7630
05E300
278D00
A52F10
5AA600
020000
0D2000
ENDCHAR
STARTCHAR uni1E63
ENCODING 7779
SWIDTH 382 0
DWIDTH 3 0
BBX 5 6 -1 -2
BITMAP
00A400
05D600
18A700
29D710
020000
0D2000
ENDCHAR
STARTCHAR uni1E6C
ENCODING 7788
SWIDTH 481 0
DWIDTH 4 0
BBX 6 8 0 -2
BITMAP
3ADDC6
C1C500
70F200
03E000
06B000
0A8000
020000
0C3000
ENDCHAR
STARTCHAR uni1E6D
ENCODING 7789
SWIDTH 267 0
DWIDTH 2 0
BBX 4 8 -1 -2
BITMAP
0020
05C0
0AA1
0C60
0F32
0DA1
0200
4B00
ENDCHAR
STARTCHAR Wgrave
ENCODING 7808
SWIDTH 962 0
DWIDTH 8 0
BBX 9 8 0 0
BITMAP
0000380000
0000050000
17E34E0710
A1F39E0800
80F3AF2500
00E76F6000
00EA2F6000
00E72F3000
ENDCHAR
STARTCHAR wgrave
ENCODING 7809
SWIDTH 661 0
DWIDTH 5 0
BBX 6 6 0 0
BITMAP
00B000
004100
899891
C6C561
F4F290
D9DB20
ENDCHAR
STARTCHAR Wacute
ENCODING 7810
SWIDTH 962 0
DWIDTH 8 0
BBX 9 8 0 0
BITMAP
0000057000
0000050000
17E34E0710
A1F39E0800
80F3AF2500
00E76F6000
00EA2F6000
00E72F3000
ENDCHAR
STARTCHAR wacute
ENCODING 7811
SWIDTH 661 0
DWIDTH 5 0
BBX 6 6 0 0
BITMAP
000B10
002500
899891
C6C561
F4F290
D9DB20
ENDCHAR
STARTCHAR Wdieresis
ENCODING 7812
SWIDTH 962 0
DWIDTH 8 0
BBX 9 7 0 0
BITMAP
0000848000
17E34E0710
A1F39E0800
80F3AF2500
00E76F6000
00EA2F6000
00E72F3000
ENDCHAR
STARTCHAR wdieresis
ENCODING 7813
SWIDTH 661 0
DWIDTH 5 0
BBX 6 6 0 0
BITMAP
028910
000000
899891
C6C561
F4F290
D9DB20
ENDCHAR
STARTCHAR uni1E8E
ENCODING 7822
SWIDTH 620 0
DWIDTH 5 0
BBX 6 8 0 0
BITMAP
0005A0
000010
17E425
A1C870
808C60
005F10
007C00
00A900
ENDCHAR
STARTCHAR uni1E8F
ENCODING 7823
SWIDTH 505 0
DWIDTH 4 0
BBX 5 8 0 -2
BITMAP
03C000
002000
899800
C6C500
F4F310
DCF600
4AB000
6C4000
ENDCHAR
STARTCHAR uni1E92
ENCODING 7826
SWIDTH 542 0
DWIDTH 4 0
BBX 5 10 0 -2
BITMAP
000420
000A00
3A9F30
12AA00
02F300
0AA000
2F2300
AD8A00
020000
0C3000
ENDCHAR
STARTCHAR uni1E93
ENCODING 7827
SWIDTH 428 0
DWIDTH 3 0
BBX 4 6 0 -2
BITMAP
69F2
1980
2E20
BCB0
1100
8700
ENDCHAR
STARTCHAR uni1E97
ENCODING 7831
SWIDTH 267 0
DWIDTH 2 0
BBX 3 6 0 0
BITMAP
6590
4A00
AA10
C600
F320
DA10
ENDCHAR
STARTCHAR uni1E9E
ENCODING 7838
SWIDTH 559 0
DWIDTH 4 0
BBX 6 8 -1 -2
BITMAP
0079D8
01F4E1
05CA80
0995C0
0C53E0
0E7B60
3E0000
580000
ENDCHAR
STARTCHAR uni1EA0
ENCODING 7840
SWIDTH 668 0
DWIDTH 5 0
BBX 6 8 0 -2
BITMAP
0004C6
0055E4
59C6F1
8865C0
0D1890
3C0C60
3A1100
008700
ENDCHAR
STARTCHAR uni1EA1
ENCODING 7841
SWIDTH 526 0
DWIDTH 4 0
BBX 6 6 -1 -2
BITMAP
03CAB0
0C5980
1F2D52
0DABA1
002000
03C000
ENDCHAR
STARTCHAR uni1EA2
ENCODING 7842
SWIDTH 668 0
DWIDTH 5 0
BBX 6 9 0 -1
BITMAP
000036
000045
0004C6
0055E4
59C6F1
8865C0
0D1890
4B0C60
390000
ENDCHAR
STARTCHAR uni1EA3
ENCODING 7843
SWIDTH 526 0
DWIDTH 4 0
BBX 6 6 -1 0
BITMAP
000570
000520
03CAB0
0C5980
1F2D52
0DABA1
ENDCHAR
STARTCHAR uni1EA4
ENCODING 7844
SWIDTH 668 0
DWIDTH 5 0
BBX 7 9 0 -1
BITMAP
00001460
00004300
0004C600
0055E400
59C6F100
8865C000
0D189000
4B0C6000
39000000
ENDCHAR
STARTCHAR uni1EA5
ENCODING 7845
SWIDTH 526 0
DWIDTH 4 0
BBX 6 7 -1 0
BITMAP
000027
000850
002120
03CAB0
0C5980
1F2D52
0DABA1
ENDCHAR
STARTCHAR uni1EA6
ENCODING 7846
SWIDTH 668 0
DWIDTH 5 0
BBX 7 9 0 -1
BITMAP
00001550
00004310
0004C600
0055E400
59C6F100
8865C000
0D189000
4B0C6000
39000000
ENDCHAR
STARTCHAR uni1EA7
ENCODING 7847
SWIDTH 526 0
DWIDTH 4 0
BBX 6 8 -1 0
BITMAP
000010
000062
001641
000000
03CAB0
0C5980
1F2D52
0DABA1
ENDCHAR
STARTCHAR uni1EA8
ENCODING 7848
SWIDTH 668 0
DWIDTH 5 0
BBX 7 9 0 -1
BITMAP
00001340
00002200
0004C600
0055E400
59C6F100
8865C000
0D189000
4B0C6000
39000000
ENDCHAR
STARTCHAR uni1EA9
ENCODING 7849
SWIDTH 526 0
DWIDTH 4 0
BBX 6 7 -1 0
BITMAP
000023
000861
002120
03CAB0
0C5980
1F2D52
0DABA1
ENDCHAR
STARTCHAR uni1EAA
ENCODING 7850
SWIDTH 668 0
DWIDTH 5 0
BBX 6 9 0 -1
BITMAP
000049
000043
0004C6
0055E4
59C6F1
8865C0
0D1890
4B0C60
390000
ENDCHAR
STARTCHAR uni1EAB
ENCODING 7851
SWIDTH 526 0
DWIDTH 4 0
BBX 6 7 -1 0
BITMAP
000560
000830
002120
03CAB0
0C5980
1F2D52
0DABA1
ENDCHAR
STARTCHAR uni1EAC
ENCODING 7852
SWIDTH 668 0
DWIDTH 5 0
BBX 6 10 0 -2
BITMAP
000004
000079
0004C6
0055E4
59C6F1
8865C0
0D1890
3C0C60
3A1100
008700
ENDCHAR
STARTCHAR uni1EAD
ENCODING 7853
SWIDTH 526 0
DWIDTH 4 0
BBX 6 8 -1 -2
BITMAP
000940
003230
03CAB0
0C5980
1F2D52
0DABA1
002000
03C000
ENDCHAR
STARTCHAR uni1EAE
ENCODING 7854
SWIDTH 668 0
DWIDTH 5 0
BBX 7 9 0 -1
BITMAP
00002910
00006610
0004C600
0055E400
59C6F100
8865C000
0D189000
4B0C6000
39000000
ENDCHAR
STARTCHAR uni1EAF
ENCODING 7855
SWIDTH 526 0
DWIDTH 4 0
BBX 6 7 -1 0
BITMAP
000230
009390
003730
03CAB0
0C5980
1F2D52
0DABA1
ENDCHAR
STARTCHAR uni1EB0
ENCODING 7856
SWIDTH 668 0
DWIDTH 5 0
BBX 7 9 0 -1
BITMAP
00005610
00006710
0004C600
0055E400
59C6F100
8865C000
0D189000
4B0C6000
39000000
ENDCHAR
STARTCHAR uni1EB1
ENCODING 7857
SWIDTH 526 0
DWIDTH 4 0
BBX 6 7 -1 0
BITMAP
000800
009290
003730
03CAB0
0C5980
1F2D52
0DABA1
ENDCHAR
STARTCHAR uni1EB2
ENCODING 7858
SWIDTH 668 0
DWIDTH 5 0
BBX 7 9 0 -1
BITMAP
00004420
00006610
0004C600
0055E400
59C6F100
8865C000
0D189000
4B0C6000
39000000
ENDCHAR
STARTCHAR uni1EB3
ENCODING 7859
SWIDTH 526 0
DWIDTH 4 0
BBX 6 7 -1 0
BITMAP
000420
009490
003730
03CAB0
0C5980
1F2D52
0DABA1
ENDCHAR
STARTCHAR uni1EB4
ENCODING 7860
SWIDTH 668 0
DWIDTH 5 0
BBX 7 9 0 -1
BITMAP
00006510
00006610
0004C600
0055E400
59C6F100
8865C000
0D189000
4B0C6000
39000000
ENDCHAR
STARTCHAR uni1EB5
ENCODING 7861
SWIDTH 526 0
DWIDTH 4 0
BBX 6 7 -1 0
BITMAP
000650
008190
002730
03CAB0
0C5980
1F2D52
0DABA1
ENDCHAR
STARTCHAR uni1EB6
ENCODING 7862
SWIDTH 668 0
DWIDTH 5 0
BBX 7 10 0 -2
BITMAP
00023130
00018710
0004C600
0055E400
59C6F100
8865C000
0D189000
3C0C6000
3A110000
00870000
ENDCHAR
STARTCHAR uni1EB7
ENCODING 7863
SWIDTH 526 0
DWIDTH 4 0
BBX 6 8 -1 -2
BITMAP
00A0A0
004730
03CAB0
0C5980
1F2D52
0DABA1
002000
03C000
ENDCHAR
STARTCHAR uni1EB8
ENCODING 7864
SWIDTH 459 0
DWIDTH 4 0
BBX 4 8 0 -2
BITMAP
0599
0D27
0B70
8C00
D803
8E92
0200
4B00
ENDCHAR
STARTCHAR uni1EB9
ENCODING 7865
SWIDTH 384 0
DWIDTH 3 0
BBX 5 6 -1 -2
BITMAP
03B900
0C6900
1F6110
0CB600
020000
0A5000
ENDCHAR
STARTCHAR uni1EBA
ENCODING 7866
SWIDTH 459 0
DWIDTH 4 0
BBX 4 8 0 0
BITMAP
0037
0035
0599
0D27
0B70
8C00
D803
8E92
ENDCHAR
STARTCHAR uni1EBB
ENCODING 7867
SWIDTH 384 0
DWIDTH 3 0
BBX 5 6 -1 0
BITMAP
003900
002500
03B900
0C6900
1F6110
0CB600
ENDCHAR
STARTCHAR uni1EBC
ENCODING 7868
SWIDTH 459 0
DWIDTH 4 0
BBX 5 8 0 0
BITMAP
005510
002720
059900
0D2700
0B7000
8C0000
D80300
8E9200
ENDCHAR
STARTCHAR uni1EBD
ENCODING 7869
SWIDTH 384 0
DWIDTH 3 0
BBX 5 6 -1 0
BITMAP
03EC30
001400
03B900
0C6900
1F6110
0CB600
ENDCHAR
STARTCHAR uni1EBE
ENCODING 7870
SWIDTH 459 0
DWIDTH 4 0
BBX 5 8 0 0
BITMAP
001460
003300
059900
0D2700
0B7000
8C0000
D80300
8E9200
ENDCHAR
STARTCHAR uni1EBF
ENCODING 7871
SWIDTH 384 0
DWIDTH 3 0
BBX 6 7 -1 0
BITMAP
000073
002A20
003200
03B900
0C6900
1F6110
0CB600
ENDCHAR
STARTCHAR uni1EC0
ENCODING 7872
SWIDTH 459 0
DWIDTH 4 0
BBX 5 8 0 0
BITMAP
001560
004410
059900
0D2700
0B7000
8C0000
D80300
8E9200
ENDCHAR
STARTCHAR uni1EC1
ENCODING 7873
SWIDTH 384 0
DWIDTH 3 0
BBX 5 8 -1 0
BITMAP
000010
000080
003820
000000
03B900
0C6900
1F6110
0CB600
ENDCHAR
STARTCHAR uni1EC2
ENCODING 7874
SWIDTH 459 0
DWIDTH 4 0
BBX 5 8 0 0
BITMAP
001250
002200
059900
0D2700
0B7000
8C0000
D80300
8E9200
ENDCHAR
STARTCHAR uni1EC3
ENCODING 7875
SWIDTH 384 0
DWIDTH 3 0
BBX 5 7 -1 0
BITMAP
000060
002940
003200
03B900
0C6900
1F6110
0CB600
ENDCHAR
STARTCHAR uni1EC4
ENCODING 7876
SWIDTH 459 0
DWIDTH 4 0
BBX 5 8 0 0
BITMAP
004C20
004300
059900
0D2700
0B7000
8C0000
D80300
8E9200
ENDCHAR
STARTCHAR uni1EC5
ENCODING 7877
SWIDTH 384 0
DWIDTH 3 0
BBX 5 7 -1 0
BITMAP
001730
002A00
003200
03B900
0C6900
1F6110
0CB600
ENDCHAR
STARTCHAR uni1EC6
ENCODING 7878
SWIDTH 459 0
DWIDTH 4 0
BBX 4 10 0 -2
BITMAP
0004
0178
0599
0D27
0B70
8C00
D803
8E92
0200
4B00
ENDCHAR
STARTCHAR uni1EC7
ENCODING 7879
SWIDTH 384 0
DWIDTH 3 0
BBX 5 8 -1 -2
BITMAP
002B00
005310
03B900
0C6900
1F6110
0CB600
020000
0A5000
ENDCHAR
STARTCHAR uni1EC8
ENCODING 7880
SWIDTH 375 0
DWIDTH 3 0
BBX 4 8 0 0
BITMAP
0055
0053
18E1
A5D0
88A0
0B70
0E30
2F00
ENDCHAR
STARTCHAR uni1EC9
ENCODING 7881
SWIDTH 267 0
DWIDTH 2 0
BBX 3 6 0 0
BITMAP
2820
0700
8900
C600
F320
DA10
ENDCHAR
STARTCHAR uni1ECA
ENCODING 7882
SWIDTH 375 0
DWIDTH 3 0
BBX 4 8 0 -2
BITMAP
18E1
A5D0
88A0
0B70
0E30
2F00
1100
6900
ENDCHAR
STARTCHAR uni1ECB
ENCODING 7883
SWIDTH 267 0
DWIDTH 2 0
BBX 4 8 -1 -2
BITMAP
03C0
0020
0890
0C60
0F32
0DA1
0200
4B00
ENDCHAR
STARTCHAR uni1ECC
ENCODING 7884
SWIDTH 665 0
DWIDTH 5 0
BBX 6 8 0 -2
BITMAP
078890
96C0D3
8B70E3
0F32E0
2F1890
0BB900
011000
069000
ENDCHAR
STARTCHAR uni1ECD
ENCODING 7885
SWIDTH 433 0
DWIDTH 3 0
BBX 6 6 -1 -2
BITMAP
04BA00
0D5B61
1F1A00
0CB300
020000
0A5000
ENDCHAR
STARTCHAR uni1ECE
ENCODING 7886
SWIDTH 665 0
DWIDTH 5 0
BBX 6 8 0 0
BITMAP
000550
000530
078890
96C0D3
8B70E3
0F32E0
2F1890
0BB900
ENDCHAR
STARTCHAR uni1ECF
ENCODING 7887
SWIDTH 433 0
DWIDTH 3 0
BBX 6 6 -1 0
BITMAP
002920
000700
04BA00
0D5B61
1F1A00
0CB300
ENDCHAR
STARTCHAR uni1ED0
ENCODING 7888
SWIDTH 665 0
DWIDTH 5 0
BBX 6 8 0 0
BITMAP
000253
001330
078890
96C0D3
8B70E3
0F32E0
2F1890
0BB900
ENDCHAR
STARTCHAR uni1ED1
ENCODING 7889
SWIDTH 433 0
DWIDTH 3 0
BBX 6 7 -1 0
BITMAP
000073
002A20
003200
04BA00
0D5B61
1F1A00
0CB300
ENDCHAR
STARTCHAR uni1ED2
ENCODING 7890
SWIDTH 665 0
DWIDTH 5 0
BBX 6 8 0 0
BITMAP
000371
001430
078890
96C0D3
8B70E3
0F32E0
2F1890
0BB900
ENDCHAR
STARTCHAR uni1ED3
ENCODING 7891
SWIDTH 433 0
DWIDTH 3 0
BBX 6 8 -1 0
BITMAP
000010
000080
003820
000000
04BA00
0D5B61
1F1A00
0CB300
ENDCHAR
STARTCHAR uni1ED4
ENCODING 7892
SWIDTH 665 0
DWIDTH 5 0
BBX 6 8 0 0
BITMAP
000142
001120
078890
96C0D3
8B70E3
0F32E0
2F1890
0BB900
ENDCHAR
STARTCHAR uni1ED5
ENCODING 7893
SWIDTH 433 0
DWIDTH 3 0
BBX 6 7 -1 0
BITMAP
000060
002930
003200
04BA00
0D5B61
1F1A00
0CB300
ENDCHAR
STARTCHAR uni1ED6
ENCODING 7894
SWIDTH 665 0
DWIDTH 5 0
BBX 6 8 0 0
BITMAP
000950
001330
078890
96C0D3
8B70E3
0F32E0
2F1890
0BB900
ENDCHAR
STARTCHAR uni1ED7
ENCODING 7895
SWIDTH 433 0
DWIDTH 3 0
BBX 6 7 -1 0
BITMAP
001A40
002A00
003200
04BA00
0D5B61
1F1A00
0CB300
ENDCHAR
STARTCHAR uni1ED8
ENCODING 7896
SWIDTH 665 0
DWIDTH 5 0
BBX 6 10 0 -2
BITMAP
000310
004850
078890
96C0D3
8B70E3
0F32E0
2F1890
0BB900
011000
069000
ENDCHAR
STARTCHAR uni1ED9
ENCODING 7897
SWIDTH 433 0
DWIDTH 3 0
BBX 6 8 -1 -2
BITMAP
003A00
005300
04BA00
0D5B61
1F1A00
0CB300
020000
0A5000
ENDCHAR
STARTCHAR uni1EDA
ENCODING 7898
SWIDTH 665 0
DWIDTH 5 0
BBX 6 8 0 0
BITMAP
000560
00050A
0788C4
96C0D3
8B70E3
0F32F1
2F1890
0BB910
ENDCHAR
STARTCHAR uni1EDB
ENCODING 7899
SWIDTH 439 0
DWIDTH 4 0
BBX 5 6 -1 0
BITMAP
000A20
001590
03BA40
0D5910
1F2B00
0CC300
ENDCHAR
STARTCHAR uni1EDC
ENCODING 7900
SWIDTH 665 0
DWIDTH 5 0
BBX 6 8 0 0
BITMAP
006500
00130A
0788C4
96C0D3
8B70E3
0F32F1
2F1890
0BB910
ENDCHAR
STARTCHAR uni1EDD
ENCODING 7901
SWIDTH 439 0
DWIDTH 4 0
BBX 5 6 -1 0
BITMAP
006510
001390
03BA40
0D5910
1F2B00
0CC300
ENDCHAR
STARTCHAR uni1EDE
ENCODING 7902
SWIDTH 665 0
DWIDTH 5 0
BBX 6 8 0 0
BITMAP
000550
000538
0788C4
96C0D3
8B70E3
0F32F1
2F1890
0BB910
ENDCHAR
STARTCHAR uni1EDF
ENCODING 7903
SWIDTH 439 0
DWIDTH 4 0
BBX 5 6 -1 0
BITMAP
002920
000780
03BA40
0D5910
1F2B00
0CC300
ENDCHAR
STARTCHAR uni1EE0
ENCODING 7904
SWIDTH 665 0
DWIDTH 5 0
BBX 6 8 0 0
BITMAP
004510
00162A
0788C4
96C0D3
8B70E3
0F32F1
2F1890
0BB910
ENDCHAR
STARTCHAR uni1EE1
ENCODING 7905
SWIDTH 439 0
DWIDTH 4 0
BBX 5 6 -1 0
BITMAP
02D850
002290
03BA40
0D5910
1F2B00
0CC300
ENDCHAR
STARTCHAR uni1EE2
ENCODING 7906
SWIDTH 665 0
DWIDTH 5 0
BBX 6 9 0 -2
BITMAP
00000A
0788C4
96C0D3
8B70E3
0F32F1
2F1890
0BB910
011000
069000
ENDCHAR
STARTCHAR uni1EE3
ENCODING 7907
SWIDTH 439 0
DWIDTH 4 0
BBX 5 7 -1 -2
BITMAP
000090
03BA40
0D5910
1F2B00
0CC300
020000
0A5000
ENDCHAR
STARTCHAR uni1EE4
ENCODING 7908
SWIDTH 716 0
DWIDTH 6 0
BBX 6 8 0 -2
BITMAP
27E43E
B2E06B
76B098
0970D4
0B53E0
07DC40
002000
01D000
ENDCHAR
STARTCHAR uni1EE5
ENCODING 7909
SWIDTH 505 0
DWIDTH 4 0
BBX 5 6 0 -2
BITMAP
899800
C6C500
F4F320
D9D900
020000
4B0000
ENDCHAR
STARTCHAR uni1EE6
ENCODING 7910
SWIDTH 716 0
DWIDTH 6 0
BBX 6 8 0 0
BITMAP
000171
000081
27E43E
B2E06B
76B098
0970D4
0B53E0
07DC40
ENDCHAR
STARTCHAR uni1EE7
ENCODING 7911
SWIDTH 505 0
DWIDTH 4 0
BBX 5 6 0 0
BITMAP
039000
026000
899800
C6C500
F4F320
D9D900
ENDCHAR
STARTCHAR uni1EE8
ENCODING 7912
SWIDTH 716 0
DWIDTH 6 0
BBX 7 8 0 0
BITMAP
00008350
000050A0
27E43E10
B2E06B00
76B09800
0970D400
0B53E000
07DC4000
ENDCHAR
STARTCHAR uni1EE9
ENCODING 7913
SWIDTH 505 0
DWIDTH 4 0
BBX 5 6 0 0
BITMAP
009410
005630
899900
C6C500
F4F320
D9D900
ENDCHAR
STARTCHAR uni1EEA
ENCODING 7914
SWIDTH 716 0
DWIDTH 6 0
BBX 7 8 0 0
BITMAP
00092040
000320A0
27E43E10
B2E06B00
76B09800
0970D400
0B53E000
07DC4000
ENDCHAR
STARTCHAR uni1EEB
ENCODING 7915
SWIDTH 505 0
DWIDTH 4 0
BBX 5 6 0 0
BITMAP
056110
014630
899900
C6C500
F4F320
D9D900
ENDCHAR
STARTCHAR uni1EEC
ENCODING 7916
SWIDTH 716 0
DWIDTH 6 0
BBX 7 8 0 0
BITMAP
00016120
000081B0
27E43E30
B2E06B00
76B09800
0970D400
0B53E000
07DC4000
ENDCHAR
STARTCHAR uni1EED
ENCODING 7917
SWIDTH 505 0
DWIDTH 4 0
BBX 5 6 0 0
BITMAP
039000
026540
899B00
C6C600
F4F320
D9D900
ENDCHAR
STARTCHAR uni1EEE
ENCODING 7918
SWIDTH 716 0
DWIDTH 6 0
BBX 7 8 0 0
BITMAP
00055150
000173A0
27E43E10
B2E06B00
76B09800
0970D400
0B53E000
07DC4000
ENDCHAR
STARTCHAR uni1EEF
ENCODING 7919
SWIDTH 505 0
DWIDTH 4 0
BBX 5 6 0 0
BITMAP
0A8330
002520
899800
C6C500
F4F320
D9D900
ENDCHAR
STARTCHAR uni1EF0
ENCODING 7920
SWIDTH 716 0
DWIDTH 6 0
BBX 7 9 0 -2
BITMAP
000000B0
27E43F50
B2E06C00
76B09800
0970D500
0B53E100
07DC5000
00200000
01D00000
ENDCHAR
STARTCHAR uni1EF1
ENCODING 7921
SWIDTH 505 0
DWIDTH 4 0
BBX 5 7 0 -2
BITMAP
000540
899B00
C6C600
F4F320
D9D900
020000
4B0000
ENDCHAR
STARTCHAR Ygrave
ENCODING 7922
SWIDTH 620 0
DWIDTH 5 0
BBX 6 8 0 0
BITMAP
000740
000230
17E425
A1C870
808C60
005F10
007C00
00A900
ENDCHAR
STARTCHAR ygrave
ENCODING 7923
SWIDTH 505 0
DWIDTH 4 0
BBX 5 8 0 -2
BITMAP
066000
014000
899800
C6C500
F4F310
DCF600
4AB000
6C4000
ENDCHAR
STARTCHAR uni1EF4
ENCODING 7924
SWIDTH 620 0
DWIDTH 5 0
BBX 6 8 0 -2
BITMAP
17E425
A1C870
808C60
005F10
007C00
00A900
002000
00C200
ENDCHAR
STARTCHAR uni1EF5
ENCODING 7925
SWIDTH 505 0
DWIDTH 4 0
BBX 5 6 0 -2
BITMAP
899800
C6C500
F4F310
DCF600
4AB000
6C6A00
ENDCHAR
STARTCHAR uni1EF6
ENCODING 7926
SWIDTH 620 0
DWIDTH 5 0
BBX 6 8 0 0
BITMAP
000171
000081
17E425
A1C870
808C60
005F10
007C00
00A900
ENDCHAR
STARTCHAR uni1EF7
ENCODING 7927
SWIDTH 505 0
DWIDTH 4 0
BBX 5 8 0 -2
BITMAP
039000
026000
899800
C6C500
F4F310
DCF600
4AB000
6C4000
ENDCHAR
STARTCHAR uni1EF8
ENCODING 7928
SWIDTH 620 0
DWIDTH 5 0
BBX 6 8 0 0
BITMAP
000641
000371
17E425
A1C870
808C60
005F10
007C00
00A900
ENDCHAR
STARTCHAR uni1EF9
ENCODING 7929
SWIDTH 505 0
DWIDTH 4 0
BBX 5 8 0 -2
BITMAP
1BD600
003000
899800
C6C500
F4F310
DCF600
4AB000
6C4000
ENDCHAR
STARTCHAR uni2010
ENCODING 8208
SWIDTH 290 0
DWIDTH 2 0
BBX 2 1 0 2
BITMAP
78
ENDCHAR
STARTCHAR endash
ENCODING 8211
SWIDTH 352 0
DWIDTH 3 0
BBX 3 1 0 2
BITMAP
7930
ENDCHAR
STARTCHAR emdash
ENCODING 8212
SWIDTH 444 0
DWIDTH 4 0
BBX 3 1 0 2
BITMAP
7990
ENDCHAR
STARTCHAR quoteleft
ENCODING 8216
SWIDTH 209 0
DWIDTH 2 0
BBX 2 2 0 4
BITMAP
05
2B
ENDCHAR
STARTCHAR quoteright
ENCODING 8217
SWIDTH 238 0
DWIDTH 2 0
BBX 2 2 0 4
BITMAP
2B
14
ENDCHAR
STARTCHAR quotesinglbase
ENCODING 8218
SWIDTH 220 0
DWIDTH 2 0
BBX 1 2 0 -1
BITMAP
D0
50
ENDCHAR
STARTCHAR quotedblleft
ENCODING 8220
SWIDTH 429 0
DWIDTH 3 0
BBX 4 2 0 4
BITMAP
0532
2B94
ENDCHAR
STARTCHAR quotedblright
ENCODING 8221
SWIDTH 426 0
DWIDTH 3 0
BBX 4 2 0 4
BITMAP
1C76
0532
ENDCHAR
STARTCHAR quotedblbase
ENCODING 8222
SWIDTH 440 0
DWIDTH 4 0
BBX 3 2 0 -1
BITMAP
D670
5320
ENDCHAR
STARTCHAR dagger
ENCODING 8224
SWIDTH 495 0
DWIDTH 4 0
BBX 4 8 0 -2
BITMAP
0090
0090
0080
5EE8
0620
0900
0900
2700
ENDCHAR
STARTCHAR daggerdbl
ENCODING 8225
SWIDTH 495 0
DWIDTH 4 0
BBX 4 8 0 -2
BITMAP
0090
0090
0080
5EE8
9ED3
0900
0900
2600
ENDCHAR
STARTCHAR bullet
ENCODING 8226
SWIDTH 434 0
DWIDTH 3 0
BBX 2 2 1 1
BITMAP
52
D5
ENDCHAR
STARTCHAR ellipsis
ENCODING 8230
SWIDTH 702 0
DWIDTH 6 0
BBX 6 2 0 0
BITMAP
112020
96B4B3
ENDCHAR
STARTCHAR perthousand
ENCODING 8240
SWIDTH 1175 0
DWIDTH 9 0
BBX 10 6 0 0
BITMAP
1890810000
75B2600000
8398000000
3755892893
0092985973
0532A82A80
ENDCHAR
STARTCHAR minute
ENCODING 8242
SWIDTH 196 0
DWIDTH 2 0
BBX 2 2 0 4
BITMAP
1A
44
ENDCHAR
STARTCHAR second
ENCODING 8243
SWIDTH 341 0
DWIDTH 3 0
BBX 3 2 0 4
BITMAP
1AB0
4660
ENDCHAR
STARTCHAR guilsinglleft
ENCODING 8249
SWIDTH 359 0
DWIDTH 3 0
BBX 3 4 0 0
BITMAP
0130
5600
4710
0110
ENDCHAR
STARTCHAR guilsinglright
ENCODING 8250
SWIDTH 344 0
DWIDTH 3 0
BBX 3 4 0 0
BITMAP
3100
0640
3630
2000
ENDCHAR
STARTCHAR fraction
ENCODING 8260
SWIDTH 248 0
DWIDTH 2 0
BBX 4 6 -1 0
BITMAP
0009
0054
0080
0630
1800
7200
ENDCHAR
STARTCHAR uni2052
ENCODING 8274
SWIDTH 796 0
DWIDTH 6 0
BBX 5 6 1 0
BITMAP
A40810
212600
008000
045000
080200
530D10
ENDCHAR
STARTCHAR uni2070
ENCODING 8304
SWIDTH 379 0
DWIDTH 3 0
BBX 3 4 0 2
BITMAP
1890
75B0
8390
3710
ENDCHAR
STARTCHAR uni2074
ENCODING 8308
SWIDTH 352 0
DWIDTH 3 0
BBX 3 3 0 3
BITMAP
1980
4960
0720
ENDCHAR
STARTCHAR uni2075
ENCODING 8309
SWIDTH 335 0
DWIDTH 3 0
BBX 3 5 0 2
BITMAP
0110
1940
3830
7570
3510
ENDCHAR
STARTCHAR uni2076
ENCODING 8310
SWIDTH 351 0
DWIDTH 3 0
BBX 3 4 0 2
BITMAP
1860
7940
8480
3710
ENDCHAR
STARTCHAR uni2077
ENCODING 8311
SWIDTH 329 0
DWIDTH 3 0
BBX 3 4 0 2
BITMAP
5C50
0700
6500
4200
ENDCHAR
STARTCHAR uni2078
ENCODING 8312
SWIDTH 354 0
DWIDTH 3 0
BBX 3 4 0 2
BITMAP
1960
0D50
7580
3620
ENDCHAR
STARTCHAR uni2079
ENCODING 8313
SWIDTH 345 0
DWIDTH 3 0
BBX 3 4 0 2
BITMAP
4760
46A0
1460
4500
ENDCHAR
STARTCHAR uni2080
ENCODING 8320
SWIDTH 379 0
DWIDTH 3 0
BBX 3 3 0 0
BITMAP
28A0
84B0
6850
ENDCHAR
STARTCHAR uni2081
ENCODING 8321
SWIDTH 229 0
DWIDTH 2 0
BBX 2 3 0 0
BITMAP
48
46
82
ENDCHAR
STARTCHAR uni2082
ENCODING 8322
SWIDTH 328 0
DWIDTH 3 0
BBX 3 3 0 0
BITMAP
3860
0720
6A30
ENDCHAR
STARTCHAR uni2083
ENCODING 8323
SWIDTH 336 0
DWIDTH 3 0
BBX 3 3 0 0
BITMAP
1860
3740
6740
ENDCHAR
STARTCHAR uni2084
ENCODING 8324
SWIDTH 352 0
DWIDTH 3 0
BBX 3 3 0 0
BITMAP
1980
4960
0820
ENDCHAR
STARTCHAR uni2085
ENCODING 8325
SWIDTH 335 0
DWIDTH 3 0
BBX 3 4 0 0
BITMAP
0010
1940
5530
5740
ENDCHAR
STARTCHAR uni2086
ENCODING 8326
SWIDTH 351 0
DWIDTH 3 0
BBX 3 3 0 0
BITMAP
2860
8840
6750
ENDCHAR
STARTCHAR uni2087
ENCODING 8327
SWIDTH 329 0
DWIDTH 3 0
BBX 3 3 0 0
BITMAP
4B40
1700
6400
ENDCHAR
STARTCHAR uni2088
ENCODING 8328
SWIDTH 354 0
DWIDTH 3 0
BBX 3 3 0 0
BITMAP
1970
2B50
6760
ENDCHAR
STARTCHAR uni2089
ENCODING 8329
SWIDTH 345 0
DWIDTH 3 0
BBX 3 3 0 0
BITMAP
4770
4690
5720
ENDCHAR
STARTCHAR colonmonetary
ENCODING 8353
SWIDTH 384 0
DWIDTH 3 0
BBX 4 6 0 0
BITMAP
0580
3DA2
B421
D110
7D60
5500
ENDCHAR
STARTCHAR franc
ENCODING 8355
SWIDTH 529 0
DWIDTH 4 0
BBX 5 6 0 0
BITMAP
03FA50
05C000
08D700
0B6000
5F8100
3E0000
ENDCHAR
STARTCHAR lira
ENCODING 8356
SWIDTH 455 0
DWIDTH 4 0
BBX 5 6 0 0
BITMAP
02BB10
097500
4E8200
5F6100
4B0100
ADDA00
ENDCHAR
STARTCHAR uni20A6
ENCODING 8358
SWIDTH 723 0
DWIDTH 6 0
BBX 7 6 0 0
BITMAP
01F32A00
05F76600
4BCCB710
5D8ED600
0B1FA000
380C8000
ENDCHAR
STARTCHAR uni20A9
ENCODING 8361
SWIDTH 841 0
DWIDTH 7 0
BBX 8 6 0 0
BITMAP
0E43F162
0D48F170
4E9AF882
5EB8FA61
0CB0F700
0C70F400
ENDCHAR
STARTCHAR Euro
ENCODING 8364
SWIDTH 507 0
DWIDTH 4 0
BBX 5 6 0 0
BITMAP
01AB80
0A8370
4F8500
7F6400
2F3100
09E900
ENDCHAR
STARTCHAR uni20AE
ENCODING 8366
SWIDTH 481 0
DWIDTH 4 0
BBX 6 6 0 0
BITMAP
3ADDC6
C1C500
70F830
39F720
5AB000
0A8000
ENDCHAR
STARTCHAR uni20B3
ENCODING 8371
SWIDTH 573 0
DWIDTH 5 0
BBX 5 6 0 0
BITMAP
178840
B5D3A0
88A770
2DA600
3E8200
2F1000
ENDCHAR
STARTCHAR uni20B4
ENCODING 8372
SWIDTH 570 0
DWIDTH 5 0
BBX 5 6 0 0
BITMAP
076D20
162D10
37D620
5C8610
882A00
6C8900
ENDCHAR
STARTCHAR uni20B8
ENCODING 8376
SWIDTH 522 0
DWIDTH 4 0
BBX 6 6 0 0
BITMAP
266666
19BCC8
C39700
70D400
02F100
05C000
ENDCHAR
STARTCHAR uni20B9
ENCODING 8377
SWIDTH 544 0
DWIDTH 4 0
BBX 5 7 0 0
BITMAP
17A740
26BB30
009500
3AC000
00F200
03E000
029000
ENDCHAR
STARTCHAR uni20BA
ENCODING 8378
SWIDTH 455 0
DWIDTH 4 0
BBX 5 6 0 0
BITMAP
05C000
08C300
5DA400
4F3610
3E0A20
6E9400
ENDCHAR
STARTCHAR uni20BD
ENCODING 8381
SWIDTH 573 0
DWIDTH 5 0
BBX 5 6 0 0
BITMAP
178840
B5D3A0
88A770
3DA600
5E8000
2F0000
ENDCHAR
STARTCHAR uni2116
ENCODING 8470
SWIDTH 996 0
DWIDTH 8 0
BBX 8 6 0 0
BITMAP
1BF32A54
B6F758A6
B7CB9584
2A5EC595
0B1FC000
290C8000
ENDCHAR
STARTCHAR uni2120
ENCODING 8480
SWIDTH 585 0
DWIDTH 5 0
BBX 5 3 0 3
BITMAP
032420
085B30
153610
ENDCHAR
STARTCHAR trademark
ENCODING 8482
SWIDTH 379 0
DWIDTH 3 0
BBX 4 2 -1 3
BITMAP
1545
0578
ENDCHAR
STARTCHAR uni2126
ENCODING 8486
SWIDTH 745 0
DWIDTH 6 0
BBX 6 6 0 0
BITMAP
007AA1
095058
290028
370063
190270
7B2A91
ENDCHAR
STARTCHAR uni212A
ENCODING 8490
SWIDTH 601 0
DWIDTH 5 0
BBX 6 6 0 0
BITMAP
18E2A1
B5D810
58DA10
0B6C50
0E3E20
2F2E10
ENDCHAR
STARTCHAR uni212B
ENCODING 8491
SWIDTH 668 0
DWIDTH 5 0
BBX 6 9 0 -1
BITMAP
000024
000066
0007E6
0065E3
59C6E0
7865C0
1E1980
4B0A50
270000
ENDCHAR
STARTCHAR estimated
ENCODING 8494
SWIDTH 786 0
DWIDTH 6 0
BBX 6 6 0 0
BITMAP
037860
3D0089
AE779B
AD0000
3D0031
037750
ENDCHAR
STARTCHAR uni2153
ENCODING 8531
SWIDTH 733 0
DWIDTH 6 0
BBX 6 7 0 0
BITMAP
020000
590270
550810
723600
008078
044267
080476
ENDCHAR
STARTCHAR uni2154
ENCODING 8532
SWIDTH 852 0
DWIDTH 7 0
BBX 7 6 0 0
BITMAP
28602700
05208000
27235000
16390880
00542660
00804760
ENDCHAR
STARTCHAR oneeighth
ENCODING 8539
SWIDTH 741 0
DWIDTH 6 0
BBX 6 7 0 0
BITMAP
020000
590270
550810
723600
0080A7
0442B7
080577
ENDCHAR
STARTCHAR threeeighths
ENCODING 8540
SWIDTH 828 0
DWIDTH 7 0
BBX 7 6 0 0
BITMAP
18605300
07418000
75772000
36373850
00814C30
02608830
ENDCHAR
STARTCHAR fiveeighths
ENCODING 8541
SWIDTH 827 0
DWIDTH 7 0
BBX 7 7 0 0
BITMAP
01100000
19406300
38318000
75772000
35273850
00814C20
03608830
ENDCHAR
STARTCHAR seveneighths
ENCODING 8542
SWIDTH 761 0
DWIDTH 6 0
BBX 6 6 0 0
BITMAP
5C5080
070720
651700
428198
026199
080379
ENDCHAR
STARTCHAR partialdiff
ENCODING 8706
SWIDTH 597 0
DWIDTH 5 0
BBX 5 7 0 0
BITMAP
018A30
0012A0
0000A0
06A990
650540
921900
3A8100
ENDCHAR
STARTCHAR uni2206
ENCODING 8710
SWIDTH 619 0
DWIDTH 5 0
BBX 5 7 0 0
BITMAP
000200
003F20
00A850
056570
0A0390
7401C0
A999B0
ENDCHAR
STARTCHAR product
ENCODING 8719
SWIDTH 661 0
DWIDTH 5 0
BBX 6 7 0 -1
BITMAP
6B9BA1
0A0A00
180A00
452800
825400
A08100
303000
ENDCHAR
STARTCHAR summation
ENCODING 8721
SWIDTH 605 0
DWIDTH 5 0
BBX 5 6 0 0
BITMAP
08A990
057000
00B100
02A100
2A1000
8A9800
ENDCHAR
STARTCHAR minus
ENCODING 8722
SWIDTH 471 0
DWIDTH 4 0
BBX 4 1 0 2
BITMAP
6AA2
ENDCHAR
STARTCHAR uni2215
ENCODING 8725
SWIDTH 488 0
DWIDTH 4 0
BBX 4 6 0 0
BITMAP
0018
0072
0270
0810
3600
8000
ENDCHAR
STARTCHAR uni2219
ENCODING 8729
SWIDTH 434 0
DWIDTH 3 0
BBX 2 2 1 1
BITMAP
62
D5
ENDCHAR
STARTCHAR radical
ENCODING 8730
SWIDTH 660 0
DWIDTH 5 0
BBX 5 7 0 0
BITMAP
000990
002800
006300
009000
857000
3C2000
0A0000
ENDCHAR
STARTCHAR infinity
ENCODING 8734
SWIDTH 833 0
DWIDTH 7 0
BBX 6 3 0 1
BITMAP
188397
817B0A
594693
ENDCHAR
STARTCHAR integral
ENCODING 8747
SWIDTH 305 0
DWIDTH 2 0
BBX 4 8 -1 -2
BITMAP
0037
00A1
00A0
0280
0550
0920
0A00
5400
ENDCHAR
STARTCHAR approxequal
ENCODING 8776
SWIDTH 441 0
DWIDTH 4 0
BBX 4 3 0 1
BITMAP
4995
0000
7AA2
ENDCHAR
STARTCHAR notequal
ENCODING 8800
SWIDTH 500 0
DWIDTH 4 0
BBX 4 5 0 0
BITMAP
0060
4EE9
0510
9ED4
0300
ENDCHAR
STARTCHAR lessequal
ENCODING 8804
SWIDTH 405 0
DWIDTH 3 0
BBX 4 4 0 1
BITMAP
0591
5B10
0270
9A80
ENDCHAR
STARTCHAR greaterequal
ENCODING 8805
SWIDTH 405 0
DWIDTH 3 0
BBX 4 4 0 1
BITMAP
1A50
06B1
4400
8A90
ENDCHAR
STARTCHAR lozenge
ENCODING 9674
SWIDTH 619 0
DWIDTH 5 0
BBX 5 6 0 0
BITMAP
009900
074A10
470560
730740
294600
0A8000
ENDCHAR
STARTCHAR uni27E8
ENCODING 10216
SWIDTH 456 0
DWIDTH 4 0
BBX 4 8 0 -1
BITMAP
0015
0070
0620
3500
6200
0700
0250
0061
ENDCHAR
STARTCHAR uni27E9
ENCODING 10217
SWIDTH 456 0
DWIDTH 4 0
BBX 4 8 0 -1
BITMAP
5200
0700
0260
0061
0070
0620
3500
6000
ENDCHAR
STARTCHAR ff
ENCODING 64256
SWIDTH 508 0
DWIDTH 4 0
BBX 7 8 -2 -2
BITMAP
001CBCA0
005C6C10
009ABA20
00C6C500
00F3F200
03F6E000
59B7B000
7DAD4000
ENDCHAR
STARTCHAR fi
ENCODING 64257
SWIDTH 534 0
DWIDTH 4 0
BBX 7 8 -2 -2
BITMAP
000A8A00
005D1600
008B8B00
00B6A800
00E3D420
03F0BB20
49C00000
6D500000
ENDCHAR
STARTCHAR fl
ENCODING 64258
SWIDTH 548 0
DWIDTH 4 0
BBX 7 8 -2 -2
BITMAP
001C8A10
005C2F10
009B7D00
00C68900
00F3B620
03E09C30
49B00000
7D500000
ENDCHAR
STARTCHAR ffi
ENCODING 64259
SWIDTH 764 0
DWIDTH 6 0
BBX 9 8 -2 -2
BITMAP
001CAC8800
005C7A2500
009BD9B800
00C6E4C500
00F5F1F220
03F7C0DA10
49B9900000
7DAD300000
ENDCHAR
STARTCHAR ffl
ENCODING 64260
SWIDTH 780 0
DWIDTH 6 0
BBX 9 8 -2 -2
BITMAP
001C9C8A00
005C7A4E00
009BC98A00
00C6E4A700
00F5F1D420
03F7C0BB20
49B9900000
7DAD300000
ENDCHAR
STARTCHAR .notdef
ENCODING -1
SWIDTH 810 0
DWIDTH 6 0
BBX 7 11 0 -2
BITMAP
00655540
01300140
04000410
05262500
05665500
05070500
23122300
40415000
50005000
50005000
65553000
ENDCHAR
STARTCHAR A.salt
ENCODING -1
SWIDTH 590 0
DWIDTH 5 0
BBX 5 7 0 -1
BITMAP
0019C0
006990
077D60
290F30
853F00
C26C00
B10000
ENDCHAR
STARTCHAR B.salt
ENCODING -1
SWIDTH 633 0
DWIDTH 5 0
BBX 5 6 0 0
BITMAP
179840
B5D580
68BD40
0B67B0
0E3A80
2FBC10
ENDCHAR
STARTCHAR E.salt
ENCODING -1
SWIDTH 554 0
DWIDTH 4 0
BBX 5 6 0 0
BITMAP
49EC80
B5B000
38C600
0C5000
0E2000
3FC900
ENDCHAR
STARTCHAR N.salt
ENCODING -1
SWIDTH 669 0
DWIDTH 5 0
BBX 6 6 0 0
BITMAP
18EBD0
B7D0F2
89A3E0
0C66A0
1F3A72
4F08C3
ENDCHAR
STARTCHAR i.loclTRK
ENCODING -1
SWIDTH 267 0
DWIDTH 2 0
BBX 3 6 0 0
BITMAP
3C00
0200
8900
C600
F320
DA10
ENDCHAR
STARTCHAR a.end
ENCODING -1
SWIDTH 467 0
DWIDTH 4 0
BBX 5 4 -1 0
BITMAP
03BAB0
0C5980
1F2D50
0DAB70
ENDCHAR
STARTCHAR aacute.end
ENCODING -1
SWIDTH 461 0
DWIDTH 4 0
BBX 5 6 -1 0
BITMAP
000840
000500
03BBA0
0D4A70
1F1E40
1DAB60
ENDCHAR
STARTCHAR c.end
ENCODING -1
SWIDTH 341 0
DWIDTH 3 0
BBX 4 4 -1 0
BITMAP
04B9
0D42
1F10
1DB3
ENDCHAR
STARTCHAR d.end
ENCODING -1
SWIDTH 476 0
DWIDTH 4 0
BBX 6 6 -1 0
BITMAP
000061
0003E0
03BAB0
0C5A80
1F2D40
0DAC70
ENDCHAR
STARTCHAR e.end
ENCODING -1
SWIDTH 366 0
DWIDTH 3 0
BBX 4 4 -1 0
BITMAP
04B9
0D69
1F71
0CB2
ENDCHAR
STARTCHAR eacute.end
ENCODING -1
SWIDTH 367 0
DWIDTH 3 0
BBX 5 6 -1 0
BITMAP
000B10
002400
03B900
0C7A00
1F8100
0CB200
ENDCHAR
STARTCHAR uni0292.end
ENCODING -1
SWIDTH 391 0
DWIDTH 3 0
BBX 3 6 0 -2
BITMAP
9AC0
2D30
5D10
0C50
5D60
AC10
ENDCHAR
STARTCHAR g.end
ENCODING -1
SWIDTH 480 0
DWIDTH 4 0
BBX 5 6 -1 -2
BITMAP
03BAB0
0C5980
1F2D50
0DBF10
048D00
05C600
ENDCHAR
STARTCHAR uni01E5.end
ENCODING -1
SWIDTH 507 0
DWIDTH 4 0
BBX 5 6 -1 -2
BITMAP
03BAB0
0C5970
1F2D40
0DCF10
08BD20
04D500
ENDCHAR
STARTCHAR h.end
ENCODING -1
SWIDTH 453 0
DWIDTH 4 0
BBX 5 6 -1 0
BITMAP
017000
05C000
08DD40
0C6C50
0F3E20
3E0D50
ENDCHAR
STARTCHAR i.end
ENCODING -1
SWIDTH 209 0
DWIDTH 2 0
BBX 2 6 0 0
BITMAP
3C
02
89
C6
F3
D5
ENDCHAR
STARTCHAR iacute.end
ENCODING -1
SWIDTH 209 0
DWIDTH 2 0
BBX 3 6 0 0
BITMAP
0920
0500
8900
C600
F300
D500
ENDCHAR
STARTCHAR ij.end
ENCODING -1
SWIDTH 480 0
DWIDTH 4 0
BBX 4 8 0 -2
BITMAP
3C1E
0202
896B
C698
F3D5
D6F1
38D0
5C60
ENDCHAR
STARTCHAR j.end
ENCODING -1
SWIDTH 213 0
DWIDTH 2 0
BBX 4 8 -2 -2
BITMAP
003C
0002
0089
00C6
00E3
03E0
49B0
7D50
ENDCHAR
STARTCHAR k.end
ENCODING -1
SWIDTH 472 0
DWIDTH 4 0
BBX 5 6 -1 0
BITMAP
017000
05C000
089730
0BDD20
0E3E40
3E0C70
ENDCHAR
STARTCHAR l.end
ENCODING -1
SWIDTH 207 0
DWIDTH 2 0
BBX 2 6 0 0
BITMAP
17
5C
99
C5
F2
D5
ENDCHAR
STARTCHAR m.end
ENCODING -1
SWIDTH 701 0
DWIDTH 6 0
BBX 7 4 -1 0
BITMAP
08DD9D40
0C6C6C50
0E3F2F20
3E3E0D40
ENDCHAR
STARTCHAR n.end
ENCODING -1
SWIDTH 454 0
DWIDTH 4 0
BBX 5 4 -1 0
BITMAP
08DD40
0C6C50
0E3E20
3E0D50
ENDCHAR
STARTCHAR o.end
ENCODING -1
SWIDTH 487 0
DWIDTH 4 0
BBX 5 4 -1 0
BITMAP
04BA20
0D5A30
1F2B00
0CB400
ENDCHAR
STARTCHAR oacute.end
ENCODING -1
SWIDTH 487 0
DWIDTH 4 0
BBX 5 6 -1 0
BITMAP
000A10
001500
03BA20
0C5A30
1F2A00
0CB400
ENDCHAR
STARTCHAR s.end
ENCODING -1
SWIDTH 316 0
DWIDTH 3 0
BBX 4 5 -1 0
BITMAP
0011
01E6
05C7
18A7
19C3
ENDCHAR
STARTCHAR t.end
ENCODING -1
SWIDTH 276 0
DWIDTH 2 0
BBX 3 6 0 0
BITMAP
0200
5D00
9B10
B600
E300
D500
ENDCHAR
STARTCHAR u.end
ENCODING -1
SWIDTH 459 0
DWIDTH 4 0
BBX 4 4 0 0
BITMAP
8998
C6C5
F4F2
D9D5
ENDCHAR
STARTCHAR uacute.end
ENCODING -1
SWIDTH 459 0
DWIDTH 4 0
BBX 4 6 0 0
BITMAP
00A1
0140
8998
C6C5
F4F2
D9D5
ENDCHAR
STARTCHAR x.end
ENCODING -1
SWIDTH 500 0
DWIDTH 4 0
BBX 4 4 0 0
BITMAP
2B89
54E6
36F1
53C7
ENDCHAR
STARTCHAR y.end
ENCODING -1
SWIDTH 460 0
DWIDTH 4 0
BBX 4 6 0 -2
BITMAP
8999
C6C6
F4F2
DCE0
59B0
7D40
ENDCHAR
STARTCHAR k.salt
ENCODING -1
SWIDTH 518 0
DWIDTH 4 0
BBX 6 6 -1 0
BITMAP
016000
05C000
08A860
0BDC20
0E3E42
3E0CB1
ENDCHAR
STARTCHAR p.salt
ENCODING -1
SWIDTH 482 0
DWIDTH 4 0
BBX 6 7 -1 -2
BITMAP
035000
09DD30
0C6781
1F6C61
3E9900
7B0000
860000
ENDCHAR
STARTCHAR E_x
ENCODING -1
SWIDTH 797 0
DWIDTH 6 0
BBX 7 6 0 0
BITMAP
06990000
0D242820
2C64D620
AA01F600
D803F330
8D869C20
ENDCHAR
STARTCHAR F_i
ENCODING -1
SWIDTH 726 0
DWIDTH 6 0
BBX 6 6 0 0
BITMAP
39FDF9
B3E010
66D6D4
0982F1
0C55D2
1F23E6
ENDCHAR
STARTCHAR T_h
ENCODING -1
SWIDTH 971 0
DWIDTH 8 0
BBX 8 6 0 0
BITMAP
3ADDBA00
B1C68800
80F2BBD1
03E0E3F1
06B3E4D2
0A86B3D7
ENDCHAR
STARTCHAR T_i
ENCODING -1
SWIDTH 744 0
DWIDTH 6 0
BBX 7 6 0 0
BITMAP
39CEFC00
B0C52100
80F2B600
03E0E300
06B3F110
0A82E800
ENDCHAR
STARTCHAR a_x
ENCODING -1
SWIDTH 899 0
DWIDTH 7 0
BBX 9 5 -1 0
BITMAP
0000000400
03BAB89900
0C5985D600
1F2D55F020
0DAAC6CA10
ENDCHAR
STARTCHAR a_z
ENCODING -1
SWIDTH 906 0
DWIDTH 7 0
BBX 9 4 -1 0
BITMAP
03BAB8AE10
0C5981B600
1F2D55C200
0DAB7DBA00
ENDCHAR
STARTCHAR b_s
ENCODING -1
SWIDTH 799 0
DWIDTH 6 0
BBX 7 6 0 0
BITMAP
17000000
5C001200
8CC3BB00
C6976C00
F2C67D30
CC56C800
ENDCHAR
STARTCHAR b_s_x
ENCODING -1
SWIDTH 1144 0
DWIDTH 9 0
BBX 10 6 0 0
BITMAP
3D00000000
6B00340090
99A59B8970
C5946C5D50
F2C67D7E02
CC56C81CA1
ENDCHAR
STARTCHAR b_s_z
ENCODING -1
SWIDTH 1158 0
DWIDTH 9 0
BBX 10 6 0 0
BITMAP
1700000000
5C00120000
8CC3BB8AE1
C6976C1B60
F2C77C4C30
CC56C8DCA0
ENDCHAR
STARTCHAR c_x
ENCODING -1
SWIDTH 755 0
DWIDTH 6 0
BBX 8 5 -1 0
BITMAP
00000030
04B9A790
0D427B50
2F108D12
0CB83D90
ENDCHAR
STARTCHAR c_z
ENCODING -1
SWIDTH 769 0
DWIDTH 6 0
BBX 7 4 -1 0
BITMAP
04B97BD0
0D423D40
1F106A20
1DB3EB90
ENDCHAR
STARTCHAR e_x
ENCODING -1
SWIDTH 762 0
DWIDTH 6 0
BBX 8 5 -1 0
BITMAP
00000030
03B998A0
0C797B60
1F616E01
0BB84DA1
ENDCHAR
STARTCHAR e_z
ENCODING -1
SWIDTH 788 0
DWIDTH 6 0
BBX 8 4 -1 0
BITMAP
04C97AE1
0D693A60
2F714C10
1DB3CCA0
ENDCHAR
STARTCHAR eacute_x
ENCODING -1
SWIDTH 760 0
DWIDTH 6 0
BBX 8 6 -1 0
BITMAP
000A2000
00150030
04B998A0
0D697B60
1F616E01
0CB84DA1
ENDCHAR
STARTCHAR f_f_t
ENCODING -1
SWIDTH 780 0
DWIDTH 6 0
BBX 9 8 -2 -2
BITMAP
001C9C8A00
005C7A4E00
009BC9AB10
00C6E4A700
00F5F1D420
03F7C0BB20
49B9900000
7DAD300000
ENDCHAR
STARTCHAR f_i_x
ENCODING -1
SWIDTH 898 0
DWIDTH 7 0
BBX 10 8 -2 -2
BITMAP
000A8A0000
005D160040
008B8B8990
00B6A85D60
00E3D45F02
03F0BB4CA1
49C0000000
6D50000000
ENDCHAR
STARTCHAR f_i_z
ENCODING -1
SWIDTH 904 0
DWIDTH 7 0
BBX 10 8 -2 -2
BITMAP
000A8A0000
005D160000
008B8B89D1
00B6A81B50
00E3D45B20
03F0B8DB90
49C0000000
6D50000000
ENDCHAR
STARTCHAR f_l_x
ENCODING -1
SWIDTH 912 0
DWIDTH 7 0
BBX 10 8 -2 -2
BITMAP
001C8A1000
005C2F1040
009B7D6B82
00C6893E60
00F3B63F22
03E09C5AB2
49B0000000
7D50000000
ENDCHAR
STARTCHAR f_l_z
ENCODING -1
SWIDTH 938 0
DWIDTH 8 0
BBX 10 8 -2 -2
BITMAP
001C8A1000
005C2F1000
009B7D59F3
00C6891890
00F3B62E30
03E099ADB1
49B0000000
7D50000000
ENDCHAR
STARTCHAR f_t
ENCODING -1
SWIDTH 548 0
DWIDTH 4 0
BBX 7 8 -2 -2
BITMAP
001C8A10
005C2F10
009B8D20
00C68900
00F3B620
03E09C30
49B00000
7D500000
ENDCHAR
STARTCHAR f_u
ENCODING -1
SWIDTH 772 0
DWIDTH 6 0
BBX 9 8 -2 -2
BITMAP
001CA00000
005C100000
008A9B7B00
00C6A8A700
00E2D5E420
03E0BABB10
49B0000000
6D50000000
ENDCHAR
STARTCHAR f_x
ENCODING -1
SWIDTH 663 0
DWIDTH 5 0
BBX 8 8 -2 -2
BITMAP
001CA000
005C1040
008B9B72
00C63E60
00E36F22
03E38AB2
48B00000
6D500000
ENDCHAR
STARTCHAR g_p
ENCODING -1
SWIDTH 975 0
DWIDTH 8 0
BBX 9 6 -1 -2
BITMAP
03BAB7CB60
0C598A6880
1F2D5E3C60
0DBF8FBB00
039D6C0000
05C6870000
ENDCHAR
STARTCHAR g_x
ENCODING -1
SWIDTH 892 0
DWIDTH 7 0
BBX 9 7 -1 -2
BITMAP
0000000400
03BAB88900
0C5986C500
1F2D56E020
0DBF74CA10
039D000000
05C6000000
ENDCHAR
STARTCHAR g_z
ENCODING -1
SWIDTH 907 0
DWIDTH 7 0
BBX 9 6 -1 -2
BITMAP
03BAB8AE10
0C5A81B600
1F2D54C200
0DCF2DBA00
048D000000
05C6000000
ENDCHAR
STARTCHAR i_x
ENCODING -1
SWIDTH 631 0
DWIDTH 5 0
BBX 6 6 0 0
BITMAP
3C0000
020090
89A770
C67D30
F37D12
DA3D90
ENDCHAR
STARTCHAR i_z
ENCODING -1
SWIDTH 637 0
DWIDTH 5 0
BBX 5 6 0 0
BITMAP
3C0000
020000
899AC0
C61D30
F37A20
D7EB80
ENDCHAR
STARTCHAR iacute_x
ENCODING -1
SWIDTH 631 0
DWIDTH 5 0
BBX 6 6 0 0
BITMAP
092000
000090
89A770
C67D30
F37D12
DA3D90
ENDCHAR
STARTCHAR iacute_z
ENCODING -1
SWIDTH 637 0
DWIDTH 5 0
BBX 5 6 0 0
BITMAP
092000
050000
899AC0
C61D30
F37A20
D7EB80
ENDCHAR
STARTCHAR j_x
ENCODING -1
SWIDTH 624 0
DWIDTH 5 0
BBX 8 8 -2 -2
BITMAP
004C0000
00020000
0089B790
00C68950
00F27D11
03F64D90
3AB00000
6C500000
ENDCHAR
STARTCHAR j_z
ENCODING -1
SWIDTH 618 0
DWIDTH 5 0
BBX 7 8 -2 -2
BITMAP
003C0000
00020000
008AACA0
00B62E20
00E39810
02F3FA60
49C00000
6D500000
ENDCHAR
STARTCHAR l_x
ENCODING -1
SWIDTH 631 0
DWIDTH 5 0
BBX 6 6 0 0
BITMAP
3D0000
6B0090
98A770
C57D30
F27D12
DA3D90
ENDCHAR
STARTCHAR l_z
ENCODING -1
SWIDTH 635 0
DWIDTH 5 0
BBX 5 6 0 0
BITMAP
170000
5C0000
999AC0
C51D30
F27920
D7EB80
ENDCHAR
STARTCHAR m_x
ENCODING -1
SWIDTH 1124 0
DWIDTH 9 0
BBX 11 4 -1 0
BITMAP
08CD8D4B7800
0C6C6C58B500
0E3F2F28C110
3E3E0D94D800
ENDCHAR
STARTCHAR m_z
ENCODING -1
SWIDTH 1125 0
DWIDTH 9 0
BBX 10 4 -1 0
BITMAP
08DD9D4ABB
0C6C6C52E2
0E3F2F2981
3E3E0D7FA7
ENDCHAR
STARTCHAR n_z
ENCODING -1
SWIDTH 882 0
DWIDTH 7 0
BBX 8 4 -1 0
BITMAP
08DD49BC
0C6C52D3
0E3E2892
3E0D7FA8
ENDCHAR
STARTCHAR o_ae
ENCODING -1
SWIDTH 1089 0
DWIDTH 9 0
BBX 10 4 -1 0
BITMAP
03BA369CB7
0C5A29AF55
1F2A7A9D41
0CB45D8D83
ENDCHAR
STARTCHAR o_s
ENCODING -1
SWIDTH 786 0
DWIDTH 6 0
BBX 8 5 -1 0
BITMAP
00000010
04BA2C90
0D5A48A0
1F2B78C2
0CB47C70
ENDCHAR
STARTCHAR o_s_x
ENCODING -1
SWIDTH 1132 0
DWIDTH 9 0
BBX 11 5 -1 0
BITMAP
000000100300
03BA2C9A7900
0C5A58A7C400
1F2B78C8D120
0CC47C71D900
ENDCHAR
STARTCHAR o_s_z
ENCODING -1
SWIDTH 1139 0
DWIDTH 9 0
BBX 10 5 -1 0
BITMAP
0000001000
04BA2C99BC
0D5A48A1C4
1F2B78B7A2
0CB47C7EB8
ENDCHAR
STARTCHAR o_x
ENCODING -1
SWIDTH 851 0
DWIDTH 7 0
BBX 8 5 -1 0
BITMAP
00000012
03BA2F58
0C5A5BA2
1F2A3B92
0CA494E7
ENDCHAR
STARTCHAR oacute_s
ENCODING -1
SWIDTH 787 0
DWIDTH 6 0
BBX 8 6 -1 0
BITMAP
000A1000
00150010
03BA2C90
0C5A58A0
1F2B78C2
0CB47C70
ENDCHAR
STARTCHAR oacute_s_x
ENCODING -1
SWIDTH 1141 0
DWIDTH 9 0
BBX 10 6 -1 0
BITMAP
000A100000
0015001000
03BA2C99BC
0C5A58A1C4
1F2B78B6A2
0CC47C7EB8
ENDCHAR
STARTCHAR oacute_s_z
ENCODING -1
SWIDTH 1140 0
DWIDTH 9 0
BBX 10 6 -1 0
BITMAP
000A100000
0015001000
03BA2C99BC
0C5A58A1C4
1F2B78B6A2
0CB47C7EB8
ENDCHAR
STARTCHAR oacute_x
ENCODING -1
SWIDTH 852 0
DWIDTH 7 0
BBX 8 6 -1 0
BITMAP
000A1000
00150012
03BA1E58
0C5A6BA2
1F2A3B92
0CA494E7
ENDCHAR
STARTCHAR r_x
ENCODING -1
SWIDTH 784 0
DWIDTH 6 0
BBX 8 5 -1 0
BITMAP
00000091
08BC8971
0C514D50
0E207F12
3E037AB2
ENDCHAR
STARTCHAR r_z
ENCODING -1
SWIDTH 654 0
DWIDTH 5 0
BBX 7 4 -1 0
BITMAP
08CDAD10
0C61B500
0E25C200
3E1DB900
ENDCHAR
STARTCHAR s_x
ENCODING -1
SWIDTH 727 0
DWIDTH 6 0
BBX 7 5 -1 0
BITMAP
00520270
02E6D470
05B7AB10
28A9BA30
1AC53E60
ENDCHAR
STARTCHAR s_z
ENCODING -1
SWIDTH 744 0
DWIDTH 6 0
BBX 7 5 -1 0
BITMAP
00210000
01F6ACA0
06B72E20
18A79720
19C5FA60
ENDCHAR
STARTCHAR t_x
ENCODING -1
SWIDTH 631 0
DWIDTH 5 0
BBX 6 6 0 0
BITMAP
020000
5C0040
ABB790
C67C50
E37D12
DA4D90
ENDCHAR
STARTCHAR t_z
ENCODING -1
SWIDTH 704 0
DWIDTH 6 0
BBX 6 6 0 0
BITMAP
020000
5D0000
9B49E5
B606B0
E31D41
D58EB2
ENDCHAR
STARTCHAR u_v
ENCODING -1
SWIDTH 923 0
DWIDTH 7 0
BBX 8 4 0 0
BITMAP
89989A82
C6C5B661
F4F2E380
DCE0DB30
ENDCHAR
STARTCHAR u_x
ENCODING -1
SWIDTH 878 0
DWIDTH 7 0
BBX 8 5 0 0
BITMAP
00000090
8998A770
C6C57D30
F4F28D12
D9CB5D90
ENDCHAR
STARTCHAR y_p
ENCODING -1
SWIDTH 954 0
DWIDTH 8 0
BBX 8 6 0 -2
BITMAP
89989BD4
C6C5D4B6
F4F3F1E3
DCF9EB80
4BB89000
6C4A5000
ENDCHAR
STARTCHAR y_x
ENCODING -1
SWIDTH 871 0
DWIDTH 7 0
BBX 8 6 0 -2
BITMAP
8998B690
C6C59950
F4F28C11
DCF64D90
4AB00000
6C400000
ENDCHAR
STARTCHAR y_z
ENCODING -1
SWIDTH 888 0
DWIDTH 7 0
BBX 7 6 0 -2
BITMAP
89999AC0
C6C61D30
F4F27A20
DCE1EB80
59B00000
7D400000
ENDCHAR
STARTCHAR a_x.end
ENCODING -1
SWIDTH 884 0
DWIDTH 7 0
BBX 8 5 -1 0
BITMAP
00000004
03BAB899
0C5985D6
1F2D55F0
0DAAC6C7
ENDCHAR
STARTCHAR b_s.end
ENCODING -1
SWIDTH 731 0
DWIDTH 6 0
BBX 6 6 0 0
BITMAP
170000
5C0012
8CC3BB
C6976C
F2C67C
CC56C7
ENDCHAR
STARTCHAR e_x.end
ENCODING -1
SWIDTH 747 0
DWIDTH 6 0
BBX 7 5 -1 0
BITMAP
00000030
03B998A0
0C7A7B70
1F815E00
0BB84D50
ENDCHAR
STARTCHAR f_u.end
ENCODING -1
SWIDTH 724 0
DWIDTH 6 0
BBX 8 8 -2 -2
BITMAP
001CA000
005C1000
008A9B7B
00C6A8A7
00E2D5E4
03E0BBB7
49B00000
6D500000
ENDCHAR
STARTCHAR fi.end
ENCODING -1
SWIDTH 479 0
DWIDTH 4 0
BBX 6 8 -2 -2
BITMAP
000A8A
005D16
008B8B
00B6A8
00E3D4
03F0B7
49C000
6D5000
ENDCHAR
STARTCHAR fl.end
ENCODING -1
SWIDTH 490 0
DWIDTH 4 0
BBX 7 8 -2 -2
BITMAP
001C8A10
005C2F10
009B7D00
00C68900
00F3B600
03E09900
49B00000
7D500000
ENDCHAR
STARTCHAR i_x.end
ENCODING -1
SWIDTH 616 0
DWIDTH 5 0
BBX 5 6 0 0
BITMAP
3C0000
020090
89A770
C67D30
F37D00
DA3D50
ENDCHAR
STARTCHAR o_s.end
ENCODING -1
SWIDTH 718 0
DWIDTH 6 0
BBX 7 5 -1 0
BITMAP
00000010
04BA2C90
0D5A48A0
1F2B78B0
0CB47C60
ENDCHAR
STARTCHAR oacute_s.end
ENCODING -1
SWIDTH 719 0
DWIDTH 6 0
BBX 7 6 -1 0
BITMAP
000A1000
00150010
03BA2C90
0C5A58A0
1F2B78B0
0CB47C60
ENDCHAR
STARTCHAR u_x.end
ENCODING -1
SWIDTH 863 0
DWIDTH 7 0
BBX 7 4 0 0
BITMAP
8998A7A0
C6C58A60
F4F26D00
D9CA5D40
ENDCHAR
STARTCHAR uni0424.loclBGR
ENCODING -1
SWIDTH 840 0
DWIDTH 7 0
BBX 7 8 0 -1
BITMAP
03576000
071A8000
187E8B20
981F1780
C44D0880
A67A1D20
18CA7200
00830000
ENDCHAR
STARTCHAR uni0492.loclBSH
ENCODING -1
SWIDTH 459 0
DWIDTH 4 0
BBX 5 6 0 0
BITMAP
39EC80
B5C000
68C600
0C5000
0E2000
3E0000
ENDCHAR
STARTCHAR uni04AA.loclCHU
ENCODING -1
SWIDTH 497 0
DWIDTH 4 0
BBX 5 8 0 -2
BITMAP
06A820
3E1520
9A0000
C80000
CB3710
6EC300
027000
055000
ENDCHAR
STARTCHAR uni0418.loclSRB
ENCODING -1
SWIDTH 705 0
DWIDTH 6 0
BBX 6 6 0 0
BITMAP
17E26C
A5E1D8
87BAE5
0AE5F2
0D74E0
1F17B0
ENDCHAR
STARTCHAR uni0419.loclSRB
ENCODING -1
SWIDTH 705 0
DWIDTH 6 0
BBX 6 8 0 0
BITMAP
001513
001860
17E26C
A5E1D8
87BAE5
0AE5F2
0D74E0
1F17B0
ENDCHAR
STARTCHAR uni0430.end
ENCODING -1
SWIDTH 467 0
DWIDTH 4 0
BBX 5 4 -1 0
BITMAP
03BAB0
0C5980
1F2D50
0DAB70
ENDCHAR
STARTCHAR uni0432.end
ENCODING -1
SWIDTH 406 0
DWIDTH 3 0
BBX 5 6 -1 0
BITMAP
007B20
03C530
0A7700
0E7C00
1F2A10
0BC600
ENDCHAR
STARTCHAR uni0434.end
ENCODING -1
SWIDTH 480 0
DWIDTH 4 0
BBX 5 6 -1 -2
BITMAP
03BAB0
0C5980
1F2D50
0DBF10
048D00
05C600
ENDCHAR
STARTCHAR uni0435.end
ENCODING -1
SWIDTH 366 0
DWIDTH 3 0
BBX 4 4 -1 0
BITMAP
04B9
0D69
1F71
0CB2
ENDCHAR
STARTCHAR uni0451.end
ENCODING -1
SWIDTH 366 0
DWIDTH 3 0
BBX 5 6 -1 0
BITMAP
00A730
000000
04B900
0D6900
1F7100
0CB200
ENDCHAR
STARTCHAR uni0436.end
ENCODING -1
SWIDTH 848 0
DWIDTH 7 0
BBX 8 4 -1 0
BITMAP
07C5D5BA
018BFC72
13A7CA50
2A8796B5
ENDCHAR
STARTCHAR uni0437.end
ENCODING -1
SWIDTH 426 0
DWIDTH 3 0
BBX 4 6 0 -2
BITMAP
3BE3
60D4
1B80
07C0
58B0
6D40
ENDCHAR
STARTCHAR uni0438.end
ENCODING -1
SWIDTH 459 0
DWIDTH 4 0
BBX 4 4 0 0
BITMAP
8998
C6C5
F4F2
D9D5
ENDCHAR
STARTCHAR uni0439.end
ENCODING -1
SWIDTH 459 0
DWIDTH 4 0
BBX 4 6 0 0
BITMAP
0603
0772
8998
C6C5
F4F2
D9D5
ENDCHAR
STARTCHAR uni043A.end
ENCODING -1
SWIDTH 501 0
DWIDTH 4 0
BBX 5 4 -1 0
BITMAP
0896A0
0CD900
0E4F10
3E0D50
ENDCHAR
STARTCHAR uni043B.end
ENCODING -1
SWIDTH 511 0
DWIDTH 4 0
BBX 5 4 -1 0
BITMAP
002BE0
0076C0
148880
2A56B0
ENDCHAR
STARTCHAR uni043C.end
ENCODING -1
SWIDTH 780 0
DWIDTH 6 0
BBX 8 4 -1 0
BITMAP
002D55F2
00695AE0
1468B9A0
2957B4C1
ENDCHAR
STARTCHAR uni043D.end
ENCODING -1
SWIDTH 460 0
DWIDTH 4 0
BBX 5 4 -1 0
BITMAP
089890
0CAD50
0E2F20
3E0D50
ENDCHAR
STARTCHAR uni043E.end
ENCODING -1
SWIDTH 439 0
DWIDTH 4 0
BBX 5 4 -1 0
BITMAP
03BA00
0C5910
1F2B00
0CB500
ENDCHAR
STARTCHAR uni043F.end
ENCODING -1
SWIDTH 454 0
DWIDTH 4 0
BBX 5 4 -1 0
BITMAP
08DD40
0C6C50
0E3E20
3E0D50
ENDCHAR
STARTCHAR uni0441.end
ENCODING -1
SWIDTH 341 0
DWIDTH 3 0
BBX 4 4 -1 0
BITMAP
04B9
0D42
1F10
1DB3
ENDCHAR
STARTCHAR uni0442.end
ENCODING -1
SWIDTH 701 0
DWIDTH 6 0
BBX 7 4 -1 0
BITMAP
08DD9D40
0C6C6C50
0E3F2F20
3E3E0D40
ENDCHAR
STARTCHAR uni0443.end
ENCODING -1
SWIDTH 460 0
DWIDTH 4 0
BBX 4 6 0 -2
BITMAP
8999
C6C6
F4F2
DCE0
59B0
7D40
ENDCHAR
STARTCHAR uni0445.end
ENCODING -1
SWIDTH 500 0
DWIDTH 4 0
BBX 4 4 0 0
BITMAP
2B89
54E6
36F1
53C7
ENDCHAR
STARTCHAR uni0447.end
ENCODING -1
SWIDTH 459 0
DWIDTH 4 0
BBX 4 4 0 0
BITMAP
8998
B7D5
6AF2
00D5
ENDCHAR
STARTCHAR uni0448.end
ENCODING -1
SWIDTH 706 0
DWIDTH 6 0
BBX 6 4 0 0
BITMAP
899898
C6C5C5
F4F3F2
D9D9D5
ENDCHAR
STARTCHAR uni044B.end
ENCODING -1
SWIDTH 608 0
DWIDTH 5 0
BBX 5 4 0 0
BITMAP
9817B0
C9B980
E2AB50
CB4A80
ENDCHAR
STARTCHAR uni0455.end
ENCODING -1
SWIDTH 316 0
DWIDTH 3 0
BBX 4 5 -1 0
BITMAP
0011
01E6
05C7
18A7
19C3
ENDCHAR
STARTCHAR uni0456.end
ENCODING -1
SWIDTH 209 0
DWIDTH 2 0
BBX 2 6 0 0
BITMAP
3C
02
89
C6
F3
D5
ENDCHAR
STARTCHAR uni0458.end
ENCODING -1
SWIDTH 213 0
DWIDTH 2 0
BBX 4 8 -2 -2
BITMAP
003C
0002
0089
00C6
00E3
03E0
49B0
7D50
ENDCHAR
STARTCHAR uni044E.end
ENCODING -1
SWIDTH 675 0
DWIDTH 5 0
BBX 6 4 -1 0
BITMAP
0896B9
0CAF3A
0E5F1A
3E1DB3
ENDCHAR
STARTCHAR uni044F.end
ENCODING -1
SWIDTH 480 0
DWIDTH 4 0
BBX 5 4 -1 0
BITMAP
02BAB0
069880
15AC50
2A6A80
ENDCHAR
STARTCHAR uni0437.init
ENCODING -1
SWIDTH 455 0
DWIDTH 4 0
BBX 4 6 0 -2
BITMAP
5CC0
24D0
3D35
0BA3
7D60
8C10
ENDCHAR
STARTCHAR uni0445.init
ENCODING -1
SWIDTH 390 0
DWIDTH 3 0
BBX 5 5 -1 0
BITMAP
000A00
0A7800
06D300
29E130
65CA10
ENDCHAR
STARTCHAR uni0436.loclBGR
ENCODING -1
SWIDTH 882 0
DWIDTH 7 0
BBX 9 6 -1 0
BITMAP
0000350000
0000970000
07C5D5BA00
018BFC7200
13A7CA5120
2A8796B600
ENDCHAR
STARTCHAR uni043A.loclBGR
ENCODING -1
SWIDTH 518 0
DWIDTH 4 0
BBX 6 6 -1 0
BITMAP
017000
05C000
089730
0BDD20
0E3E42
3E0CB1
ENDCHAR
STARTCHAR uni044E.loclBGR
ENCODING -1
SWIDTH 675 0
DWIDTH 5 0
BBX 8 6 -1 0
BITMAP
01700000
05C00000
0886BA11
0CAF4B60
0E5F1A00
3E1DB300
ENDCHAR
STARTCHAR uni0493.loclBSH
ENCODING -1
SWIDTH 398 0
DWIDTH 3 0
BBX 5 4 -1 0
BITMAP
0BCC20
0E6200
3D3000
2D7000
ENDCHAR
STARTCHAR uni04AB.loclCHU
ENCODING -1
SWIDTH 384 0
DWIDTH 3 0
BBX 5 6 -1 -2
BITMAP
03B900
0C4200
1F4610
0CD400
005400
026200
ENDCHAR
STARTCHAR uni0453.loclMKD
ENCODING -1
SWIDTH 267 0
DWIDTH 2 0
BBX 3 7 0 0
BITMAP
0240
7F40
0000
8900
C600
F320
DA10
ENDCHAR
STARTCHAR uni0433.loclSRB
ENCODING -1
SWIDTH 267 0
DWIDTH 2 0
BBX 3 6 0 0
BITMAP
7930
0000
8900
C600
F320
DA10
ENDCHAR
STARTCHAR uni043F.loclSRB
ENCODING -1
SWIDTH 505 0
DWIDTH 4 0
BBX 5 6 0 0
BITMAP
099500
000000
899800
C6C500
F4F320
D9D900
ENDCHAR
STARTCHAR uni0442.loclSRB
ENCODING -1
SWIDTH 752 0
DWIDTH 6 0
BBX 7 5 0 0
BITMAP
08888400
89989800
C6C5C500
F4F3F320
D9D9D900
ENDCHAR
STARTCHAR uni04150437
ENCODING -1
SWIDTH 940 0
DWIDTH 8 0
BBX 8 8 0 -2
BITMAP
05A80000
0D280000
0B706CA0
7C1245C0
D8064D25
9E920C83
00007E50
0000AC00
ENDCHAR
STARTCHAR uni04150445
ENCODING -1
SWIDTH 797 0
DWIDTH 6 0
BBX 7 6 0 0
BITMAP
06990000
0D242820
2C64D620
AA01F600
D803F330
8D869C20
ENDCHAR
STARTCHAR uni04010437
ENCODING -1
SWIDTH 940 0
DWIDTH 8 0
BBX 8 9 0 -2
BITMAP
00A73000
05A80000
0D280000
0B706CA0
7C1245C0
D8064D25
9E920C83
00007E50
0000AC00
ENDCHAR
STARTCHAR uni04010445
ENCODING -1
SWIDTH 797 0
DWIDTH 6 0
BBX 7 8 0 0
BITMAP
00A73000
00000000
06990000
0D242820
2C64D620
AA01F600
D803F330
8D869C20
ENDCHAR
STARTCHAR uni04210437
ENCODING -1
SWIDTH 973 0
DWIDTH 8 0
BBX 8 8 0 -2
BITMAP
06A82000
3E172000
9B003BD1
C80061F1
C8053D54
6E9308A4
00005C90
00007C30
ENDCHAR
STARTCHAR uni04210445
ENCODING -1
SWIDTH 814 0
DWIDTH 7 0
BBX 7 6 0 0
BITMAP
06A82000
3E133640
9B02F430
C800E800
C802E530
6E967C30
ENDCHAR
STARTCHAR uni04040437
ENCODING -1
SWIDTH 973 0
DWIDTH 8 0
BBX 8 8 0 -2
BITMAP
06A82000
3E172000
9D823BD1
C80061F1
C9053D54
6E9308A4
00005C90
00007C30
ENDCHAR
STARTCHAR uni04040445
ENCODING -1
SWIDTH 814 0
DWIDTH 7 0
BBX 7 6 0 0
BITMAP
06A82000
3E133640
9D83F440
C800E800
C802E530
6E977C30
ENDCHAR
STARTCHAR uni04300445
ENCODING -1
SWIDTH 899 0
DWIDTH 7 0
BBX 9 5 -1 0
BITMAP
0000000400
03BAB89900
0C5985D600
1F2D55F020
0DAAC6CA10
ENDCHAR
STARTCHAR uni04300447
ENCODING -1
SWIDTH 993 0
DWIDTH 8 0
BBX 10 4 -1 0
BITMAP
03BABA7A70
0C598D5E40
1F2D58BF21
0DAB701E80
ENDCHAR
STARTCHAR uni04310433
ENCODING -1
SWIDTH 816 0
DWIDTH 7 0
BBX 8 6 -1 0
BITMAP
008EE400
00681000
018C3BD1
0B6975D0
1F2B5D22
0CA46D82
ENDCHAR
STARTCHAR uni04310453
ENCODING -1
SWIDTH 816 0
DWIDTH 7 0
BBX 8 6 -1 0
BITMAP
008EE4A1
00681130
018C3BD1
0B6975D0
1F2B5D22
0CA46D82
ENDCHAR
STARTCHAR uni04310451
ENCODING -1
SWIDTH 814 0
DWIDTH 7 0
BBX 8 7 -1 0
BITMAP
00021000
00AEC748
00580000
029D0AA3
0C696D73
1F299A31
0CA36D82
ENDCHAR
STARTCHAR uni04310436
ENCODING -1
SWIDTH 1261 0
DWIDTH 10 0
BBX 12 6 -1 0
BITMAP
008EE4000000
006810000000
029C5B897AA2
0C6954DEBB20
1F2B267F7902
0CB4994D2C70
ENDCHAR
STARTCHAR uni04310439
ENCODING -1
SWIDTH 935 0
DWIDTH 7 0
BBX 9 6 -1 0
BITMAP
008EE76410
0068137400
029C2F3F00
0C696C5C00
1F2A899920
0CC36C9C40
ENDCHAR
STARTCHAR uni0431045E
ENCODING -1
SWIDTH 916 0
DWIDTH 7 0
BBX 9 8 -1 -2
BITMAP
008EE76410
0068137400
029C2F3F00
0C696C5C00
1F2A899920
0CC36CE930
000007F200
00001BA000
ENDCHAR
STARTCHAR uni0431044D
ENCODING -1
SWIDTH 860 0
DWIDTH 7 0
BBX 8 6 -1 0
BITMAP
008EE400
00681000
029D4AD4
0C6995D7
1F2B50E4
0CB49870
ENDCHAR
STARTCHAR uni04310456
ENCODING -1
SWIDTH 697 0
DWIDTH 6 0
BBX 7 7 -1 0
BITMAP
00010000
00AFCB40
00670200
029C2F10
0C696C00
1F2A8920
0CC36D40
ENDCHAR
STARTCHAR uni04310457
ENCODING -1
SWIDTH 697 0
DWIDTH 6 0
BBX 7 7 -1 0
BITMAP
00021000
00AEA990
00580000
029D2F10
0C696C00
1F2A8920
0CC36D40
ENDCHAR
STARTCHAR uni04310458
ENCODING -1
SWIDTH 669 0
DWIDTH 5 0
BBX 7 9 -1 -2
BITMAP
00010000
00AFCC30
00670200
029C2F10
0C696C00
1F2A8920
0CB3B930
0007F300
001BA000
ENDCHAR
STARTCHAR uni04320433
ENCODING -1
SWIDTH 837 0
DWIDTH 7 0
BBX 8 6 -1 0
BITMAP
007B2000
03C53000
0A8739E2
0E7D53E1
1F2A4D22
0BB65E83
ENDCHAR
STARTCHAR uni04320453
ENCODING -1
SWIDTH 837 0
DWIDTH 7 0
BBX 8 6 -1 0
BITMAP
007B2092
03C53050
0A8739E2
0E7D53E1
1F2A4D22
0BB65E83
ENDCHAR
STARTCHAR uni04320436
ENCODING -1
SWIDTH 1279 0
DWIDTH 10 0
BBX 12 6 -1 0
BITMAP
007B20000000
03C530000000
0A775AA6A8A3
0E6C21ECBD11
1F2A249D7B02
0BC6893F1C81
ENDCHAR
STARTCHAR uni04320437
ENCODING -1
SWIDTH 824 0
DWIDTH 7 0
BBX 8 8 -1 -2
BITMAP
007B2000
03C53000
0A775CB0
0E7D44D0
1F2A4D24
0BC60B84
00006D60
00009C10
ENDCHAR
STARTCHAR uni04320445
ENCODING -1
SWIDTH 851 0
DWIDTH 7 0
BBX 8 6 -1 0
BITMAP
007B2000
03C53000
0A776D48
0E7D3AA4
1F2A1B92
0BC674D7
ENDCHAR
STARTCHAR uni04330437
ENCODING -1
SWIDTH 840 0
DWIDTH 7 0
BBX 8 6 -1 -2
BITMAP
07D83BD1
03B762E1
0C654D44
1D9409A4
00005C80
00008C20
ENDCHAR
STARTCHAR uni04330445
ENCODING -1
SWIDTH 740 0
DWIDTH 6 0
BBX 8 5 -1 0
BITMAP
00000180
06D8D470
04B7AB20
0C61AB11
1DA72E80
ENDCHAR
STARTCHAR uni04330447
ENCODING -1
SWIDTH 880 0
DWIDTH 7 0
BBX 9 4 -1 0
BITMAP
06D8899800
04B7C6D500
0C64ABF320
1DA400D900
ENDCHAR
STARTCHAR uni04530437
ENCODING -1
SWIDTH 840 0
DWIDTH 7 0
BBX 8 8 -1 -2
BITMAP
000B0000
00240000
07D83BD1
03B762E1
0C654D44
1D9409A4
00005C80
00008C20
ENDCHAR
STARTCHAR uni04530445
ENCODING -1
SWIDTH 740 0
DWIDTH 6 0
BBX 8 6 -1 0
BITMAP
00190000
00000180
06D8D470
04B7AB20
0C61AB11
1DA72E80
ENDCHAR
STARTCHAR uni04530447
ENCODING -1
SWIDTH 880 0
DWIDTH 7 0
BBX 9 6 -1 0
BITMAP
000B000000
0024000000
06D8899800
04B7C6D500
0C64ABF320
1DA400D900
ENDCHAR
STARTCHAR uni04340447
ENCODING -1
SWIDTH 1010 0
DWIDTH 8 0
BBX 10 6 -1 -2
BITMAP
03BAB89890
0C598B7C60
1F2D5BBF32
0DBF710DA1
039D000000
05C6000000
ENDCHAR
STARTCHAR uni04340458
ENCODING -1
SWIDTH 746 0
DWIDTH 6 0
BBX 8 8 -1 -2
BITMAP
000003C0
00000020
03BAB8A0
0C598B60
1F2D5E41
0DBF5F60
028D6C00
05DBD500
ENDCHAR
STARTCHAR uni04350437
ENCODING -1
SWIDTH 876 0
DWIDTH 7 0
BBX 9 6 -1 -2
BITMAP
03B919E300
0C6960D400
1F634B8020
0CB505C600
00003AC000
00005C5000
ENDCHAR
STARTCHAR uni04350445
ENCODING -1
SWIDTH 762 0
DWIDTH 6 0
BBX 8 5 -1 0
BITMAP
00000030
03B998A0
0C797B60
1F616E01
0BB84DA1
ENDCHAR
STARTCHAR uni04350447
ENCODING -1
SWIDTH 889 0
DWIDTH 7 0
BBX 9 4 -1 0
BITMAP
03B97A8A00
0C69B7B600
1F65BAF320
0CA500CA10
ENDCHAR
STARTCHAR uni04510437
ENCODING -1
SWIDTH 876 0
DWIDTH 7 0
BBX 9 7 -1 -2
BITMAP
00A7300000
03B919E300
0C6960D400
1F634B8020
0CB505C600
00003AC000
00005C5000
ENDCHAR
STARTCHAR uni04510445
ENCODING -1
SWIDTH 762 0
DWIDTH 6 0
BBX 8 6 -1 0
BITMAP
00A73000
00000030
03B998A0
0C797B60
1F616E01
0BB84DA1
ENDCHAR
STARTCHAR uni04510447
ENCODING -1
SWIDTH 889 0
DWIDTH 7 0
BBX 9 6 -1 0
BITMAP
00A7300000
0000000000
03B97A8A00
0C69B7B600
1F65BAF320
0CA500CA10
ENDCHAR
STARTCHAR uni04360447
ENCODING -1
SWIDTH 1392 0
DWIDTH 11 0
BBX 13 4 -1 0
BITMAP
07C5D5BA898900
018BFC72BAD600
13A7CA539AF320
2A8796B600CA10
ENDCHAR
STARTCHAR uni04370437
ENCODING -1
SWIDTH 921 0
DWIDTH 7 0
BBX 8 6 0 -2
BITMAP
3AE38D80
60D728A0
1B856D14
06D30E71
4AB18F20
5C51BA00
ENDCHAR
STARTCHAR uni04380447
ENCODING -1
SWIDTH 1010 0
DWIDTH 8 0
BBX 9 4 0 0
BITMAP
8998898900
C6C5B7C600
F4F3AAF320
D9D900CA10
ENDCHAR
STARTCHAR uni04390447
ENCODING -1
SWIDTH 1010 0
DWIDTH 8 0
BBX 9 6 0 0
BITMAP
0603000000
0772000000
8998898900
C6C5B7C600
F4F3BAF320
D9D900CA10
ENDCHAR
STARTCHAR uni043A0447
ENCODING -1
SWIDTH 1016 0
DWIDTH 8 0
BBX 10 4 -1 0
BITMAP
0896A6B7B0
0CD9099B70
0E4F29AE42
3E0DA10BA1
ENDCHAR
STARTCHAR uni045C0447
ENCODING -1
SWIDTH 1016 0
DWIDTH 8 0
BBX 10 6 -1 0
BITMAP
0009200000
0005000000
0896A6B7B0
0CD9099B70
0E4F29AE42
3E0DA10BA1
ENDCHAR
STARTCHAR uni043B0447
ENCODING -1
SWIDTH 1061 0
DWIDTH 8 0
BBX 10 4 -1 0
BITMAP
002AE2F3F1
0076B5D6C0
148887BC93
2A56C307C4
ENDCHAR
STARTCHAR uni043C0447
ENCODING -1
SWIDTH 1276 0
DWIDTH 10 0
BBX 12 4 -1 0
BITMAP
004F09B6B6B0
007F3E799B80
147F9D4AAE53
2A5E7AB10BB1
ENDCHAR
STARTCHAR uni043D0447
ENCODING -1
SWIDTH 1011 0
DWIDTH 8 0
BBX 10 4 -1 0
BITMAP
0898989890
0CAD5BAD60
0E2F3A9F32
3E0C900D90
ENDCHAR
STARTCHAR uni043E0433
ENCODING -1
SWIDTH 804 0
DWIDTH 6 0
BBX 8 4 -1 0
BITMAP
03BA3AD2
0C5A54E1
1F2A5C22
0CB47D82
ENDCHAR
STARTCHAR uni043E0453
ENCODING -1
SWIDTH 804 0
DWIDTH 6 0
BBX 8 6 -1 0
BITMAP
00000065
00000060
03BA3AD2
0C5A54E1
1F2A5C22
0CB47D82
ENDCHAR
STARTCHAR uni043E0436
ENCODING -1
SWIDTH 1271 0
DWIDTH 10 0
BBX 12 4 -1 0
BITMAP
03BA5A9799A2
0C5A42DDBC10
1F2B458E7A02
0CC4993E2C70
ENDCHAR
STARTCHAR uni043E0437
ENCODING -1
SWIDTH 837 0
DWIDTH 7 0
BBX 8 6 -1 -2
BITMAP
03BA4BC0
0C5A53E0
1F2B3D34
0CC40A94
00005C80
00008D20
ENDCHAR
STARTCHAR uni043E043B
ENCODING -1
SWIDTH 992 0
DWIDTH 8 0
BBX 10 4 -1 0
BITMAP
03BA008D70
0C59118D40
1F2B545F21
0CC9A91D80
ENDCHAR
STARTCHAR uni043E043C
ENCODING -1
SWIDTH 1207 0
DWIDTH 10 0
BBX 11 4 -1 0
BITMAP
03BA00C72F30
0C5910E89E00
1F2B43BBBB20
0CC9A87D5D50
ENDCHAR
STARTCHAR uni043E0445
ENCODING -1
SWIDTH 850 0
DWIDTH 7 0
BBX 8 5 -1 0
BITMAP
00000012
03BA2F58
0C5A5BA2
1F2A3B92
0CA494E7
ENDCHAR
STARTCHAR uni043E0459
ENCODING -1
SWIDTH 1179 0
DWIDTH 9 0
BBX 11 4 -1 0
BITMAP
03BA008D7000
0C59118DBA00
1F2A545F1E10
0CC9A91DC600
ENDCHAR
STARTCHAR uni043E044D
ENCODING -1
SWIDTH 867 0
DWIDTH 7 0
BBX 8 4 -1 0
BITMAP
03BA49D5
0C5A64C8
1F2B40D4
0CC48880
ENDCHAR
STARTCHAR uni043F0447
ENCODING -1
SWIDTH 1010 0
DWIDTH 8 0
BBX 10 4 -1 0
BITMAP
08DD489890
0C6C5B7C60
0E3E3AAF32
3E0CA00C91
ENDCHAR
STARTCHAR uni04400437
ENCODING -1
SWIDTH 890 0
DWIDTH 7 0
BBX 9 6 -1 -2
BITMAP
08CC68E500
0B69B0C600
0E2C59A140
3FBA03D600
6B0029E000
96004C7000
ENDCHAR
STARTCHAR uni04410437
ENCODING -1
SWIDTH 876 0
DWIDTH 7 0
BBX 9 6 -1 -2
BITMAP
03B919E300
0C5260D400
1F224B8230
0CB505C600
00003AC000
00005C5000
ENDCHAR
STARTCHAR uni04410445
ENCODING -1
SWIDTH 755 0
DWIDTH 6 0
BBX 8 5 -1 0
BITMAP
00000030
04B9A790
0D427B50
2F108D12
0CB83D90
ENDCHAR
STARTCHAR uni04410447
ENCODING -1
SWIDTH 889 0
DWIDTH 7 0
BBX 9 4 -1 0
BITMAP
03B97A8A00
0C52B7B600
1F23ABF320
0CA500CA10
ENDCHAR
STARTCHAR uni0441044A
ENCODING -1
SWIDTH 841 0
DWIDTH 7 0
BBX 8 4 -1 0
BITMAP
03B98B40
0C525DA4
1F21C888
0CB57CA1
ENDCHAR
STARTCHAR uni04420447
ENCODING -1
SWIDTH 1257 0
DWIDTH 10 0
BBX 12 4 -1 0
BITMAP
08DD9D489990
0C6C6C5B7D60
0E3F2F2AAF32
3E3E0D900D90
ENDCHAR
STARTCHAR uni04430447
ENCODING -1
SWIDTH 989 0
DWIDTH 8 0
BBX 9 6 0 -2
BITMAP
8998A7B700
C6C5D5E300
F4F4BAF210
DCF601E800
4AB0000000
6C40000000
ENDCHAR
STARTCHAR uni04430458
ENCODING -1
SWIDTH 725 0
DWIDTH 6 0
BBX 6 8 0 -2
BITMAP
00005A
000001
8998A7
C6C5D4
F4F4F3
DCE6E5
3ABA90
6DAD30
ENDCHAR
STARTCHAR uni045E0447
ENCODING -1
SWIDTH 989 0
DWIDTH 8 0
BBX 9 8 0 -2
BITMAP
0603000000
0772000000
8998A7B700
C6C5D5E300
F4F4BAF210
DCF601E800
4AB0000000
6C40000000
ENDCHAR
STARTCHAR uni045E0458
ENCODING -1
SWIDTH 725 0
DWIDTH 6 0
BBX 6 8 0 -2
BITMAP
060325
077237
8998A7
C6C5D4
F4F4F3
DCE6E5
39A990
6DAD30
ENDCHAR
STARTCHAR uni04440437
ENCODING -1
SWIDTH 1148 0
DWIDTH 9 0
BBX 11 8 -1 -2
BITMAP
000060000000
0003D0000000
03CABB68D600
0C5A57B1B700
1F2D2B69B040
0DBFCB02E610
004C0029F000
0077003C8000
ENDCHAR
STARTCHAR uni04450447
ENCODING -1
SWIDTH 1027 0
DWIDTH 8 0
BBX 9 4 0 0
BITMAP
2B896C6B00
54E699A800
36E0ABE520
53BA10BA10
ENDCHAR
STARTCHAR uni0445044A
ENCODING -1
SWIDTH 1006 0
DWIDTH 8 0
BBX 8 5 0 0
BITMAP
00040000
2B8A7A60
54D52D96
36E0AA6A
53CA8CB2
ENDCHAR
STARTCHAR uni04470447
ENCODING -1
SWIDTH 1010 0
DWIDTH 8 0
BBX 9 4 0 0
BITMAP
8998898900
B7D5B7C600
6AF3AAF320
00D900CA10
ENDCHAR
STARTCHAR uni04480447
ENCODING -1
SWIDTH 1257 0
DWIDTH 10 0
BBX 11 4 0 0
BITMAP
899898899900
C6C5C5C7D500
F4F3F3BAF320
D9D9D900D900
ENDCHAR
STARTCHAR uni045F0447
ENCODING -1
SWIDTH 1010 0
DWIDTH 8 0
BBX 9 6 0 -2
BITMAP
8998898900
C6C5B7C600
F4F3AAF320
D9D900CA10
0910000000
0830000000
ENDCHAR
STARTCHAR uni044B0447
ENCODING -1
SWIDTH 1157 0
DWIDTH 9 0
BBX 10 4 0 0
BITMAP
9817B5C6C0
C9B9889A80
E2AB59BE52
CB4AB10AB2
ENDCHAR
STARTCHAR uni04550437
ENCODING -1
SWIDTH 840 0
DWIDTH 7 0
BBX 8 7 -1 -2
BITMAP
00110000
01E64BC1
04B772E1
15AD4D44
1AD509A4
00005C80
00008C20
ENDCHAR
STARTCHAR uni04550445
ENCODING -1
SWIDTH 727 0
DWIDTH 6 0
BBX 7 5 -1 0
BITMAP
00520270
02E6D470
05B7AB10
28A9BA30
1AC53E60
ENDCHAR
STARTCHAR uni04550447
ENCODING -1
SWIDTH 909 0
DWIDTH 7 0
BBX 9 5 -1 0
BITMAP
0021000000
01F65C5C00
05B79AA900
18AA8BD620
1AC500AB20
ENDCHAR
STARTCHAR uni04540437
ENCODING -1
SWIDTH 876 0
DWIDTH 7 0
BBX 9 6 -1 -2
BITMAP
03A919E300
0C9360D400
1F124B8230
0CB505C600
00003AC000
00005C5000
ENDCHAR
STARTCHAR uni04540445
ENCODING -1
SWIDTH 755 0
DWIDTH 6 0
BBX 8 5 -1 0
BITMAP
00000030
04A9A790
0D837D30
2F109D12
0CB82D90
ENDCHAR
STARTCHAR uni04540447
ENCODING -1
SWIDTH 889 0
DWIDTH 7 0
BBX 9 4 -1 0
BITMAP
03A97A8A00
0C93BAD600
1F138AF420
0CA400CA10
ENDCHAR
STARTCHAR uni044D0437
ENCODING -1
SWIDTH 837 0
DWIDTH 7 0
BBX 8 6 -1 -2
BITMAP
06BC5BC0
018F53E0
245C3D44
29A20A94
00005C80
00008C20
ENDCHAR
STARTCHAR uni04560447
ENCODING -1
SWIDTH 763 0
DWIDTH 6 0
BBX 7 6 0 0
BITMAP
3C000000
02000000
897A8900
C6B8C600
F3AAF320
D900CA10
ENDCHAR
STARTCHAR uni04570447
ENCODING -1
SWIDTH 763 0
DWIDTH 6 0
BBX 7 6 0 0
BITMAP
A5600000
00000000
897A8900
C6B8C600
F3AAF320
D900CA10
ENDCHAR
STARTCHAR uni04570457
ENCODING -1
SWIDTH 543 0
DWIDTH 4 0
BBX 5 6 0 0
BITMAP
A87780
000000
896B00
C6A800
F3D420
DACB20
ENDCHAR
STARTCHAR uni04580447
ENCODING -1
SWIDTH 743 0
DWIDTH 6 0
BBX 9 8 -2 -2
BITMAP
004C000000
0002000000
0089A7A700
00C6D6E400
00E4BAF210
03F601E800
3AB0000000
6C50000000
ENDCHAR
STARTCHAR uni04580458
ENCODING -1
SWIDTH 480 0
DWIDTH 4 0
BBX 7 8 -2 -2
BITMAP
004C5B00
00020100
0089A800
00B6D400
00E4F410
03E7E500
38B8A000
6DAD3000
ENDCHAR
STARTCHAR uni045B0447
ENCODING -1
SWIDTH 990 0
DWIDTH 8 0
BBX 10 8 -1 -2
BITMAP
02B0000000
09D5000000
09CC2B6C60
0C6D4E7F30
0F2F4AAE21
3E4E402E70
05BA000000
06C4000000
ENDCHAR
STARTCHAR uni045B0458
ENCODING -1
SWIDTH 722 0
DWIDTH 6 0
BBX 7 8 -1 -2
BITMAP
02C006A0
09D50110
09CC2B70
0C6D4E40
0F2F3F40
3E3E6D40
04AA9900
06DAD300
ENDCHAR
STARTCHAR uni044E0433
ENCODING -1
SWIDTH 1050 0
DWIDTH 8 0
BBX 10 4 -1 0
BITMAP
0896BA5AD1
0CAF3B46D0
0E5F1A7B13
3E1DA39C70
ENDCHAR
STARTCHAR uni044E0453
ENCODING -1
SWIDTH 1050 0
DWIDTH 8 0
BBX 10 6 -1 0
BITMAP
0000000083
0000000050
0896BA5AD1
0CAF3B46D0
0E5F1A7B13
3E1DA39C70
ENDCHAR
STARTCHAR uni044E0436
ENCODING -1
SWIDTH 1507 0
DWIDTH 12 0
BBX 14 4 -1 0
BITMAP
0896A95A897AA1
0CAF3B24CEBB10
0E5F1A467F7812
3E1DB3A94D3C70
ENDCHAR
STARTCHAR uni044E0437
ENCODING -1
SWIDTH 1073 0
DWIDTH 9 0
BBX 10 6 -1 -2
BITMAP
0896B96BB0
0CAF3B35D0
0E5F1A4D24
3E1DB30B83
0000006D60
0000009C10
ENDCHAR
STARTCHAR uni044E043B
ENCODING -1
SWIDTH 1228 0
DWIDTH 10 0
BBX 11 4 -1 0
BITMAP
0896B9008E50
0CAF3A026E20
0E5F1A565E20
3E1DC8A82D70
ENDCHAR
STARTCHAR uni044E043C
ENCODING -1
SWIDTH 1443 0
DWIDTH 12 0
BBX 13 4 -1 0
BITMAP
0896B900E54F10
0CAF3A02E6AD00
0E5F1A55BAA920
3E1DC8A69C5D40
ENDCHAR
STARTCHAR uni044E0445
ENCODING -1
SWIDTH 1088 0
DWIDTH 9 0
BBX 10 5 -1 0
BITMAP
0000000022
0896AA4F57
0CAF3B3CA0
0E5F1A6C83
3E1DA2A4D5
ENDCHAR
STARTCHAR uni044E0459
ENCODING -1
SWIDTH 1415 0
DWIDTH 11 0
BBX 12 4 -1 0
BITMAP
0896B9008E50
0CAF3A026E8C
0E5F1A565D3D
3E1DC8A82DC4
ENDCHAR
STARTCHAR uni044E044D
ENCODING -1
SWIDTH 1103 0
DWIDTH 9 0
BBX 10 4 -1 0
BITMAP
0896BA58D4
0CAF3B45D7
0E5F1A41E3
3E1DB39970
ENDCHAR
STARTCHAR uni044F0447
ENCODING -1
SWIDTH 1030 0
DWIDTH 8 0
BBX 10 4 -1 0
BITMAP
02BAB5C6C0
0698899980
15AC4A9D53
2A6AB20BB2
ENDCHAR
STARTCHAR uni04300445.liga
ENCODING -1
SWIDTH 884 0
DWIDTH 7 0
BBX 8 5 -1 0
BITMAP
00000004
03BAB899
0C5985D6
1F2D55F1
0DAAB5C7
ENDCHAR
STARTCHAR uni04300447.liga
ENCODING -1
SWIDTH 947 0
DWIDTH 8 0
BBX 9 4 -1 0
BITMAP
03BABA7A70
0C598D5E40
1F2D58BF10
0DAB701E40
ENDCHAR
STARTCHAR uni04310451.liga
ENCODING -1
SWIDTH 746 0
DWIDTH 6 0
BBX 8 7 -1 0
BITMAP
00021000
00AEC748
00580000
029D0AA4
0C696D73
1F2A9B40
0CB36D60
ENDCHAR
STARTCHAR uni04310436.liga
ENCODING -1
SWIDTH 1258 0
DWIDTH 10 0
BBX 12 6 -1 0
BITMAP
008EE4000000
006810000000
029C5B897AA2
0C6954DEBB10
1F2B267F7900
0CB4994D2C60
ENDCHAR
STARTCHAR uni04310439.liga
ENCODING -1
SWIDTH 901 0
DWIDTH 7 0
BBX 9 6 -1 0
BITMAP
008EE76410
0068137400
029C2F3F00
0C696C5C00
1F2A899900
0CC36C9B00
ENDCHAR
STARTCHAR uni0431045E.liga
ENCODING -1
SWIDTH 890 0
DWIDTH 7 0
BBX 9 8 -1 -2
BITMAP
008EE76410
0068137400
029C2F3F10
0C696C5C00
1F2A899900
0CC36CE600
000017F200
00002CA000
ENDCHAR
STARTCHAR uni04310456.liga
ENCODING -1
SWIDTH 639 0
DWIDTH 5 0
BBX 7 7 -1 0
BITMAP
00010000
00AFCB40
00670200
029C2F10
0C696C00
1F2A8900
0CC36C00
ENDCHAR
STARTCHAR uni04310457.liga
ENCODING -1
SWIDTH 638 0
DWIDTH 5 0
BBX 7 7 -1 0
BITMAP
00021000
00AEA990
00580000
029D2F10
0C696C00
1F2A8900
0CC36B00
ENDCHAR
STARTCHAR uni04310458.liga
ENCODING -1
SWIDTH 638 0
DWIDTH 5 0
BBX 7 9 -1 -2
BITMAP
00010000
00AFCC30
00670200
029C2F10
0C696C00
1F2A8900
0CB3B600
0016F300
002CB000
ENDCHAR
STARTCHAR uni04320436.liga
ENCODING -1
SWIDTH 1275 0
DWIDTH 10 0
BBX 12 6 -1 0
BITMAP
007B20000000
03C530000000
0A775AA6A8A3
0E6C21ECBD11
1F2A249D7B00
0BC6893F1C71
ENDCHAR
STARTCHAR uni04320437.liga
ENCODING -1
SWIDTH 752 0
DWIDTH 6 0
BBX 7 8 -1 -2
BITMAP
007B2000
03C53000
0A775CB0
0E7D44D0
1F2A4D30
0BC60C60
00006D50
0000AC10
ENDCHAR
STARTCHAR uni04320445.liga
ENCODING -1
SWIDTH 842 0
DWIDTH 7 0
BBX 8 6 -1 0
BITMAP
007B2000
03C53000
0A776D48
0E7D3AB4
1F2A1BA0
0BC674D2
ENDCHAR
STARTCHAR uni04330437.liga
ENCODING -1
SWIDTH 768 0
DWIDTH 6 0
BBX 8 6 -1 -2
BITMAP
07D83BD1
03B762E1
0C654D40
1D940A80
00005B70
00009D20
ENDCHAR
STARTCHAR uni04330445.liga
ENCODING -1
SWIDTH 725 0
DWIDTH 6 0
BBX 7 5 -1 0
BITMAP
00000180
06D8D470
04B7AB20
1C61AB00
1DA72D30
ENDCHAR
STARTCHAR uni04330447.liga
ENCODING -1
SWIDTH 834 0
DWIDTH 7 0
BBX 8 4 -1 0
BITMAP
06D88998
04B7C6D5
0C64ABF2
1DA400D5
ENDCHAR
STARTCHAR uni04530437.liga
ENCODING -1
SWIDTH 768 0
DWIDTH 6 0
BBX 8 8 -1 -2
BITMAP
000B0000
00240000
07D83BD1
03B762E1
0C654D40
1D940A80
00005B70
00009D20
ENDCHAR
STARTCHAR uni04530445.liga
ENCODING -1
SWIDTH 725 0
DWIDTH 6 0
BBX 7 6 -1 0
BITMAP
00190000
00000180
06D8D470
04B7AB20
1C61AB00
1DA72D30
ENDCHAR
STARTCHAR uni04530447.liga
ENCODING -1
SWIDTH 834 0
DWIDTH 7 0
BBX 8 6 -1 0
BITMAP
000B0000
00240000
06D88998
04B7C6D5
0C64ABF2
1DA400D5
ENDCHAR
STARTCHAR uni04340447.liga
ENCODING -1
SWIDTH 965 0
DWIDTH 8 0
BBX 9 6 -1 -2
BITMAP
03BAB89890
0C598B7C60
1F2D5BAF30
0DBF710D60
039D000000
05C6000000
ENDCHAR
STARTCHAR uni04340458.liga
ENCODING -1
SWIDTH 715 0
DWIDTH 6 0
BBX 7 8 -1 -2
BITMAP
000003C0
00000020
03BAB8A0
0C598B60
1F2D5E30
0DBF5F00
028D6C00
05DBD500
ENDCHAR
STARTCHAR uni04350437.liga
ENCODING -1
SWIDTH 804 0
DWIDTH 6 0
BBX 8 6 -1 -2
BITMAP
03B919E3
0C6760D4
1F224B80
0CB505C0
000049C0
00006C50
ENDCHAR
STARTCHAR uni04350445.liga
ENCODING -1
SWIDTH 747 0
DWIDTH 6 0
BBX 7 5 -1 0
BITMAP
00000030
03B998A0
0C7A7B70
1F815E00
0BB84D50
ENDCHAR
STARTCHAR uni04350447.liga
ENCODING -1
SWIDTH 844 0
DWIDTH 7 0
BBX 8 4 -1 0
BITMAP
03B97A8A
0C69B7B6
1F75CAF3
0CA600D6
ENDCHAR
STARTCHAR uni04510437.liga
ENCODING -1
SWIDTH 804 0
DWIDTH 6 0
BBX 8 7 -1 -2
BITMAP
00A73000
03B919E3
0C6760D4
1F224B80
0CB505C0
000049C0
00006C50
ENDCHAR
STARTCHAR uni04510445.liga
ENCODING -1
SWIDTH 747 0
DWIDTH 6 0
BBX 7 6 -1 0
BITMAP
00A73000
00000030
03B998A0
0C7A7B70
1F815E00
0BB84D50
ENDCHAR
STARTCHAR uni04510447.liga
ENCODING -1
SWIDTH 844 0
DWIDTH 7 0
BBX 8 6 -1 0
BITMAP
00A73000
00000000
03B97A8A
0C69B7B6
1F75CAF3
0CA600D6
ENDCHAR
STARTCHAR uni04360447.liga
ENCODING -1
SWIDTH 1341 0
DWIDTH 11 0
BBX 12 4 -1 0
BITMAP
07C5D5BA8989
018BFC72BAD6
13A7CA539AF3
2A8796B600C6
ENDCHAR
STARTCHAR uni04370437.liga
ENCODING -1
SWIDTH 849 0
DWIDTH 7 0
BBX 7 6 0 -2
BITMAP
3AE38D80
60D728A0
1B856C10
06D31F20
4AB17F20
5D51C900
ENDCHAR
STARTCHAR uni04380447.liga
ENCODING -1
SWIDTH 964 0
DWIDTH 8 0
BBX 8 4 0 0
BITMAP
89988989
C6C5B7C6
F4F3AAF3
D9D900C6
ENDCHAR
STARTCHAR uni04390447.liga
ENCODING -1
SWIDTH 964 0
DWIDTH 8 0
BBX 8 6 0 0
BITMAP
06030000
07720000
89988989
C6C5B7C6
F4F3BAF3
D9D900C6
ENDCHAR
STARTCHAR uni043A0447.liga
ENCODING -1
SWIDTH 978 0
DWIDTH 8 0
BBX 9 4 -1 0
BITMAP
0896A6B7B0
0CD9099B80
0E4F29AE40
3E0DA10B70
ENDCHAR
STARTCHAR uni045C0447.liga
ENCODING -1
SWIDTH 978 0
DWIDTH 8 0
BBX 9 6 -1 0
BITMAP
0009200000
0005000000
0896A6B7B0
0CD9099B80
0E4F29AE40
3E0DA10B70
ENDCHAR
STARTCHAR uni043B0447.liga
ENCODING -1
SWIDTH 1015 0
DWIDTH 8 0
BBX 9 4 -1 0
BITMAP
002AE2F3F0
0076B5D6C0
148887BC90
2A56C307B0
ENDCHAR
STARTCHAR uni043C0447.liga
ENCODING -1
SWIDTH 1231 0
DWIDTH 10 0
BBX 11 4 -1 0
BITMAP
004F09B6B6B0
007F3E799B80
147F9D4AAE50
2A5E7AB10A80
ENDCHAR
STARTCHAR uni043D0447.liga
ENCODING -1
SWIDTH 965 0
DWIDTH 8 0
BBX 9 4 -1 0
BITMAP
0898989890
0CAD5BAD60
0E2F399F30
3E0C900C60
ENDCHAR
STARTCHAR uni043E0436.liga
ENCODING -1
SWIDTH 1268 0
DWIDTH 10 0
BBX 12 4 -1 0
BITMAP
03BA5A9799A3
0C5A42DDBD10
1F2B458E7A00
0CC4993E2C70
ENDCHAR
STARTCHAR uni043E0437.liga
ENCODING -1
SWIDTH 765 0
DWIDTH 6 0
BBX 7 6 -1 -2
BITMAP
03BA4BC0
0C5A53E0
1F2B3D40
0CC40A70
00006C70
00009D10
ENDCHAR
STARTCHAR uni043E043B.liga
ENCODING -1
SWIDTH 945 0
DWIDTH 8 0
BBX 9 4 -1 0
BITMAP
03BA008D70
0C59118D40
1F2B545F10
0CC9A91D40
ENDCHAR
STARTCHAR uni043E043C.liga
ENCODING -1
SWIDTH 1161 0
DWIDTH 9 0
BBX 11 4 -1 0
BITMAP
03BA00C72F30
0C5910E89E00
1F2B43BBBB00
0CC9A87D4D10
ENDCHAR
STARTCHAR uni043E0445.liga
ENCODING -1
SWIDTH 835 0
DWIDTH 7 0
BBX 8 5 -1 0
BITMAP
00000012
03BA1F58
0C5A6BA2
1F2A3B90
0CA494D2
ENDCHAR
STARTCHAR uni043F0447.liga
ENCODING -1
SWIDTH 965 0
DWIDTH 8 0
BBX 9 4 -1 0
BITMAP
08DD489890
0C6C5B7C60
0E3E3AAF30
3E0CA00C60
ENDCHAR
STARTCHAR uni04400437.liga
ENCODING -1
SWIDTH 818 0
DWIDTH 7 0
BBX 8 6 -1 -2
BITMAP
08CC68E5
0B69B0C6
0E2C5AA0
3FBA04E0
6B0038D0
96005C60
ENDCHAR
STARTCHAR uni04410437.liga
ENCODING -1
SWIDTH 804 0
DWIDTH 6 0
BBX 8 6 -1 -2
BITMAP
03B919E3
0C5260D4
1F224B80
0CB505C0
000049C0
00006C50
ENDCHAR
STARTCHAR uni04410445.liga
ENCODING -1
SWIDTH 740 0
DWIDTH 6 0
BBX 7 5 -1 0
BITMAP
00000030
04B9A790
0D427B50
2F107D00
0CB83D50
ENDCHAR
STARTCHAR uni04410447.liga
ENCODING -1
SWIDTH 843 0
DWIDTH 7 0
BBX 8 4 -1 0
BITMAP
03B97A8A
0C52B7B6
1F23ABF3
0CA500C6
ENDCHAR
STARTCHAR uni04420447.liga
ENCODING -1
SWIDTH 1211 0
DWIDTH 10 0
BBX 11 4 -1 0
BITMAP
08DD9D489990
0C6C6C5B7D60
0E3F2F2AAF20
3E3E0D900D50
ENDCHAR
STARTCHAR uni04430447.liga
ENCODING -1
SWIDTH 943 0
DWIDTH 8 0
BBX 8 6 0 -2
BITMAP
8998A7B7
C6C5D5E3
F4F4BAF0
DCF601D3
4AB00000
6C400000
ENDCHAR
STARTCHAR uni04430458.liga
ENCODING -1
SWIDTH 694 0
DWIDTH 6 0
BBX 6 8 0 -2
BITMAP
00005A
000001
8998A7
C6C5D4
F4F4F1
DCE6D0
3ABA90
6DAD30
ENDCHAR
STARTCHAR uni045E0447.liga
ENCODING -1
SWIDTH 943 0
DWIDTH 8 0
BBX 8 8 0 -2
BITMAP
06030000
07720000
8998A7B7
C6C5D5E3
F4F4BAF0
DCF601D3
4AB00000
6C400000
ENDCHAR
STARTCHAR uni045E0458.liga
ENCODING -1
SWIDTH 694 0
DWIDTH 6 0
BBX 6 8 0 -2
BITMAP
060325
077237
8998A7
C6C5D4
F4F4F1
DCE6D0
39A990
6DAD30
ENDCHAR
STARTCHAR uni04440437.liga
ENCODING -1
SWIDTH 1076 0
DWIDTH 9 0
BBX 10 8 -1 -2
BITMAP
0000600000
0003D00000
03CABB68D6
0C5A57B1B7
1F2D2B69B0
0DBFCB03F0
004C0027E0
0077004C70
ENDCHAR
STARTCHAR uni04450447.liga
ENCODING -1
SWIDTH 981 0
DWIDTH 8 0
BBX 8 4 0 0
BITMAP
2B896C6B
54E699A8
36E0ABE5
53BA10B7
ENDCHAR
STARTCHAR uni04470447.liga
ENCODING -1
SWIDTH 964 0
DWIDTH 8 0
BBX 8 4 0 0
BITMAP
89988989
B7D5B7C6
6AF3AAF3
00D900C6
ENDCHAR
STARTCHAR uni04480447.liga
ENCODING -1
SWIDTH 1211 0
DWIDTH 10 0
BBX 10 4 0 0
BITMAP
8998988999
C6C5C5C7D5
F4F3F3BAF2
D9D9D900D5
ENDCHAR
STARTCHAR uni045F0447.liga
ENCODING -1
SWIDTH 964 0
DWIDTH 8 0
BBX 8 6 0 -2
BITMAP
89988989
C6C5B7C6
F4F3AAF3
D9D900C6
09100000
08300000
ENDCHAR
STARTCHAR uni044B0447.liga
ENCODING -1
SWIDTH 1112 0
DWIDTH 9 0
BBX 9 4 0 0
BITMAP
9817B5C6C0
C9B9889A80
E2AB59BE50
CB4AB10A80
ENDCHAR
STARTCHAR uni04550437.liga
ENCODING -1
SWIDTH 768 0
DWIDTH 6 0
BBX 8 7 -1 -2
BITMAP
00110000
01E64BC1
04B772E1
15AD4D40
1AD50A80
00006C70
00008D20
ENDCHAR
STARTCHAR uni04550445.liga
ENCODING -1
SWIDTH 712 0
DWIDTH 6 0
BBX 7 5 -1 0
BITMAP
00520270
02E6D470
05B7AB10
28A9BA00
1AC53E20
ENDCHAR
STARTCHAR uni04550447.liga
ENCODING -1
SWIDTH 864 0
DWIDTH 7 0
BBX 8 5 -1 0
BITMAP
00210000
01F65C5C
05B79AA9
18AA8BD6
1AC50099
ENDCHAR
STARTCHAR uni04540437.liga
ENCODING -1
SWIDTH 804 0
DWIDTH 6 0
BBX 8 6 -1 -2
BITMAP
03A919E3
0C9360D4
1F124B80
0CB505C0
000049C0
00006C50
ENDCHAR
STARTCHAR uni04540445.liga
ENCODING -1
SWIDTH 740 0
DWIDTH 6 0
BBX 7 5 -1 0
BITMAP
00000030
04A9A790
0D837D30
2F109D00
0CB82D50
ENDCHAR
STARTCHAR uni04540447.liga
ENCODING -1
SWIDTH 844 0
DWIDTH 7 0
BBX 8 4 -1 0
BITMAP
03A97A8A
0C93BAD6
1F138AF3
0CA400C6
ENDCHAR
STARTCHAR uni044D0437.liga
ENCODING -1
SWIDTH 765 0
DWIDTH 6 0
BBX 7 6 -1 -2
BITMAP
06BC5BC0
018F53E0
245C3D40
29A20A70
00006C70
00009D10
ENDCHAR
STARTCHAR uni04560447.liga
ENCODING -1
SWIDTH 717 0
DWIDTH 6 0
BBX 6 6 0 0
BITMAP
3C0000
020000
897A89
C6B8C6
F3AAF3
D900C6
ENDCHAR
STARTCHAR uni04570447.liga
ENCODING -1
SWIDTH 718 0
DWIDTH 6 0
BBX 6 6 0 0
BITMAP
A56000
000000
897A89
C6B8C6
F3AAF3
D900C6
ENDCHAR
STARTCHAR uni04570457.liga
ENCODING -1
SWIDTH 476 0
DWIDTH 4 0
BBX 5 6 0 0
BITMAP
A87780
000000
896B00
C6A800
F3D400
DAC700
ENDCHAR
STARTCHAR uni04580447.liga
ENCODING -1
SWIDTH 697 0
DWIDTH 6 0
BBX 8 8 -2 -2
BITMAP
004C0000
00020000
0089A7A7
00C6D6E4
00E4BAF1
03F601D4
3AB00000
6C500000
ENDCHAR
STARTCHAR uni04580458.liga
ENCODING -1
SWIDTH 449 0
DWIDTH 4 0
BBX 6 8 -2 -2
BITMAP
004C5B
000201
0089A8
00B6D5
00E4F1
03E7D0
38B8A0
6DAD40
ENDCHAR
STARTCHAR uni045B0447.liga
ENCODING -1
SWIDTH 937 0
DWIDTH 8 0
BBX 9 8 -1 -2
BITMAP
02B0000000
09D5000000
09CC2B6C60
0C6D4E7F30
0F2F4AAE00
3E4E402D30
05BA000000
06C4000000
ENDCHAR
STARTCHAR uni045B0458.liga
ENCODING -1
SWIDTH 691 0
DWIDTH 6 0
BBX 7 8 -1 -2
BITMAP
02C006A0
09D50110
09CC2B70
0C6D4E40
0F2F3F10
3E3E6C00
04AA9900
06DAD300
ENDCHAR
STARTCHAR uni044E0436.liga
ENCODING -1
SWIDTH 1503 0
DWIDTH 12 0
BBX 14 4 -1 0
BITMAP
0896A95A897AA1
0CAF3B24CEBB10
0E5F1A467F7800
3E1DB3A94D3C60
ENDCHAR
STARTCHAR uni044E0437.liga
ENCODING -1
SWIDTH 1001 0
DWIDTH 8 0
BBX 9 6 -1 -2
BITMAP
0896B96BB0
0CAF3B35D0
0E5F1A4D20
3E1DB30C60
0000006D50
000000AC10
ENDCHAR
STARTCHAR uni044E043B.liga
ENCODING -1
SWIDTH 1181 0
DWIDTH 9 0
BBX 11 4 -1 0
BITMAP
0896B9008E50
0CAF3A026E20
0E5F1A565E00
3E1DC8A82D20
ENDCHAR
STARTCHAR uni044E043C.liga
ENCODING -1
SWIDTH 1396 0
DWIDTH 11 0
BBX 13 4 -1 0
BITMAP
0896B900E54F10
0CAF3A02E6AD00
0E5F1A55BAA900
3E1DC8A69C6C00
ENDCHAR
STARTCHAR uni044E0445.liga
ENCODING -1
SWIDTH 1072 0
DWIDTH 9 0
BBX 10 5 -1 0
BITMAP
0000000022
0896AA4F57
0CAF3B3CA0
0E5F1A6C80
3E1DA2A4D1
ENDCHAR
STARTCHAR uni044F0447.liga
ENCODING -1
SWIDTH 984 0
DWIDTH 8 0
BBX 9 4 -1 0
BITMAP
02BAB5C6C0
0698899980
15AC4A9D50
2A6AB20B80
ENDCHAR
STARTCHAR brevecombcy
ENCODING -1
SWIDTH 0 0
DWIDTH 0 0
BBX 4 2 -3 4
BITMAP
2512
2860
ENDCHAR
STARTCHAR brevecombcy.case
ENCODING -1
SWIDTH 0 0
DWIDTH 0 0
BBX 3 2 -2 6
BITMAP
6040
7720
ENDCHAR
ENDFONT
